<?xml version="1.0" standalone="no"?>
<!DOCTYPE svg PUBLIC "-//W3C//DTD SVG 1.1//EN" "http://www.w3.org/Graphics/SVG/1.1/DTD/svg11.dtd" >
<svg>
<metadata>
Created by FontForge 20090914 at Fri Aug 28 13:54:46 2020
 By www-data
Copyright (c) 2012, Julia Petretta (julia.petretta@googlemail.com), with Reserved Font Name 'Text Me'
</metadata>
<defs>
<font id="TextMeOne-Regular" horiz-adv-x="600" >
  <font-face 
    font-family="Text Me One"
    font-weight="400"
    font-stretch="normal"
    units-per-em="1000"
    panose-1="0 0 0 0 0 0 0 0 0 0"
    ascent="800"
    descent="-200"
    x-height="500"
    cap-height="700"
    bbox="-76 -269.007 1078 952.001"
    underline-thickness="50"
    underline-position="-50"
    unicode-range="U+000D-U+FB02"
  />
<missing-glyph horiz-adv-x="300" 
 />
    <glyph glyph-name="fi" unicode="fi" horiz-adv-x="540" 
d="M158 500h106.001c5.33301 0 9.83301 -2 13.5 -6s5.5 -8.66699 5.5 -14v-4c0 -5.33301 -1.83301 -10 -5.5 -14s-8.16699 -6 -13.5 -6h-106l-1 -437c0 -12.667 -6.33301 -19 -19 -19h-8c-13.333 -0 -20 6.33301 -20 19l1 558c-0.666992 49.333 12.166 87.5 38.499 114.5
s62.5 40.5 108.5 40.5c30 0 45 -6.66699 45 -20v-8c0 -4.66699 -1.83301 -9 -5.5 -13s-8.16699 -6 -13.5 -6h-25c-31.333 0 -56 -9.33301 -74 -28s-27 -45.667 -27 -81v-76zM46.001 500h24c6 0 10.833 -2 14.5 -6s5.5 -8.66699 5.5 -14v-4c0 -5.33301 -1.83301 -10 -5.5 -14
s-8.5 -6 -14.5 -6h-24c-6 0 -10.833 2 -14.5 6s-5.5 8.66699 -5.5 14v4c0 5.33301 1.83301 10 5.5 14s8.5 6 14.5 6zM427.001 501h17c8 0 13.333 -1.66699 16 -5s4 -8.33301 4 -15v-461c0 -6 -2 -10.833 -6 -14.5s-8.66699 -5.5 -14 -5.5h-17
c-5.33301 -0 -10 1.83301 -14 5.5s-6 8.5 -6 14.5v461c0 8.66699 1.83301 14.167 5.5 16.5s8.5 3.5 14.5 3.5zM434.001 732c24 0 39.667 -3.16699 47 -9.5s11 -19.5 11 -39.5v-13c0 -22.667 -3.66699 -37 -11 -43s-23 -9 -47 -9s-39.333 3 -46 9s-10 20.333 -10 43v13
c0 21.333 3.33301 34.833 10 40.5s22 8.5 46 8.5zM452.501 693.5c-3 2.33301 -9 3.5 -18 3.5s-14.833 -1 -17.5 -3s-4 -6.66699 -4 -14v-10c0 -7.33301 1.33301 -12 4 -14s8.66699 -3 18 -3s15.333 1 18 3s4 6.66699 4 14v10c0 6.66699 -1.5 11.167 -4.5 13.5z" />
    <glyph glyph-name="fl" unicode="fl" horiz-adv-x="630" 
d="M158 500h106.001c5.33301 0 9.83301 -2 13.5 -6s5.5 -8.66699 5.5 -14v-4c0 -5.33301 -1.83301 -10 -5.5 -14s-8.16699 -6 -13.5 -6h-106l-1 -437c0 -12.667 -6.33301 -19 -19 -19h-8c-13.333 -0 -20 6.33301 -20 19l1 558c-0.666992 49.333 12.166 87.5 38.499 114.5
s62.5 40.5 108.5 40.5c30 0 45 -6.66699 45 -20v-8c0 -4.66699 -1.83301 -9 -5.5 -13s-8.16699 -6 -13.5 -6h-25c-31.333 0 -56 -9.33301 -74 -28s-27 -45.667 -27 -81v-76zM46.001 500h24c6 0 10.833 -2 14.5 -6s5.5 -8.66699 5.5 -14v-4c0 -5.33301 -1.83301 -10 -5.5 -14
s-8.5 -6 -14.5 -6h-24c-6 0 -10.833 2 -14.5 6s-5.5 8.66699 -5.5 14v4c0 5.33301 1.83301 10 5.5 14s8.5 6 14.5 6zM426.001 730h7.99805c12.667 0 19 -6.33301 19 -19v-557c0 -71.333 30.333 -107 91 -107h16c5.33301 0 9.83301 -2 13.5 -6s5.5 -8.33301 5.5 -13v-8
c0 -13.333 -12 -20 -36 -20c-45.333 0 -79.666 13 -102.999 39s-34.666 64 -33.999 114v558c0 12.667 6.66699 19 20 19z" />
    <glyph glyph-name=".notdef" horiz-adv-x="300" 
 />
    <glyph glyph-name="CR" unicode="&#xd;" horiz-adv-x="300" 
 />
    <glyph glyph-name="space" unicode=" " horiz-adv-x="500" 
 />
    <glyph glyph-name="exclam" unicode="!" horiz-adv-x="214" 
d="M102 700h10c5.33301 0 10 -1.83301 14 -5.5s6 -8.16699 6 -13.5v-479c0 -5.33301 -2 -9.83301 -6 -13.5s-8.66699 -5.5 -14 -5.5h-10c-12.667 0 -19 6.33301 -19 19v479c0 12.667 6.33301 19 19 19zM106 111c24 0 39.667 -3.16699 47 -9.5s11 -19.5 11 -39.5v-13
c0 -22.667 -3.66699 -37 -11 -43s-23 -9 -47 -9s-39.333 3 -46 9s-10 20.333 -10 43v13c0 21.333 3.33301 34.833 10 40.5s22 8.5 46 8.5zM124.5 72.5c-3 2.33301 -9 3.5 -18 3.5s-14.833 -1 -17.5 -3s-4 -6.66699 -4 -14v-10c0 -7.33301 1.33301 -12 4 -14
s8.66699 -3 18 -3s15.333 1 18 3s4 6.66699 4 14v10c0 6.66699 -1.5 11.167 -4.5 13.5z" />
    <glyph glyph-name="quotedbl" unicode="&#x22;" horiz-adv-x="193" 
d="M132 730h11c12.667 0 19 -6.33301 19 -19v-140c0 -12.667 -6.33301 -19 -19 -19h-11c-12.667 0 -19 6.33301 -19 19v140c0 12.667 6.33301 19 19 19zM54 730h10c13.333 0 20 -6.33301 20 -19v-140c0 -12.667 -6.66699 -19 -20 -19h-10c-12.667 0 -19 6.33301 -19 19v140
c0 12.667 6.33301 19 19 19z" />
    <glyph glyph-name="numbersign" unicode="#" horiz-adv-x="601" 
d="M116 501h128l71 186c4.66699 8.66699 10.667 13 18 13h11c7.33301 0 13 -2.66699 17 -8s4.66699 -11.333 2 -18l-66 -173h128l72 186c4.66699 8.66699 10.667 13 18 13h11c6.66699 0 12 -2.66699 16 -8s4.66699 -11.333 2 -18l-66 -173h78c12.667 0 19 -6.66699 19 -20
v-9c0 -13.333 -6.33301 -20 -19 -20h-97l-70 -184h103c5.33301 0 9.83301 -2 13.5 -6s5.5 -8.66699 5.5 -14v-9c0 -5.33301 -1.83301 -10 -5.5 -14s-8.16699 -6 -13.5 -6h-122l-78 -206c-4 -8.66699 -10.667 -13 -20 -13h-11c-6.66699 0 -11.334 2.66699 -14.001 8
s-3 11.333 -1 18l73 193h-130l-78 -206c-4 -8.66699 -10.333 -13 -19 -13h-10c-7.33301 0 -12.666 2.66699 -15.999 8s-4 11.333 -2 18l74 193h-87c-5.33301 0 -9.83301 2 -13.5 6s-5.5 8.66699 -5.5 14v9c0 5.33301 1.83301 10 5.5 14s8.16699 6 13.5 6h105l70 184h-110
c-5.33301 0 -9.83301 2 -13.5 6s-5.5 8.66699 -5.5 14v9c0 5.33301 1.83301 10 5.5 14s8.16699 6 13.5 6zM337 268l70 184h-129l-70 -184h129z" />
    <glyph glyph-name="dollar" unicode="$" horiz-adv-x="561" 
d="M261 730l12.002 0.00195312c12.667 0 19 -6.33301 19 -19v-12c49.333 -4.66699 90.5 -23.167 123.5 -55.5s50.833 -75.833 53.5 -130.5c0 -5.33301 -1.83301 -10 -5.5 -14s-8.16699 -6 -13.5 -6h-9c-12.667 0 -19.334 7.66699 -20.001 23
c-2.66699 39.333 -15.667 70.333 -39 93s-53.333 36 -90 40v-277c4.66699 -2.66699 11.667 -6 21 -10c52 -24.667 91.667 -51.5 119 -80.5s41 -65 41 -108s-15.5 -80.833 -46.5 -113.5s-75.833 -52.334 -134.5 -59.001v-103c0 -5.33301 -1.83301 -10 -5.5 -14
s-8.16699 -6 -13.5 -6h-12c-5.33301 0 -9.83301 2 -13.5 6s-5.5 8.66699 -5.5 14v101c-53.333 2 -100 18.833 -140 50.5s-61 80.5 -63 146.5c0 5.33301 1.83301 10.166 5.5 14.499s8.16699 6.5 13.5 6.5h9c13.333 0 20 -5.33301 20 -16c0 -28 5 -52.5 15 -73.5
s23.333 -36.833 40 -47.5c31.333 -20.667 64.666 -31.667 99.999 -33v292c-62 31.333 -106.667 61.166 -134 89.499s-41 64 -41 107s15.333 79.833 46 110.5s73.667 48.334 129 53.001v12c0 12.667 6.33301 19 19 19zM292.002 314.002l-0.000976562 -265
c44 5.33301 77 19 99 41s33 49.333 33 82c0 36 -14 65.333 -42 88c-21.333 16.667 -41.666 29.667 -60.999 39s-29 14.333 -29 15zM150.501 611.002c-21 -21.333 -31.5 -46.499 -31.5 -75.499s10.5 -54.333 31.5 -76s51.5 -42.834 91.5 -63.501v253
c-40 -4 -70.5 -16.667 -91.5 -38z" />
    <glyph glyph-name="percent" unicode="%" horiz-adv-x="608" 
d="M371 732h12.002c7.33301 0 12.666 -2.16699 15.999 -6.5s4.33301 -9.83301 3 -16.5l-131 -713c-2 -10.667 -8.33301 -16 -19 -16h-10c-6.66699 0 -11.834 2.16699 -15.501 6.5s-5.16699 9.83301 -4.5 16.5l129 713c2 10.667 8.66699 16 20 16zM355.002 208
c0 68.667 33.833 103 101.5 103s101.5 -34.333 101.5 -103v-105c0 -68.667 -33.833 -103 -101.5 -103s-101.5 34.333 -101.5 103v105zM510.002 214c0 32.667 -17.833 49 -53.5 49s-53.5 -16.333 -53.5 -49v-117c0 -32.667 17.833 -49 53.5 -49s53.5 16.333 53.5 49v117z
M50.002 597c0 68.667 33.833 103 101.5 103s101.5 -34.333 101.5 -103v-105c0 -68.667 -33.833 -103 -101.5 -103s-101.5 34.333 -101.5 103v105zM205.002 603c0 32.667 -17.833 49 -53.5 49s-53.5 -16.333 -53.5 -49v-117c0 -32.667 17.833 -49 53.5 -49
s53.5 16.333 53.5 49v117z" />
    <glyph glyph-name="ampersand" unicode="&#x26;" horiz-adv-x="561" 
d="M128.5 657.5c26.333 28.333 62.999 42.502 109.999 42.502s84.5 -13.833 112.5 -41.5s42 -61.5 42 -101.5c0 -66.667 -43.667 -127.667 -131 -183h-6l-20 30l-1 4l1 2c32 19.333 55.333 36.333 70 51c26.667 27.333 40 57 40 89s-9.33301 57.167 -28 75.5
s-43.667 27.5 -75 27.5s-56.5 -8.66699 -75.5 -26s-28.5 -42.333 -28.5 -75s26 -85 78 -157l271 -380c6.66699 -10 5 -15 -5 -15l-47 1c-5.33301 0 -9.66602 2.83301 -12.999 8.5l-10.5 17.5c-3.66699 6 -21 30.667 -52 74l-104 144.5l-81.5 114.5
c-57.333 83.333 -86 146.666 -86 189.999s13.167 79.166 39.5 107.499zM96.999 216.002v-47.999c0 -83.333 49.333 -125 148 -125c36 0 68.667 5.66699 98 17c5.33301 2 9.33301 1.33301 12 -2l22 -27c3.33301 -4 3 -6.66699 -1 -8
c-38.667 -17.333 -82.334 -26 -131.001 -26c-130 0 -195 57.333 -195 172v39c0 17.333 0.5 28.666 1.5 33.999s2 11.666 3 18.999s2.33301 13 4 17s3.5 8.66699 5.5 14c3.33301 7.33301 10.333 16.333 21 27c8.66699 7.33301 29.334 20.333 62.001 39
c5.33301 2.66699 9 2.66699 11 0l19 -28c2 -1.33301 2 -2.66602 0 -3.99902c-38 -19.333 -61 -37.333 -69 -54c-7.33301 -15.333 -11 -34 -11 -56zM331.999 369.003h163c8 0 12 -6.66699 12 -20v-9c0 -12.667 -4 -19 -12 -19h-163c-8 0 -12 6.33301 -12 19v9
c0 13.333 4 20 12 20z" />
    <glyph glyph-name="quotesingle" unicode="'" horiz-adv-x="140" 
d="M64 730h10c12.667 0 19 -6.33301 19 -19v-140c0 -12.667 -6.33301 -19 -19 -19h-10c-5.33301 0 -10 1.83301 -14 5.5s-6 8.16699 -6 13.5v140c0 5.33301 2 9.83301 6 13.5s8.66699 5.5 14 5.5z" />
    <glyph glyph-name="parenleft" unicode="(" horiz-adv-x="327" 
d="M293 690c5.33301 0 9.83398 -2.00098 13.501 -6.00098s5.5 -8.66699 5.5 -14v-9c0 -5.33301 -1.83301 -10 -5.5 -14s-8.16699 -6 -13.5 -6c-48.667 0 -92.334 -17 -131.001 -51c-21.333 -19.333 -38.5 -50.166 -51.5 -92.499s-19.5 -93.833 -19.5 -154.5
c0 -197.333 68 -296 204 -296c12.667 0 19 -6.33301 19 -19v-9c0 -13.333 -6.33301 -20 -19 -20c-168 0 -252 115.167 -252 345.5s83.333 345.5 250 345.5z" />
    <glyph glyph-name="parenright" unicode=")" horiz-adv-x="362" 
d="M64 690c166.667 0 250 -115.167 250 -345.5s-84 -345.5 -252 -345.5c-12.667 0 -19 6.66699 -19 20v9c0 12.667 6.33301 19 19 19c136 0 204 98.667 204 296c0 135.333 -32 224.333 -96 267c-30.667 20.667 -66 31 -106 31c-5.33301 0 -9.83301 2 -13.5 6
s-5.5 8.66699 -5.5 14v9c0 5.33301 1.83301 10 5.5 14s8.16699 6 13.5 6z" />
    <glyph glyph-name="asterisk" unicode="*" horiz-adv-x="354" 
d="M107 510c-6 -4.66699 -11.332 -7.00098 -15.999 -7.00098s-10.667 5 -18 15v-1c-8 8 -8 17.333 0 28l38 36h-52c-5.33301 0 -9.83301 2 -13.5 6s-5.5 8.66699 -5.5 14v9c0 12.667 6.33301 19 19 19h49l-36 36c-8 8 -8 17.333 0 28l7 6c8 8 17.333 8 28 0l37 -39v51
c0 5.33301 2 9.83301 6 13.5s8.66699 5.5 14 5.5h9c5.33301 0 10 -1.83301 14 -5.5s6 -8.16699 6 -13.5v-51l37 37c5.33301 4.66699 10.666 7 15.999 7c4 0 10 -4.33301 18 -13c8 -10.667 8 -20 0 -28l-35 -34h49c12.667 0 19 -6.33301 19 -19v-9
c0 -5.33301 -1.83301 -10 -5.5 -14s-8.16699 -6 -13.5 -6h-56l39 -41c4.66699 -5.33301 7 -10.666 7 -15.999c0 -4 -4.33301 -10 -13 -18c-10.667 -8 -20 -8 -28 0l-34 35v-46c0 -5.33301 -2 -9.83301 -6 -13.5s-8.66699 -5.5 -14 -5.5h-9c-5.33301 0 -10 1.83301 -14 5.5
s-6 8.16699 -6 13.5v52zM183.001 598.999v8l-8 9c-0.666992 0 -1 0.333008 -1 1h-11l-8 -8v-9l9 -10h9z" />
    <glyph glyph-name="plus" unicode="+" horiz-adv-x="479" 
d="M45 366l171 -0.000976562v172c0 12.667 6.33301 19 19 19h8c12.667 -1.33301 19.667 -7.66602 21 -18.999v-172h171c12.667 0 19 -6.33301 19 -19v-9c0 -5.33301 -1.83301 -10 -5.5 -14s-8.16699 -6 -13.5 -6h-171v-171c-1.33301 -13.333 -8 -20 -20 -20h-10
c-12 1.33301 -18 8 -18 20v171h-171c-6 0 -10.833 2 -14.5 6s-5.5 8.66699 -5.5 14v9c0 12.667 6.66699 19 20 19z" />
    <glyph glyph-name="comma" unicode="," horiz-adv-x="109" 
d="M78 139h13c12.667 0 18 -6.33301 16 -19l-57 -243c-2 -8.66699 -8.33301 -13 -19 -13h-12c-13.333 0 -19 6.33301 -17 19l57 243c2.66699 8.66699 9 13 19 13z" />
    <glyph glyph-name="hyphen" unicode="-" horiz-adv-x="351" 
d="M51 346h249c13.333 0 20 -6.33301 20 -19v-10c0 -12.667 -6.66699 -19 -20 -19h-249c-13.333 0 -20 6.33301 -20 19v10c0 12.667 6.66699 19 20 19z" />
    <glyph glyph-name="period" unicode="." horiz-adv-x="200" 
d="M97 111c24 0 39.667 -3.16699 47 -9.5s11 -19.5 11 -39.5v-13c0 -22.667 -3.66699 -37 -11 -43s-23 -9 -47 -9s-39.333 3 -46 9s-10 20.333 -10 43v13c0 21.333 3.33301 34.833 10 40.5s22 8.5 46 8.5zM115.5 72.5c-3 2.33301 -9 3.5 -18 3.5s-14.833 -1 -17.5 -3
s-4 -6.66699 -4 -14v-10c0 -7.33301 1.33301 -12 4 -14s8.66699 -3 18 -3s15.333 1 18 3s4 6.66699 4 14v10c0 6.66699 -1.5 11.167 -4.5 13.5z" />
    <glyph glyph-name="slash" unicode="/" horiz-adv-x="303" 
d="M283 699c11.333 0 16.999 -5.66699 16.999 -17c0 -2.66699 -0.666992 -5.66699 -2 -9l-261 -660c-5.33301 -8.66699 -10.333 -13 -15 -13h-12c-7.33301 0 -12.666 2.16699 -15.999 6.5s-5 8 -5 11s0.666992 5.83301 2 8.5l260 660c4.66699 8.66699 11 13 19 13h13z" />
    <glyph glyph-name="zero" unicode="0" horiz-adv-x="522" 
d="M245 700h12c54.667 0 100.667 -15.333 138 -46s56 -78.667 56 -144v-309c0 -66.667 -18 -116.834 -54 -150.501s-83.667 -51.167 -143 -52.5h-6c-60 1.33301 -108 18.833 -144 52.5s-54 83.834 -54 150.501v309c0 44 9.66699 80.667 29 110c34.667 53.333 90 80 166 80z
M259 652h-16c-39.333 0 -73 -10.833 -101 -32.5s-42 -59.167 -42 -112.5v-305c0 -104 48.333 -156 145 -156h12c96.667 0 145 52 145 156v305c0 53.333 -14 90.833 -42 112.5s-61.667 32.5 -101 32.5z" />
    <glyph glyph-name="one" unicode="1" horiz-adv-x="383" 
d="M274 657l0.000976562 -635.999c0 -10.667 -0.333008 -16.834 -1 -18.501s-4 -2.5 -10 -2.5h-29c-4.66699 0 -7.5 1.16699 -8.5 3.5s-1.5 5.5 -1.5 9.5v628l-172 -136c-8.66699 -6.66699 -16 -6 -22 2l-9 11c-2.66699 3.33301 -4 7 -4 11s3 8.33301 9 13l172 140
c15.333 12 30.666 18 45.999 18h2c18.667 -0.666992 28 -15 28 -43z" />
    <glyph glyph-name="two" unicode="2" horiz-adv-x="500" 
d="M245 700c58 0 102.669 -15.1689 134.002 -45.502s47 -70.5 47 -120.5c0 -28 -8.66699 -60.167 -26 -96.5s-34.333 -66.166 -51 -89.499c-38.667 -55.333 -90.667 -120.666 -156 -195.999l-30 -36c-16.667 -20 -29.5 -36 -38.5 -48s-14.5 -19 -16.5 -21
c1.33301 0.666992 3.33301 1 6 1h307c13.333 0 20 -6.33301 20 -19v-9c0 -13.333 -6.66699 -20 -20 -20h-308c-10.667 0 -19.167 0.666992 -25.5 2s-12.666 5.83301 -18.999 13.5s-9.5 18.334 -9.5 32.001s14.333 38.5 43 74.5l42 48l20 24c17.333 20 33 39 47 57l27 32
l24.5 31.5l25.5 32.5l22.5 30c10.333 14 17.666 24.833 21.999 32.5l17 30c7 12.333 12.167 22.833 15.5 31.5c8 20.667 12 40 12 58c0 42 -13 73 -39 93s-57 30 -93 30c-64 0 -108.333 -30 -133 -90c-4 -8 -10 -12 -18 -12h-9c-13.333 0 -20 6 -20 18
c0 3.33301 0.333008 5.66602 1 6.99902c13.333 39.333 36.166 70 68.499 92s69.166 33 110.499 33z" />
    <glyph glyph-name="three" unicode="3" horiz-adv-x="535" 
d="M54 154c-1.33301 6 -2 10.834 -2 14.501s3.33301 5.5 10 5.5l30 2h4c2 0 3.66699 -3.66699 5 -11c20.667 -77.333 71.667 -116 153 -116c44.667 0 81.334 11.667 110.001 35s43 57.833 43 103.5s-14.5 82.667 -43.5 111s-72.5 42.5 -130.5 42.5h-59
c-6.66699 0 -10.5 0.666992 -11.5 2s-1.5 4.33301 -1.5 9v14v8.5c0 4.33301 0.333008 7.5 1 9.5c0.666992 3.33301 5 5 13 5h56c52.667 0 93.167 11.167 121.5 33.5s42.5 52.5 42.5 90.5s-12.833 70.667 -38.5 98s-61.167 41 -106.5 41c-29.333 0 -55.833 -7 -79.5 -21
s-38.167 -35.667 -43.5 -65c-0.666992 -4.66699 -3.33398 -7 -8.00098 -7h-33c-6 0 -8 5.66699 -6 17c6 35.333 24.833 64.833 56.5 88.5s69.5 35.5 113.5 35.5c62.667 0 110.5 -17.833 143.5 -53.5s49.5 -79.5 49.5 -131.5c0 -32.667 -8.5 -62.5 -25.5 -89.5
s-42.833 -47.167 -77.5 -60.5c40.667 -13.333 70.334 -35.333 89.001 -66s28 -64.334 28 -101.001s-6.33301 -68 -19 -94s-29.334 -46.333 -50.001 -61c-39.333 -28.667 -85.5 -43 -138.5 -43s-96.167 13.667 -129.5 41s-55.333 65 -66 113z" />
    <glyph glyph-name="four" unicode="4" horiz-adv-x="555" 
d="M343 700c26 0 38.999 -14.333 38.999 -43v-385h114c12 0 18 -6.33301 18 -19v-9c0 -13.333 -6 -20 -18 -20h-114v-204c0 -13.333 -6.66699 -20 -20 -20h-9c-12.667 0 -19 6.66699 -19 20v204h-258c-22 0 -35.667 7.33301 -41 22c-1.33301 4 -2 9 -2 15s3 13 9 21l260 390
c12.667 18.667 26.334 28 41.001 28zM333.999 272v363l-114 -174c-54 -83.333 -96 -146.333 -126 -189h240z" />
    <glyph glyph-name="five" unicode="5" horiz-adv-x="568" 
d="M68 131c0 12 5.66992 18 17.0029 18h13c8 0 14 -4 18 -12c13.333 -32.667 33.666 -56.167 60.999 -70.5s56.333 -21.5 87 -21.5c48.667 0 88.5 14.167 119.5 42.5s46.5 70.5 46.5 126.5v13c0 62 -5.33301 103.667 -16 125c-6.66699 12.667 -15 25.667 -25 39
c-20 26.667 -55 40 -105 40c-17.333 0 -33.333 -2.16699 -48 -6.5s-24.334 -7.83301 -29.001 -10.5s-11.167 -6.83398 -19.5 -12.501s-15.833 -11.167 -22.5 -16.5l-15 -12c-9.33301 -6.66699 -18.333 -10 -27 -10c-24 0 -36 14.667 -36 44v254c0 24 10.333 37 31 39h19h303
c5.33301 0 10 -1.83301 14 -5.5s6 -8.16699 6 -13.5v-10c0 -5.33301 -2 -9.83301 -6 -13.5s-8.66699 -5.5 -14 -5.5h-304v-235c9.33301 11.333 28.5 24.666 57.5 39.999s58 23 87 23s54.167 -3.5 75.5 -10.5s38.666 -15.333 51.999 -25s24.833 -23 34.5 -40
s16.667 -31.833 21 -44.5s7.83301 -29.167 10.5 -49.5s4 -35.166 4 -44.499v-51c0 -74 -20.333 -129 -61 -165s-91.667 -54 -153 -54c-40.667 0 -79.167 10.667 -115.5 32s-62.833 53 -79.5 95c-0.666992 2.66699 -1 5.33398 -1 8.00098z" />
    <glyph glyph-name="six" unicode="6" horiz-adv-x="584" 
d="M142.5 648c37 34.667 82.8301 51.9971 137.497 51.9971s98.834 -11.167 132.501 -33.5s55.5 -54.166 65.5 -95.499c0.666992 -6 -0.666016 -11.167 -3.99902 -15.5s-8 -6.83301 -14 -7.5l-11 -1c-10 0 -16.333 5 -19 15c-7.33301 28.667 -23.666 50.834 -48.999 66.501
s-58.5 23.5 -99.5 23.5s-75.667 -13.167 -104 -39.5s-42.5 -64.5 -42.5 -114.5v-120c19.333 18 43.166 32.667 71.499 44s56.5 17 84.5 17c56 0 102 -16 138 -48s54 -75.333 54 -130v-79c0 -52.667 -18.333 -96.667 -55 -132s-83.667 -53 -141 -53h-8
c-51.333 0 -96.166 17.5 -134.499 52.5s-57.5 80.833 -57.5 137.5v312c0 64.667 18.5 114.334 55.5 149.001zM290.997 390.997c-55.333 0 -107.333 -23.666 -156 -70.999v-130c0 -44.667 15 -79.834 45 -105.501s62.667 -38.5 98 -38.5h9c41.333 0 76.333 12.833 105 38.5
s43 58.167 43 97.5v78c0 40 -14 71.833 -42 95.5s-62 35.5 -102 35.5z" />
    <glyph glyph-name="seven" unicode="7" horiz-adv-x="454" 
d="M56 700h335.001c24 0 36 -10.667 36 -32c-0.666992 -12 -4.33398 -24.333 -11.001 -37l-293 -620c-3.33301 -7.33301 -9.33301 -11 -18 -11h-12c-13.333 0 -20 6 -20 18c0 2.66699 0.666992 6 2 10l297 623h-316c-5.33301 0 -10 1.83301 -14 5.5s-6 8.16699 -6 13.5v11
c0 5.33301 2 9.83301 6 13.5s8.66699 5.5 14 5.5z" />
    <glyph glyph-name="eight" unicode="8" horiz-adv-x="563" 
d="M462 518c0 -33.333 -7.16699 -64.3291 -21.5 -92.9961s-37.5 -50 -69.5 -64c36.667 -11.333 64.167 -33.333 82.5 -66s27.5 -72.334 27.5 -119.001s-15.833 -87.167 -47.5 -121.5s-86.5 -52.5 -164.5 -54.5c-139.333 3.33301 -209 64 -209 182
c0 43.333 8.66699 81.166 26 113.499s44 54.166 80 65.499c-58 25.333 -87 77.666 -87 156.999c0 60 17 105 51 135s80.333 45.667 139 47c59.333 -1.33301 106.333 -17 141 -47s52 -75 52 -135zM269 333.004c-60.667 0 -102.5 -13.8311 -125.5 -41.498
s-34.5 -64.334 -34.5 -110.001s14.5 -79.334 43.5 -101.001s68 -32.5 117 -32.5s88.333 10.833 118 32.5s44.5 55.167 44.5 100.5c0 101.333 -54.333 152 -163 152zM165.5 616.506c-25.667 -22.333 -38.501 -54.333 -38.501 -96s11.333 -75.334 34 -101.001
s58.834 -38.5 108.501 -38.5s86.167 12.333 109.5 37s35 58.167 35 100.5s-13.167 74.833 -39.5 97.5s-61.5 34.667 -105.5 36c-43.333 -1.33301 -77.833 -13.166 -103.5 -35.499z" />
    <glyph glyph-name="nine" unicode="9" horiz-adv-x="542" 
d="M264 700h7.00098c52 0 97.333 -17.333 136 -52s58 -80.667 58 -138v-322c0 -63.333 -18.333 -110.5 -55 -141.5s-84.834 -46.5 -144.501 -46.5s-107.334 14.667 -143.001 44s-53.5 71 -53.5 125v12c0 6 2 10.833 6 14.5s8.66699 5.5 14 5.5h9
c5.33301 0 10 -1.83301 14 -5.5s6 -8.5 6 -14.5v-10c0 -39.333 13.5 -69.5 40.5 -90.5s63 -31.5 108 -31.5s81.333 11.167 109 33.5s41.5 57.833 41.5 106.5v126c-39.333 -38 -88 -57 -146 -57s-106.167 15.667 -144.5 47s-57.5 74 -57.5 128v82
c0 53.333 18.333 97.5 55 132.5s83.334 52.5 140.001 52.5zM272.001 652h-8c-41.333 0 -76.166 -12.833 -104.499 -38.5s-42.5 -58.5 -42.5 -98.5v-81c0 -39.333 15 -70.5 45 -93.5s67.167 -34.5 111.5 -34.5s92.166 22.667 143.499 68v133
c0 45.333 -15.167 80.833 -45.5 106.5s-63.5 38.5 -99.5 38.5z" />
    <glyph glyph-name="colon" unicode=":" horiz-adv-x="199" 
d="M96 441c24 0 39.667 -3.16699 47 -9.5s11 -19.5 11 -39.5v-13c0 -22.667 -3.66699 -37 -11 -43s-23 -9 -47 -9s-39.333 3 -46 9s-10 20.333 -10 43v13c0 21.333 3.33301 34.833 10 40.5s22 8.5 46 8.5zM96 111c24 0 39.667 -3.16699 47 -9.5s11 -19.5 11 -39.5v-13
c0 -22.667 -3.66699 -37 -11 -43s-23 -9 -47 -9s-39.333 3 -46 9s-10 20.333 -10 43v13c0 21.333 3.33301 34.833 10 40.5s22 8.5 46 8.5zM114.5 72.5c-3 2.33301 -9 3.5 -18 3.5s-14.833 -1 -17.5 -3s-4 -6.66699 -4 -14v-10c0 -7.33301 1.33301 -12 4 -14
s8.66699 -3 18 -3s15.333 1 18 3s4 6.66699 4 14v10c0 6.66699 -1.5 11.167 -4.5 13.5zM114.5 402.5c-3 2.33301 -9 3.5 -18 3.5s-14.833 -1 -17.5 -3s-4 -6.66699 -4 -14v-10c0 -7.33301 1.33301 -12 4 -14s8.66699 -3 18 -3s15.333 1 18 3s4 6.66699 4 14v10
c0 6.66699 -1.5 11.167 -4.5 13.5z" />
    <glyph glyph-name="semicolon" unicode=";" horiz-adv-x="171" 
d="M78 139h13c12.667 0 18 -6.33301 16 -19l-57 -243c-2 -8.66699 -8.33301 -13 -19 -13h-12c-13.333 0 -19 6.33301 -17 19l57 243c2.66699 8.66699 9 13 19 13zM101 381c24 0 39.667 -3.16699 47 -9.5s11 -19.5 11 -39.5v-13c0 -22.667 -3.66699 -37 -11 -43
s-23 -9 -47 -9s-39.333 3 -46 9s-10 20.333 -10 43v13c0 21.333 3.33301 34.833 10 40.5s22 8.5 46 8.5zM119.5 342.5c-3 2.33301 -9 3.5 -18 3.5s-14.833 -1 -17.5 -3s-4 -6.66699 -4 -14v-10c0 -7.33301 1.33301 -12 4 -14s8.66699 -3 18 -3s15.333 1 18 3s4 6.66699 4 14
v10c0 6.66699 -1.5 11.167 -4.5 13.5z" />
    <glyph glyph-name="less" unicode="&#x3c;" horiz-adv-x="572" 
d="M480 504c3.33301 2 7 2.99805 11 2.99805s7.66699 -1 11 -3c9.33301 -2.66699 14 -10.167 14 -22.5s-4.66699 -20.166 -14 -23.499l-395 -138l397 -132c9.33301 -3.33301 14 -10.666 14 -21.999c0 -3.33301 -0.666992 -7 -2 -11c-4.66699 -10.667 -10.5 -16 -17.5 -16
s-13.167 1 -18.5 3l-410 141c-13.333 5.33301 -20 17.5 -20 36.5s7 31.167 21 36.5z" />
    <glyph glyph-name="equal" unicode="=" horiz-adv-x="579" 
d="M95 446h390c12.667 0 19 -6.33301 19 -19v-9c0 -13.333 -6.33301 -20 -19 -20h-390c-13.333 0 -20 6.66699 -20 20v9c0 12.667 6.66699 19 20 19zM95 322h390c12.667 0 19 -6.33301 19 -19v-9c0 -5.33301 -1.83301 -10 -5.5 -14s-8.16699 -6 -13.5 -6h-390
c-6 0 -10.833 2 -14.5 6s-5.5 8.66699 -5.5 14v9c0 12.667 6.66699 19 20 19z" />
    <glyph glyph-name="greater" unicode="&#x3e;" horiz-adv-x="568" 
d="M497 356c14 -5.33301 21 -17.4971 21 -36.4971s-6.66699 -31.167 -20 -36.5l-410 -141c-5.33301 -2 -11.5 -3 -18.5 -3s-12 3.66699 -15 11s-4.5 12.666 -4.5 15.999c0 11.333 4.66699 18.666 14 21.999l397 132l-395 138c-9.33301 3.33301 -14 11.166 -14 23.499
s4.66699 19.833 14 22.5c3.33301 2 7 3 11 3s7.66699 -1 11 -3z" />
    <glyph glyph-name="question" unicode="?" horiz-adv-x="442" 
d="M207 686c60 0 104.67 -17.498 134.003 -52.498s44 -75.5 44 -121.5s-15 -85 -45 -117s-70 -51.333 -120 -58c-0.666992 0 -1.33398 0.333008 -2.00098 1v-143c0 -12.667 -6.33301 -19 -19 -19h-9c-13.333 0 -20 6.33301 -20 19v148c0 15.333 3.33301 25.666 10 30.999
s18.667 8.66602 36 9.99902c34.667 3.33301 63.5 16.333 86.5 39s34.5 52 34.5 88s-11.167 66.167 -33.5 90.5s-54.5 36.5 -96.5 36.5c-60 0 -100.333 -24 -121 -72c-4 -8 -10 -12 -18 -12h-9c-13.333 0 -20 5.33301 -20 16c0 2.66699 0.333008 5.66699 1 9
c13.333 36.667 35.166 63.667 65.499 81s64.166 26 101.499 26zM191.003 111.002c24 0 39.667 -3.16699 47 -9.5s11 -19.5 11 -39.5v-13c0 -22.667 -3.66699 -37 -11 -43s-23 -9 -47 -9s-39.333 3 -46 9s-10 20.333 -10 43v13c0 21.333 3.33301 34.833 10 40.5
s22 8.5 46 8.5zM209.503 72.502c-3 2.33301 -9 3.5 -18 3.5s-14.833 -1 -17.5 -3s-4 -6.66699 -4 -14v-10c0 -7.33301 1.33301 -12 4 -14s8.66699 -3 18 -3s15.333 1 18 3s4 6.66699 4 14v10c0 6.66699 -1.5 11.167 -4.5 13.5z" />
    <glyph glyph-name="at" unicode="@" horiz-adv-x="481" 
d="M82 479.5c41.333 33.667 92.499 50.5 153.499 50.5s112.5 -16 154.5 -48s63 -79 63 -141v-168c0 -24.667 -7.66699 -45.167 -23 -61.5s-33.5 -24.5 -54.5 -24.5s-39.833 7.33301 -56.5 22c-23.333 -19.333 -51.833 -29 -85.5 -29s-60.834 9.66699 -81.501 29
s-31 47.333 -31 84v130c0 36.667 10.833 64.667 32.5 84s50 29 85 29s63.333 -9.83301 85 -29.5s32.5 -47.5 32.5 -83.5v-160c0 -6.66699 2.33301 -12.5 7 -17.5s10.5 -7.5 17.5 -7.5s13 3.16699 18 9.5s7.5 12.833 7.5 19.5v153c0 56 -16 97 -48 123s-71.833 39 -119.5 39
s-88.167 -12.5 -121.5 -37.5s-50 -59.167 -50 -102.5v-172c0 -42 17 -76 51 -102c34.667 -27.333 73.334 -41 116.001 -41s84.334 10 125.001 30c9.33301 -22.667 14.666 -38 15.999 -46c-42.667 -21.333 -90 -32 -142 -32c-61.333 0 -112.166 17.5 -152.499 52.5
s-60.5 80.833 -60.5 137.5v174c0 57.333 20.667 102.833 62 136.5zM306.999 323c0 42.667 -22.833 64 -68.5 64s-68.5 -21.333 -68.5 -64v-130c0 -43.333 23 -65 69 -65c30 0 52.667 11.667 68 35v160z" />
    <glyph glyph-name="A" unicode="A" horiz-adv-x="588" 
d="M246 674c6 18 18.832 27 38.499 27s32.834 -9.33301 39.501 -28l230 -646c0.666992 -2 1 -4.33301 1 -7c0 -13.333 -6.66699 -20 -20 -20h-12c-8.66699 -0 -15 4.33301 -19 13l-218 621l-219 -621c-4 -8.66699 -10.333 -13 -19 -13h-12c-13.333 0 -20 6.66699 -20 20
c0 2.66699 0.333008 5 1 7zM198.999 308h173c5.33301 0 10 -1.83301 14 -5.5s6 -8.5 6 -14.5v-9c0 -6 -2 -10.833 -6 -14.5s-8.66699 -5.5 -14 -5.5h-173c-12.667 0 -19 6.66699 -19 20v9c0 13.333 6.33301 20 19 20z" />
    <glyph glyph-name="B" unicode="B" horiz-adv-x="508" 
d="M94 700l107.999 -0.000976562c80 0 138.333 -11 175 -33c51.333 -31.333 77 -81.333 77 -150c-1.33301 -32 -10.333 -62.333 -27 -91s-43.667 -49.667 -81 -63c33.333 -7.33301 60.833 -21.166 82.5 -41.499s36.167 -40.833 43.5 -61.5s11 -45.334 11 -74.001
s-6.83301 -57.667 -20.5 -87s-33.5 -51.666 -59.5 -66.999c-38 -21.333 -92 -32 -162 -32h-145c-17.333 0 -29.166 3.16699 -35.499 9.5s-9.5 18.5 -9.5 36.5v610c0 17.333 2.83301 29 8.5 35s17.167 9 34.5 9zM200.999 649.999l-100.003 0.000976562v-601h156
c117.333 0 176 47.667 176 143c0 39.333 -16.167 73.5 -48.5 102.5s-77.833 43.5 -136.5 43.5h-67c-7.33301 0 -12.666 0.166992 -15.999 0.5s-7.16602 2.33301 -11.499 6s-6.5 10 -6.5 19s3.5 14.833 10.5 17.5s16.833 4 29.5 4h63c55.333 0 94.833 13.667 118.5 41
s35.5 58 35.5 92c0 35.333 -11.333 64.666 -34 87.999c-27.333 29.333 -83.666 44 -168.999 44z" />
    <glyph glyph-name="C" unicode="C" horiz-adv-x="564" 
d="M228.5 701.5c18.333 3 36.332 4.50684 53.999 4.50684s35.5 -1.5 53.5 -4.5s37.833 -9.33301 59.5 -19s41.167 -22 58.5 -37s32.666 -35.667 45.999 -62s21.666 -56.833 24.999 -91.5c0 -14.667 -6.66699 -22 -20 -22h-9c-12 0 -18.667 6 -20 18
c-3.33301 28 -10.333 52.667 -21 74s-23 37.666 -37 48.999s-30 20.666 -48 27.999c-26.667 11.333 -51.5 17 -74.5 17s-42 -1.33301 -57 -4s-31.833 -8.33398 -50.5 -17.001s-35 -20.167 -49 -34.5s-25.833 -34.5 -35.5 -60.5s-14.5 -56 -14.5 -90v-196
c0 -34 5.33301 -64 16 -90s23.5 -46.167 38.5 -60.5s32.5 -25.833 52.5 -34.5c32 -14 62 -21 90 -21s51.833 2.5 71.5 7.5s39.167 13.833 58.5 26.5c41.333 26 62 74.333 62 145c0 11.333 1.83301 18.666 5.5 21.999s8.5 5 14.5 5h8c13.333 0 20 -6.66699 20 -20
c0 -40.667 -6.5 -76.334 -19.5 -107.001s-28.167 -53.834 -45.5 -69.501s-37.666 -28.167 -60.999 -37.5c-36 -14 -67.5 -21 -94.5 -21s-50.333 1.66699 -70 5s-41.667 10.666 -66 21.999s-45.666 25.666 -63.999 42.999s-33.833 41.833 -46.5 73.5s-19 67.834 -19 108.501
v203c0 42 6.16699 79 18.5 111s27.333 56.5 45 73.5s38.334 31 62.001 42s44.667 18 63 21z" />
    <glyph glyph-name="D" unicode="D" horiz-adv-x="576" 
d="M81 700h161.999c98.667 0 164.334 -24 197.001 -72c16.667 -24 28 -50.5 34 -79.5s9 -65.5 9 -109.5v-192c0 -85.333 -17.833 -147.833 -53.5 -187.5s-95.834 -59.5 -180.501 -59.5h-167c-26.667 0 -40 13.667 -40 41v619c0 14.667 2.83301 25 8.5 31s15.834 9 30.501 9z
M242.999 651h-151v-602h157c63.333 0 110 15 140 45s45 79 45 147v201c0 73.333 -13.333 126.5 -40 159.5s-77 49.5 -151 49.5z" />
    <glyph glyph-name="E" unicode="E" horiz-adv-x="500" 
d="M102 700l349 0.000976562c5.33301 0 10 -2 14 -6s6 -8.66699 6 -14v-9c0 -6 -2 -10.833 -6 -14.5s-8.66699 -5.5 -14 -5.5h-339v-602h339c5.33301 0 10 -1.83301 14 -5.5s6 -8.5 6 -14.5v-9c0 -5.33301 -2 -10 -6 -14s-8.66699 -6 -14 -6h-350
c-16 0 -26.5 3.5 -31.5 10.5s-7.5 16.833 -7.5 29.5v621c0 13.333 3 23.166 9 29.499s16.333 9.5 31 9.5zM172 388.001h214c6 0 10.833 -2 14.5 -6s5.5 -8.66699 5.5 -14v-9c0 -13.333 -6.66699 -20 -20 -20h-214c-13.333 0 -20 6.66699 -20 20v9
c0 5.33301 1.83301 10 5.5 14s8.5 6 14.5 6z" />
    <glyph glyph-name="F" unicode="F" horiz-adv-x="484" 
d="M99 700h333c6 0 10.833 -2 14.5 -6s5.5 -8.66699 5.5 -14v-9c0 -13.333 -6.66699 -20 -20 -20h-321v-631c0 -5.33301 -1.83301 -10 -5.5 -14s-8.5 -6 -14.5 -6h-10c-6 0 -10.833 2 -14.5 6s-5.5 8.66699 -5.5 14v640c0 12.667 2.33301 22.5 7 29.5s15 10.5 31 10.5z
M151 388h225c5.33301 0 10 -2 14 -6s6 -8.66699 6 -14v-9c0 -6 -2 -10.833 -6 -14.5s-8.66699 -5.5 -14 -5.5h-225c-12.667 0 -19 6.66699 -19 20v9c0 5.33301 1.83301 10 5.5 14s8.16699 6 13.5 6z" />
    <glyph glyph-name="G" unicode="G" horiz-adv-x="581" 
d="M228.5 701.5c18.333 3 36.3291 4.50195 53.9961 4.50195s35.5 -1.5 53.5 -4.5s37.833 -9.33301 59.5 -19s41.167 -22 58.5 -37s32.666 -35.667 45.999 -62s21.666 -56.833 24.999 -91.5c0 -14.667 -6.66699 -22 -20 -22h-9c-12 0 -18.667 6 -20 18
c-3.33301 28 -10.333 52.667 -21 74s-23 37.666 -37 48.999s-30 20.666 -48 27.999c-26.667 11.333 -51.5 17 -74.5 17s-42 -1.33301 -57 -4s-31.833 -8.33398 -50.5 -17.001s-35 -20.167 -49 -34.5s-25.833 -34.5 -35.5 -60.5s-14.5 -56 -14.5 -90v-196c0 -34 5 -64 15 -90
s22 -46.167 36 -60.5s30.5 -25.833 49.5 -34.5s35.833 -14.334 50.5 -17.001s29.334 -4 44.001 -4s29.334 1.16699 44.001 3.5s31.334 7.66602 50.001 15.999s35 19.333 49 33s25.833 32.834 35.5 57.501s14.5 53.334 14.5 86.001v58h-165c-13.333 0 -20 6.66699 -20 20v9
c0 5.33301 1.83301 10 5.5 14s8.5 6 14.5 6h174c26.667 0 40 -14.333 40 -43v-65c0 -40.667 -6.16699 -76.5 -18.5 -107.5s-27.166 -54.833 -44.499 -71.5s-37.666 -30 -60.999 -40c-38 -16.667 -77.333 -25 -118 -25c-42.667 0 -79.167 7.33301 -109.5 22
s-54.333 30.667 -72 48s-32.5 41.833 -44.5 73.5s-18 67.834 -18 108.501v203c0 42 6.16699 79 18.5 111s27.333 56.5 45 73.5s38.334 31 62.001 42s44.667 18 63 21z" />
    <glyph glyph-name="H" unicode="H" horiz-adv-x="547" 
d="M451 700h9c6 0 10.833 -2 14.5 -6s5.5 -8.66699 5.5 -14v-660c0 -5.33301 -1.83301 -10 -5.5 -14s-8.5 -6 -14.5 -6h-9c-5.33301 0 -10 2 -14 6s-6 8.66699 -6 14v660c0 5.33301 2 10 6 14s8.66699 6 14 6zM66 700h9c6 0 10.833 -2 14.5 -6s5.5 -8.66699 5.5 -14v-660
c0 -5.33301 -1.83301 -10 -5.5 -14s-8.5 -6 -14.5 -6h-9c-5.33301 0 -10 2 -14 6s-6 8.66699 -6 14v660c0 5.33301 2 10 6 14s8.66699 6 14 6zM135 393h258c5.33301 0 10 -2 14 -6s6 -8.66699 6 -14v-10c0 -5.33301 -2 -10 -6 -14s-8.66699 -6 -14 -6h-258
c-5.33301 0 -10 2 -14 6s-6 8.66699 -6 14v10c0 5.33301 2 10 6 14s8.66699 6 14 6z" />
    <glyph glyph-name="I" unicode="I" horiz-adv-x="200" 
d="M94 700h9c5.33301 0 10 -2 14 -6s6 -8.66699 6 -14v-660c0 -5.33301 -2 -10 -6 -14s-8.66699 -6 -14 -6h-9c-6 0 -10.833 2 -14.5 6s-5.5 8.66699 -5.5 14v660c0 5.33301 1.83301 10 5.5 14s8.5 6 14.5 6z" />
    <glyph glyph-name="J" unicode="J" horiz-adv-x="487" 
d="M74 700h313.001c26.667 0 40 -12.333 40 -37v-445c0 -66.667 -17.167 -119.667 -51.5 -159s-81.833 -59 -142.5 -59c-44 -0 -83.833 9.83301 -119.5 29.5s-61.834 50.5 -78.501 92.5c-1.33301 2.66699 -2 5 -2 7c0 10 4.66699 16.667 14 20c8 2.66699 14.5 4 19.5 4
s9.16699 -4 12.5 -12c8 -20.667 19.5 -38 34.5 -52s31.167 -23.667 48.5 -29c27.333 -7.33301 51 -11 71 -11c96 0 144 56 144 168v433h-303c-12.667 0 -19 6.66699 -19 20v10c0 5.33301 1.83301 10 5.5 14s8.16699 6 13.5 6z" />
    <glyph glyph-name="K" unicode="K" horiz-adv-x="529" 
d="M464 700l10.999 0.000976562c6 0 11 -2 15 -6c6 -6.66699 6.66699 -14.334 2 -23.001l-175 -314l188 -328c2 -4 3 -7.66699 3 -11c0 -12 -6.66699 -18 -20 -18h-11c-7.33301 0 -12.333 2 -15 6l-172 301l-152 -280c-12 -20 -25.333 -30 -40 -30
c-25.333 0 -38 13.333 -38 40v643c0 5.33301 1.83301 10 5.5 14s8.5 6 14.5 6h10c6 0 10.833 -2 14.5 -6s5.5 -8.66699 5.5 -14v-600l198 362l142 252c2.66699 4 7.33398 6 14.001 6z" />
    <glyph glyph-name="L" unicode="L" horiz-adv-x="499" 
d="M71 700h10c5.33301 0 10 -2 14 -6s6 -8.66699 6 -14v-631h334c12.667 0 19 -6.66699 19 -20v-9c0 -5.33301 -1.83301 -10 -5.5 -14s-8.16699 -6 -13.5 -6h-343c-27.333 -0 -41 14.333 -41 43v637c0 5.33301 2 10 6 14s8.66699 6 14 6z" />
    <glyph glyph-name="M" unicode="M" horiz-adv-x="650" 
d="M538 703c10.667 0 20.001 -3.5 28.001 -10.5s12 -17.833 12 -32.5v-640c0 -5.33301 -1.83301 -10 -5.5 -14s-8.5 -6 -14.5 -6h-9c-6 0 -10.833 2 -14.5 6s-5.5 8.66699 -5.5 14v595l-174 -430c-7.33301 -17.333 -19.333 -27 -36 -29c-19.333 0 -33 9.33301 -41 28
l-184 435v-599c0 -5.33301 -2 -10 -6 -14s-8.66699 -6 -14 -6h-10c-5.33301 0 -9.83301 2 -13.5 6s-5.5 8.66699 -5.5 14v640c0 28.667 13 43 39 43c18 0 31.333 -10 40 -30l192 -453l182 453c9.33301 20 22.666 30 39.999 30z" />
    <glyph glyph-name="N" unicode="N" 
d="M89 702c18 0 32 -8.00098 42 -24.001l355 -609v611c0 5.33301 1.83301 10 5.5 14s8.5 6 14.5 6h10c6 0 10.833 -2 14.5 -6s5.5 -8.66699 5.5 -14v-643c0 -13.333 -3.83301 -23.166 -11.5 -29.499s-18.5 -9.5 -32.5 -9.5s-25.667 7.33301 -35 22l-355 609v-609
c0 -5.33301 -2 -10 -6 -14s-8.66699 -6 -14 -6h-11c-5.33301 0 -9.83301 2 -13.5 6s-5.5 8.66699 -5.5 14v641c0 27.333 12.333 41 37 41z" />
    <glyph glyph-name="O" unicode="O" horiz-adv-x="606" 
d="M238 696c18 2.66699 36.4971 3.99902 55.4971 3.99902s37.833 -1.5 56.5 -4.5s39.834 -9.83301 63.501 -20.5s44.167 -24.5 61.5 -41.5s32 -41 44 -72s18 -66.833 18 -107.5v-203c0 -42 -6.16699 -79 -18.5 -111s-27.333 -56.667 -45 -74s-38.167 -31.333 -61.5 -42
c-37.333 -16.667 -76.666 -25 -117.999 -25c-43.333 0 -80.166 7.33301 -110.499 22s-54.166 30.667 -71.499 48s-32 41.833 -44 73.5s-18 67.834 -18 108.501v203c0 42 6.16699 78.667 18.5 110s27.166 55.333 44.499 72s38 30.167 62 40.5s45 16.833 63 19.5z
M337.497 647.499c-14.333 2.33301 -29 3.5 -44 3.5s-29.833 -1.16699 -44.5 -3.5s-31.5 -7.66602 -50.5 -15.999s-35.5 -19.333 -49.5 -33s-25.833 -33.334 -35.5 -59.001s-14.5 -55.5 -14.5 -89.5v-196c0 -34 4.83301 -64 14.5 -90s21.667 -46.167 36 -60.5
s30.833 -25.833 49.5 -34.5s35.5 -14.334 50.5 -17.001s29.833 -4 44.5 -4s29.5 1.33301 44.5 4s31.833 8.33398 50.5 17.001s35 20.167 49 34.5s25.833 34.5 35.5 60.5s14.5 56 14.5 90v196c0 34 -5 63.833 -15 89.5s-22 45.334 -36 59.001s-30.5 24.667 -49.5 33
s-35.667 13.666 -50 15.999z" />
    <glyph glyph-name="P" unicode="P" horiz-adv-x="498" 
d="M98 700l154.998 0.000976562c46.667 0 89.667 -12.667 129 -38c20.667 -13.333 37.334 -32.666 50.001 -57.999s19 -55.333 19 -90c0 -52.667 -15.333 -96.834 -46 -132.501s-84 -53.5 -160 -53.5h-66c-6 0 -10.833 2 -14.5 6s-5.5 8.66699 -5.5 14v9
c0 13.333 6.66699 20 20 20h54c72.667 0 119.667 15.333 141 46c18 25.333 27 56 27 92c0 47.333 -15.167 81.666 -45.5 102.999s-66.166 32 -107.499 32h-144v-630c0 -5.33301 -2 -10 -6 -14s-8.66699 -6 -14 -6h-10c-5.33301 0 -10 2 -14 6s-6 8.66699 -6 14v636
c0 17.333 3 29 9 35s17.667 9 35 9z" />
    <glyph glyph-name="Q" unicode="Q" horiz-adv-x="577" 
d="M294 706c18.667 0 37.3291 -1.66895 55.9961 -5.00195s39.667 -10.666 63 -21.999s43.833 -25.666 61.5 -42.999s32.5 -41.833 44.5 -73.5s18 -67.834 18 -108.501v-203c0 -66 -15.333 -120.667 -46 -164l54 -62c4 -5.33301 6 -10 6 -14c0 -7.33301 -5 -11 -15 -11h-26
c-5.33301 0 -10.333 2.33301 -15 7l-38 44c-43.333 -34.667 -97.666 -52 -162.999 -52c-43.333 0 -80.166 7.33301 -110.499 22s-54.166 30.667 -71.499 48s-32 41.833 -44 73.5s-18 67.834 -18 108.501v203c0 42 6.16699 79 18.5 111s27.166 56.667 44.499 74
s37.833 31.333 61.5 42s44.834 17.5 63.501 20.5s37.334 4.5 56.001 4.5zM337.995 651.998c-14.667 2.66699 -29.499 4 -44.499 4s-30 -1.33301 -45 -4s-31.833 -8.33398 -50.5 -17.001s-35 -20.167 -49 -34.5s-25.833 -34.5 -35.5 -60.5s-14.5 -56 -14.5 -90v-196
c0 -34 4.83301 -64 14.5 -90s21.667 -46.167 36 -60.5s30.833 -25.833 49.5 -34.5c30 -14 61.667 -21 95 -21c52.667 0 95.667 14 129 42l-112 133c-7.33301 8 -11 14.667 -11 20c0 6.66699 7.33301 10 22 10h16c6 0 11.333 -2.33301 16 -7l102 -119
c21.333 34 32 76.333 32 127v196c0 34 -5 64 -15 90s-22 46.167 -36 60.5s-30.333 25.833 -49 34.5s-35.334 14.334 -50.001 17.001z" />
    <glyph glyph-name="R" unicode="R" horiz-adv-x="489" 
d="M97 700l136.998 -0.00292969c161.333 0 242 -63.333 242 -190c0 -49.333 -15.667 -93.166 -47 -131.499s-80.666 -57.5 -147.999 -57.5h-11l216 -284c8 -12 12 -19.333 12 -22c0 -10 -4.66699 -15 -14 -15h-20c-8.66699 0 -15 2.66699 -19 8l-231 304
c-7.33301 10.667 -11 19.334 -11 26.001c0 21.333 11.667 32 35 32h44c28 0 52 4.66699 72 14s34.667 21.333 44 36c18.667 28.667 28 58.334 28 89.001c0 94 -64.333 141 -193 141h-128v-630c0 -5.33301 -1.83301 -10 -5.5 -14s-8.5 -6 -14.5 -6h-10
c-6 0 -10.833 2 -14.5 6s-5.5 8.66699 -5.5 14v633c0 18 2.83301 30.333 8.5 37s16.834 10 33.501 10z" />
    <glyph glyph-name="S" unicode="S" horiz-adv-x="557" 
d="M138 654c35.333 32 83.502 47.9971 144.502 47.9971s112.333 -16.167 154 -48.5s63.834 -80.5 66.501 -144.5c0 -5.33301 -2 -10.166 -6 -14.499s-8.66699 -6.5 -14 -6.5h-10c-4.66699 0 -9 1.83301 -13 5.5s-6.33301 8.16699 -7 13.5c-2 50.667 -19 87.5 -51 110.5
s-70.333 34.5 -115 34.5c-48 0 -85.333 -11 -112 -33s-40 -49.167 -40 -81.5s9.33301 -58.166 28 -77.499c26 -26 74.333 -52.667 145 -80c84 -33.333 140 -66.666 168 -99.999c21.333 -25.333 32 -61.666 32 -108.999s-19.167 -87.833 -57.5 -121.5
s-92.833 -50.5 -163.5 -50.5c-52.667 0 -102.334 14.333 -149.001 43c-24.667 15.333 -44.834 36.833 -60.501 64.5s-24.167 59.5 -25.5 95.5c0 14 6.66699 21 20 21h9c12 0 18.667 -6.33301 20 -19c1.33301 -29.333 8.66602 -54.833 21.999 -76.5s30 -37.834 50 -48.501
c38.667 -20.667 81.167 -31 127.5 -31s84.333 12.167 114 36.5s44.5 54.833 44.5 91.5c0 37.333 -12 66 -36 86c-19.333 16 -40.333 29.667 -63 41c-29.333 14 -75.333 33.667 -138 59c-48 21.333 -82.833 45.833 -104.5 73.5s-32.5 63 -32.5 106s17.667 80.5 53 112.5z" />
    <glyph glyph-name="T" unicode="T" horiz-adv-x="500" 
d="M241 624h10c13.333 0 20 -6.33301 20 -19v-585c0 -5.33301 -1.83301 -10 -5.5 -14s-8.5 -6 -14.5 -6h-10c-6 0 -10.833 2 -14.5 6s-5.5 8.66699 -5.5 14v585c0 12.667 6.66699 19 20 19zM25 700h444c6 0 10.833 -2 14.5 -6s5.5 -8.66699 5.5 -14v-11
c0 -12 -6.66699 -18 -20 -18h-444c-13.333 0 -20 6 -20 18v11c0 5.33301 2 10 6 14s8.66699 6 14 6z" />
    <glyph glyph-name="U" unicode="U" horiz-adv-x="562" 
d="M480 700l10 0.000976562c5.33301 0 10 -2 14 -6s6 -8.66699 6 -14v-429c0 -48 -8 -89.5 -24 -124.5s-36.667 -61.167 -62 -78.5c-46.667 -32.667 -94.334 -49 -143.001 -49h-12c-48.667 0 -97 16.333 -145 49c-25.333 17.333 -45.833 43.5 -61.5 78.5
s-23.5 76.5 -23.5 124.5v429c0 5.33301 1.83301 10 5.5 14s8.5 6 14.5 6h10c6 0 10.833 -2 14.5 -6s5.5 -8.66699 5.5 -14v-429c0 -39.333 6.33301 -73.166 19 -101.499s29.334 -49.5 50.001 -63.5c36 -24 73.667 -36.667 113 -38h9c38 1.33301 75.333 14.333 112 39
c20 13.333 36.333 34.166 49 62.499s19 62.166 19 101.499v429c0 5.33301 1.83301 10 5.5 14s8.5 6 14.5 6z" />
    <glyph glyph-name="V" unicode="V" horiz-adv-x="551" 
d="M503 700h12c13.333 0 20 -6.66699 20 -20c0 -2.66699 -0.333008 -5 -1 -7l-228 -647c-6 -18 -19 -27 -39 -27s-33.333 9.33301 -40 28l-230 646c-0.666992 2 -1 4.33301 -1 7c0 13.333 6.66699 20 20 20h12c8 0 14.333 -4.33301 19 -13l219 -624l218 624
c4 8.66699 10.333 13 19 13z" />
    <glyph glyph-name="W" unicode="W" horiz-adv-x="777" 
d="M730 700l11.001 0.000976562c7.33301 0 12.5 -2.16699 15.5 -6.5s4.5 -8 4.5 -11s-0.333008 -5.5 -1 -7.5l-179 -643c-6.66699 -22 -20.5 -33 -41.5 -33s-34.5 11 -40.5 33l-123 440l-123 -442c-7.33301 -20.667 -20.833 -31 -40.5 -31s-33.167 10.333 -40.5 31l-189 644
c-0.666992 2.66699 -1 5.66699 -1 9s1.5 7 4.5 11s8.16699 6 15.5 6h10c8 0 14.333 -4.66699 19 -14l182 -618l129 461c5.33301 18.667 17.166 28 35.499 28s29.5 -9.66699 33.5 -29l64.5 -229.5l64.5 -229.5l171 616c1.33301 3.33301 3.83301 6.66602 7.5 9.99902
s7.5 5 11.5 5z" />
    <glyph glyph-name="X" unicode="X" horiz-adv-x="489" 
d="M418 700l11.002 0.00195312c8 0 13.833 -3.33301 17.5 -10s3.5 -13.334 -0.5 -20.001v1l-169 -308c-0.666992 -0.666992 -1.83398 -2.33398 -3.50098 -5.00098s-3.16699 -4.66699 -4.5 -6l6 -8l181 -315c2 -3.33301 3 -6.66602 3 -9.99902s-1.33301 -7.33301 -4 -12
s-8 -7 -16 -7h-12c-7.33301 0 -12.333 2 -15 6l-173 300c-6.66699 -11.333 -33.167 -54.166 -79.5 -128.499l-104.5 -168.5c-4.66699 -6 -10.334 -9 -17.001 -9h-12c-8.66699 0 -14.667 3.33301 -18 10s-3 13.667 1 21l196 313v-1c2.66699 5.33301 5 9 7 11
c-2.66699 2.66699 -4.33398 5 -5.00098 7l-207 308c-2 3.33301 -3 6.66602 -3 9.99902s1.33301 7.66602 4 12.999s8 8 16 8h11c6.66699 0 12.334 -3 17.001 -9l196 -291l161 294c2.66699 4 8 6 16 6z" />
    <glyph glyph-name="Y" unicode="Y" horiz-adv-x="436" 
d="M391 700h10.999c8 0 13.333 -2.5 16 -7.5s4 -9.16699 4 -12.5s-1 -6.66602 -3 -9.99902v1l-169 -308c-5.33301 -8 -9 -13 -11 -15v-328c0 -5.33301 -2 -10 -6 -14s-8.66699 -6 -14 -6h-10c-5.33301 0 -10 2 -14 6s-6 8.66699 -6 14v329
c-3.33301 3.33301 -6.33301 7.33301 -9 12l-182 309c-2 3.33301 -3 6.66602 -3 9.99902s1.33301 7.5 4 12.5s8 7.5 16 7.5h12c6.66699 0 12.334 -3 17.001 -9l170 -292l161 295c2.66699 4 8 6 16 6z" />
    <glyph glyph-name="Z" unicode="Z" horiz-adv-x="552" 
d="M43 37c0 8.66699 5.33301 21 16 37v1l364 576h-372c-5.33301 0 -10 1.83301 -14 5.5s-6 8.5 -6 14.5v9c0 5.33301 2 10 6 14s8.66699 6 14 6h390c28 0 42 -11.667 42 -35c0 -12 -4.66699 -24 -14 -36v1l-3 -3l1 -2l-366 -576h393c5.33301 0 10 -1.83301 14 -5.5
s6 -8.5 6 -14.5v-9c0 -5.33301 -2 -10 -6 -14s-8.66699 -6 -14 -6h-411c-26.667 -0 -40 12.333 -40 37z" />
    <glyph glyph-name="bracketleft" unicode="[" horiz-adv-x="400" 
d="M146 699h140c12.667 0 19 -6.33301 19 -19v-10c0 -12.667 -6.33301 -19 -19 -19h-129v-603h129c12.667 0 19 -6.33301 19 -19v-9c0 -13.333 -6.33301 -20 -19 -20h-139c-25.333 0 -38 12.667 -38 38l-1 621c0 26.667 12.667 40 38 40z" />
    <glyph glyph-name="backslash" unicode="\" horiz-adv-x="307" 
d="M15 684h11c8 0 14.333 -4.33301 19 -13l249 -645c0.666992 -2.66699 1 -5.5 1 -8.5s-1.33301 -6.66699 -4 -11s-7.66699 -6.5 -15 -6.5h-10c-8.66699 -0 -15 4.33301 -19 13l-251 645c-0.666992 2.66699 -1 5.5 -1 8.5s1.5 6.66699 4.5 11s8.16699 6.5 15.5 6.5z" />
    <glyph glyph-name="bracketright" unicode="]" horiz-adv-x="403" 
d="M127 699h140c25.333 0 38 -13.333 38 -40v-620c0 -26 -13 -39 -39 -39h-139c-12.667 0 -19 6.66699 -19 20v9c0 12.667 6.33301 19 19 19h129v603h-129c-12.667 0 -19 6.33301 -19 19v10c0 12.667 6.33301 19 19 19z" />
    <glyph glyph-name="asciicircum" unicode="^" horiz-adv-x="405" 
d="M165 711c4.66699 14 17 21 37 21s32.333 -7 37 -21l150 -423c2.66699 -6.66699 4 -12 4 -16c0 -10.667 -6.33301 -16 -19 -16h-12c-6 0 -11 5.33301 -15 16l-145 395l-144 -395c-3.33301 -10.667 -8.33301 -16 -15 -16h-12c-12.667 0 -19 5.33301 -19 16
c0 4 1.33301 9.33301 4 16z" />
    <glyph glyph-name="underscore" unicode="_" horiz-adv-x="459" 
d="M55 39h343c5.33301 0 10 -1.83301 14 -5.5s6 -8.16699 6 -13.5v-10c0 -5.33301 -2 -9.83301 -6 -13.5s-8.66699 -5.5 -14 -5.5h-343c-5.33301 0 -10 1.83301 -14 5.5s-6 8.16699 -6 13.5v10c0 5.33301 2 9.83301 6 13.5s8.66699 5.5 14 5.5z" />
    <glyph glyph-name="grave" unicode="`" horiz-adv-x="368" 
d="M98 712c0 13.333 8.99805 20.001 26.998 20.001c9.33301 0 15.5 -1.5 18.5 -4.5s6.83301 -7.5 11.5 -13.5l107 -136c3.33301 -4 5 -7.83301 5 -11.5s-1.66699 -8 -5 -13s-10.166 -7.5 -20.499 -7.5s-20.166 5.66699 -29.499 17l-107 133
c-4.66699 5.33301 -7 10.666 -7 15.999z" />
    <glyph glyph-name="a" unicode="a" horiz-adv-x="504" 
d="M121 459c32 28.667 73.6709 42.998 125.004 42.998s92.666 -14.5 123.999 -43.5s47 -69.5 47 -121.5v-220c0 -26 2.16699 -43.833 6.5 -53.5s12.833 -16.167 25.5 -19.5l11 -3c10 -2 15 -6.33301 15 -13v-11c0 -11.333 -6.66699 -17 -20 -17
c-32.667 0 -55 9.66699 -67 29s-18 49 -18 89v219c0 38 -11.667 67.167 -35 87.5s-53 30.5 -89 30.5s-66 -10.167 -90 -30.5s-36 -49.5 -36 -87.5v-171c0 -39.333 9.83301 -69 29.5 -89s48 -30 85 -30s67.5 15 91.5 45c4.66699 6 11.167 9 19.5 9s14.166 -5 17.499 -15
c2 -8 1 -15 -3 -21c-28.667 -43.333 -69.834 -65 -123.501 -65s-94.334 14.333 -122.001 43s-41.5 69.334 -41.5 122.001v172c0 52.667 16 93.334 48 122.001z" />
    <glyph glyph-name="b" unicode="b" horiz-adv-x="461" 
d="M69 730l8 0.000976562c5.33301 0 10 -1.83301 14 -5.5s6 -8.16699 6 -13.5v-259c34.667 33.333 78 50 130 50s92.833 -14.5 122.5 -43.5s44.5 -69.5 44.5 -121.5v-174c0 -52.667 -16 -93.334 -48 -122.001s-73.667 -43 -125 -43s-92.833 14.5 -124.5 43.5
s-47.5 69.5 -47.5 121.5v548c0 5.33301 2 9.83301 6 13.5s8.66699 5.5 14 5.5zM229 454.001c-57.333 0 -101.334 -20.333 -132.001 -61v-229c0 -38 11.667 -67.167 35 -87.5s53 -30.5 89 -30.5s65.833 10 89.5 30s35.5 49.333 35.5 88v171c0 38.667 -10.667 68.167 -32 88.5
s-49.666 30.5 -84.999 30.5z" />
    <glyph glyph-name="c" unicode="c" horiz-adv-x="505" 
d="M118 459c32 28.667 73.665 42.999 124.998 42.999s92.666 -14.5 123.999 -43.5s47 -69.5 47 -121.5c0 -12.667 -6.66699 -19 -20 -19h-8c-12.667 0 -19 6.33301 -19 19c0 38 -11.667 67 -35 87s-53 30 -89 30s-65.833 -10.167 -89.5 -30.5s-35.5 -49.5 -35.5 -87.5v-172
c0 -38 11.833 -67.167 35.5 -87.5s53.5 -30.5 89.5 -30.5s65.5 9.83301 88.5 29.5s34.833 47.834 35.5 84.501c0 5.33301 1.83301 10 5.5 14s8.16699 6 13.5 6h8c6 0 10.833 -2 14.5 -6s5.5 -8.66699 5.5 -14c-1.33301 -50.667 -17.666 -90.334 -48.999 -119.001
s-72.166 -43 -122.499 -43s-91.666 14.5 -123.999 43.5s-48.5 69.5 -48.5 121.5v174c0 52.667 16 93.334 48 122.001z" />
    <glyph glyph-name="d" unicode="d" horiz-adv-x="510" 
d="M388 732l12.001 -0.000976562c12 0 18 -6.33301 18 -19v-550c0 -52 -15.833 -92.5 -47.5 -121.5s-73.167 -43.5 -124.5 -43.5s-93 14.333 -125 43s-48 69.334 -48 122.001v174c0 51.333 16 91.333 48 120s73.667 43 125 43c21.333 0 44.166 -4 68.499 -12
s42.833 -17 55.5 -27v252c0 12.667 6 19 18 19zM370.001 405.999c-38.667 30.667 -78 46 -118 46s-71.833 -10 -95.5 -30s-35.5 -49 -35.5 -87v-171c0 -38.667 11.833 -68 35.5 -88s53.5 -30 89.5 -30s65.667 10.167 89 30.5s35 49.5 35 87.5v242z" />
    <glyph glyph-name="e" unicode="e" horiz-adv-x="490" 
d="M118 459c32 28.667 73.666 42.9971 124.999 42.9971s92.666 -14.5 123.999 -43.5s47 -69.5 47 -121.5v-60c0 -28.667 -13.667 -43 -41 -43h-216c-6 0 -10.833 2 -14.5 6s-5.5 8.66699 -5.5 14v8c0 5.33301 1.83301 10 5.5 14s8.5 6 14.5 6h210v54
c0 38 -11.667 67.167 -35 87.5s-53 30.5 -89 30.5s-65.833 -10.167 -89.5 -30.5s-35.5 -49.5 -35.5 -87.5v-172c0 -38 11.833 -67.167 35.5 -87.5s53.334 -30.5 89.001 -30.5s65.334 9.83301 89.001 29.5s35.5 47.834 35.5 84.501c0 5.33301 1.83301 10 5.5 14
s8.16699 6 13.5 6h8c6 0 10.833 -2 14.5 -6s5.5 -8.66699 5.5 -14c-0.666992 -51.333 -16.667 -91.166 -48 -119.499s-72.333 -42.5 -123 -42.5s-92.167 14.5 -124.5 43.5s-48.5 69.5 -48.5 121.5v174c0 52.667 16 93.334 48 122.001z" />
    <glyph glyph-name="f" unicode="f" horiz-adv-x="336" 
d="M158 500h106.001c5.33301 0 9.83301 -2 13.5 -6s5.5 -8.66699 5.5 -14v-4c0 -5.33301 -1.83301 -10 -5.5 -14s-8.16699 -6 -13.5 -6h-106l-1 -437c0 -12.667 -6.33301 -19 -19 -19h-8c-13.333 -0 -20 6.33301 -20 19l1 558c-0.666992 49.333 12.166 87.5 38.499 114.5
s62.5 40.5 108.5 40.5c30 0 45 -6.66699 45 -20v-8c0 -4.66699 -1.83301 -9 -5.5 -13s-8.16699 -6 -13.5 -6h-25c-31.333 0 -56 -9.33301 -74 -28s-27 -45.667 -27 -81v-76zM46.001 500h24c6 0 10.833 -2 14.5 -6s5.5 -8.66699 5.5 -14v-4c0 -5.33301 -1.83301 -10 -5.5 -14
s-8.5 -6 -14.5 -6h-24c-6 0 -10.833 2 -14.5 6s-5.5 8.66699 -5.5 14v4c0 5.33301 1.83301 10 5.5 14s8.5 6 14.5 6z" />
    <glyph glyph-name="g" unicode="g" horiz-adv-x="518" 
d="M118 458c32 28.667 73.8359 43 125.503 43s93 -14.333 124 -43s46.5 -69.334 46.5 -122.001v-412c0 -56.667 -15 -99.834 -45 -129.501s-70.167 -44.5 -120.5 -44.5s-90.833 14 -121.5 42s-46.334 67.333 -47.001 118c0 12 6.33301 18 19 18h8c13.333 0 20 -6 20 -18
c1.33301 -36.667 13.166 -64.667 35.499 -84s51.166 -29 86.499 -29s63.833 10.667 85.5 32s32.5 53.333 32.5 96v111c-36 -26 -78.5 -39 -127.5 -39s-89.5 14.333 -121.5 43s-48 69.334 -48 122.001v174c0 52.667 16 93.334 48 122.001zM332.003 423.5
c-23.333 20.333 -53.1699 30.5 -89.5029 30.5s-66.166 -10.167 -89.499 -30.5s-35 -49.833 -35 -88.5v-172c0 -38 12.167 -67.167 36.5 -87.5s53.333 -30.5 87 -30.5s61.334 5.5 83.001 16.5s35.834 23.167 42.501 36.5v238c0 38 -11.667 67.167 -35 87.5z" />
    <glyph glyph-name="h" unicode="h" horiz-adv-x="476" 
d="M244 502c46 0 83.499 -14.668 112.499 -44.001s43.5 -69.666 43.5 -120.999v-317c0 -13.333 -6.33301 -20 -19 -20h-9c-13.333 0 -20 6.66699 -20 20v316c0 38 -10.333 67.333 -31 88s-48.5 31 -83.5 31s-65.167 -12.667 -90.5 -38c-6 -6 -11.667 -9 -17 -9
c-12 0 -18.333 6.66699 -19 20c0 4.66699 1.33301 9.66699 4 15c8.66699 16 25.334 29.833 50.001 41.5s51 17.5 79 17.5zM77.999 730.999h8c5.33301 0 10 -1.83301 14 -5.5s6 -8.5 6 -14.5v-691c0 -6 -2 -10.833 -6 -14.5s-8.66699 -5.5 -14 -5.5h-8
c-5.33301 0 -10 1.83301 -14 5.5s-6 8.5 -6 14.5v691c0 6 2 10.833 6 14.5s8.66699 5.5 14 5.5z" />
    <glyph glyph-name="i" unicode="i" horiz-adv-x="204" 
d="M91 501h17c8 0 13.333 -1.66699 16 -5s4 -8.33301 4 -15v-461c0 -6 -2 -10.833 -6 -14.5s-8.66699 -5.5 -14 -5.5h-17c-5.33301 -0 -10 1.83301 -14 5.5s-6 8.5 -6 14.5v461c0 8.66699 1.83301 14.167 5.5 16.5s8.5 3.5 14.5 3.5zM98 732c24 0 39.667 -3.16699 47 -9.5
s11 -19.5 11 -39.5v-13c0 -22.667 -3.66699 -37 -11 -43s-23 -9 -47 -9s-39.333 3 -46 9s-10 20.333 -10 43v13c0 21.333 3.33301 34.833 10 40.5s22 8.5 46 8.5zM116.5 693.5c-3 2.33301 -9 3.5 -18 3.5s-14.833 -1 -17.5 -3s-4 -6.66699 -4 -14v-10
c0 -7.33301 1.33301 -12 4 -14s8.66699 -3 18 -3s15.333 1 18 3s4 6.66699 4 14v10c0 6.66699 -1.5 11.167 -4.5 13.5z" />
    <glyph glyph-name="j" unicode="j" horiz-adv-x="248" 
d="M1 -203c73.333 0 110 39 110 117v566c0 6 2 10.833 6 14.5s8.66699 5.5 14 5.5h8c5.33301 0 10 -1.83301 14 -5.5s6 -8.5 6 -14.5v-566c0 -109.333 -52.333 -164 -157 -164h-9c-12.667 0 -19 6.33301 -19 19v8c0 6 2 10.833 6 14.5s8 5.5 12 5.5h9zM137 732
c24 0 39.667 -3.16699 47 -9.5s11 -19.5 11 -39.5v-13c0 -22.667 -3.66699 -37 -11 -43s-23 -9 -47 -9s-39.333 3 -46 9s-10 20.333 -10 43v13c0 21.333 3.33301 34.833 10 40.5s22 8.5 46 8.5zM155.5 693.5c-3 2.33301 -9 3.5 -18 3.5s-14.833 -1 -17.5 -3
s-4 -6.66699 -4 -14v-10c0 -7.33301 1.33301 -12 4 -14s8.66699 -3 18 -3s15.333 1 18 3s4 6.66699 4 14v10c0 6.66699 -1.5 11.167 -4.5 13.5z" />
    <glyph glyph-name="k" unicode="k" horiz-adv-x="471" 
d="M78 730h8.99902c12.667 0 19 -6.33301 19 -19v-641c14.667 22.667 58.334 95.667 131.001 219l121 205c2.66699 4 7.66699 6 15 6h22c8.66699 0 13 -3.33301 13 -10s-24.667 -50.667 -74 -132l-57 -94l131 -240c3.33301 -5.33301 5 -10 5 -14
c0 -6.66699 -4.33301 -10 -13 -10h-22c-5.33301 -0 -10.666 3.33301 -15.999 10l-113 206c-69.333 -116 -107.833 -179.333 -115.5 -190s-14.334 -17.667 -20.001 -21s-12.167 -5 -19.5 -5c-23.333 0 -35 13 -35 39v672c0 12.667 6.33301 19 19 19z" />
    <glyph glyph-name="l" unicode="l" horiz-adv-x="294" 
d="M90 730h7.99805c12.667 0 19 -6.33301 19 -19v-557c0 -71.333 30.333 -107 91 -107h16c5.33301 0 9.83301 -2 13.5 -6s5.5 -8.33301 5.5 -13v-8c0 -13.333 -12 -20 -36 -20c-45.333 0 -79.666 13 -102.999 39s-34.666 64 -33.999 114v558c0 12.667 6.66699 19 20 19z" />
    <glyph glyph-name="m" unicode="m" horiz-adv-x="779" 
d="M545 502c49.333 0 87.3311 -14.3311 113.998 -42.998s40 -69.334 40 -122.001v-317c0 -13.333 -6.33301 -20 -19 -20h-8c-13.333 0 -20 6.66699 -20 20v316c0 39.333 -9.33301 69 -28 89s-46.167 30 -82.5 30s-68.166 -15 -95.499 -45c-7.33301 -6 -13.666 -9 -18.999 -9
c-12 0 -18.333 6.66699 -19 20c0 5.33301 1.33301 10.666 4 15.999c14 19.333 32.667 35 56 47s49 18 77 18zM84.998 499.002h8c5.33301 0 10 -1.83301 14 -5.5s6 -8.5 6 -14.5v-459c0 -6 -2 -10.833 -6 -14.5s-8.66699 -5.5 -14 -5.5h-8c-12.667 0 -19 6.66699 -19 20v459
c0 13.333 6.33301 20 19 20zM121.998 437.002c30.667 43.333 72.333 65.002 125 65.002s92.334 -14.333 119.001 -43s40 -69.334 40 -122.001v-317c0 -13.333 -6.33301 -20 -19 -20h-8c-13.333 0 -20 6.66699 -20 20v316c0 39.333 -9.33301 69 -28 89s-45.834 30 -81.501 30
s-66.834 -15 -93.501 -45c-7.33301 -6 -13.666 -9 -18.999 -9c-12 0 -18.333 6.66699 -19 20c0 5.33301 1.33301 10.666 4 15.999z" />
    <glyph glyph-name="n" unicode="n" horiz-adv-x="479" 
d="M248 502c50 0 88.333 -13.166 115 -39.499s40 -64.833 40 -115.5v-327c0 -13.333 -6.33301 -20 -19 -20h-8c-13.333 0 -20 6.66699 -20 20v316c0 79.333 -36.333 119 -109 119c-38 0 -70.333 -15 -97 -45c-7.33301 -6 -13.666 -9 -18.999 -9
c-12 0 -18.333 6.66699 -19 20c0 5.33301 1.33301 10.666 4 15.999c14 19.333 32.667 35 56 47s48.666 18 75.999 18zM79 499.001h8c5.33301 0 10 -1.83301 14 -5.5s6 -8.5 6 -14.5v-459c0 -6 -2 -10.833 -6 -14.5s-8.66699 -5.5 -14 -5.5h-8
c-5.33301 0 -10 1.83301 -14 5.5s-6 8.5 -6 14.5v459c0 6 2 10.833 6 14.5s8.66699 5.5 14 5.5z" />
    <glyph glyph-name="o" unicode="o" horiz-adv-x="504" 
d="M118 459c32 28.667 73.668 42.999 125.001 42.999s92.666 -14.5 123.999 -43.5s47 -69.5 47 -121.5v-174c0 -52 -15.667 -92.5 -47 -121.5s-72.5 -43.5 -123.5 -43.5s-92.667 14.5 -125 43.5s-48.5 69.5 -48.5 121.5v174c0 52.667 16 93.334 48 122.001zM332.001 424.499
c-23.333 20.333 -53 30.5 -89 30.5s-66 -10.167 -90 -30.5s-36 -49.5 -36 -87.5v-174c0 -38 12 -67.167 36 -87.5s54 -30.5 90 -30.5s65.667 10.167 89 30.5s35 49.5 35 87.5v174c0 38 -11.667 67.167 -35 87.5z" />
    <glyph glyph-name="p" unicode="p" horiz-adv-x="510" 
d="M105.5 458.5c31.667 29 73 43.5 124 43.5s92.5 -14.333 124.5 -43s48 -69.334 48 -122.001v-174c0 -51.333 -16 -91.666 -48 -120.999s-73.5 -44 -124.5 -44s-92.5 13.667 -124.5 41v-270c0 -12.667 -6.33301 -19 -19 -19h-9c-12.667 0 -19 6.33301 -19 19v568
c0 52 15.833 92.5 47.5 121.5zM230 454c-36 0 -65.833 -10.167 -89.5 -30.5s-35.5 -49.5 -35.5 -87.5v-243c40.667 -31.333 80.667 -47 120 -47s70.833 10.333 94.5 31s35.5 50 35.5 88v171c0 38.667 -11.833 68 -35.5 88s-53.5 30 -89.5 30z" />
    <glyph glyph-name="q" unicode="q" horiz-adv-x="516" 
d="M221 502c51.333 0 92.833 -14.5 124.5 -43.5s47.5 -69.5 47.5 -121.5v-568c0 -5.33301 -2 -9.83301 -6 -13.5s-8.66699 -5.5 -14 -5.5h-8c-5.33301 0 -10 1.83301 -14 5.5s-6 8.16699 -6 13.5v270c-35.333 -27.333 -77.5 -41 -126.5 -41s-89.667 14.667 -122 44
s-48.5 69.666 -48.5 120.999v174c0 52.667 16 93.334 48 122.001s73.667 43 125 43zM221 454c-36 0 -65.833 -10 -89.5 -30s-35.5 -49.333 -35.5 -88v-171c0 -38 11.833 -67.333 35.5 -88s55.5 -31 95.5 -31s73.667 13.667 101 41c3.33301 5.33301 9 7.33301 17 6v243
c0 38 -11.667 67.167 -35 87.5s-53 30.5 -89 30.5z" />
    <glyph glyph-name="r" unicode="r" horiz-adv-x="291" 
d="M240 502c12.667 0 19 -6.66797 19 -20.001v-7c0 -5.33301 -1.83301 -10 -5.5 -14s-8.16699 -6 -13.5 -6c-38 0 -68.333 -9.66699 -91 -29s-34 -49 -34 -89v-317c0 -6 -2 -10.833 -6 -14.5s-8.66699 -5.5 -14 -5.5h-7c-5.33301 0 -10 1.83301 -14 5.5s-6 8.5 -6 14.5v317
c0 54.667 15.333 95.834 46 123.501s72.667 41.5 126 41.5z" />
    <glyph glyph-name="s" unicode="s" horiz-adv-x="455" 
d="M113.5 464c25.667 25.333 64.001 37.999 115.001 37.999s90.167 -12.5 117.5 -37.5s41 -61.833 41 -110.5c0 -5.33301 -1.83301 -9.83301 -5.5 -13.5s-8.16699 -5.5 -13.5 -5.5h-9c-5.33301 0 -9.83301 1.83301 -13.5 5.5s-5.5 7.83398 -5.5 12.501
c0 67.333 -37.667 101 -113 101c-34.667 0 -60.834 -8.33301 -78.501 -25s-26.5 -37.667 -26.5 -63s8.5 -45.5 25.5 -60.5s49.167 -27.167 96.5 -36.5s84.333 -24 111 -44s40 -49.833 40 -89.5s-14.5 -72.667 -43.5 -99s-69.333 -39.5 -121 -39.5s-93.5 13.167 -125.5 39.5
s-48 65.166 -48 116.499c0 14 6.66699 21 20 21h8c12.667 0 19 -6.66699 19 -20c0 -72.667 43 -109 129 -109c38.667 0 67.5 8.83301 86.5 26.5s28.5 39.5 28.5 65.5s-10 44.833 -30 56.5s-54.833 22.834 -104.5 33.501s-85.167 27.667 -106.5 51s-32 53.833 -32 91.5
s12.833 69.167 38.5 94.5z" />
    <glyph glyph-name="t" unicode="t" horiz-adv-x="336" 
d="M113 730h8.00098c12.667 0 19 -6.33301 19 -19l-3 -557c0.666992 -34 10.167 -60.333 28.5 -79s42.5 -28 72.5 -28h25c5.33301 0 9.83301 -2 13.5 -6s5.5 -8.33301 5.5 -13v-8c0 -13.333 -15 -20 -45 -20c-44 0 -79.333 13.5 -106 40.5s-40.334 64.5 -41.001 112.5l3 558
c1.33301 12.667 8 19 20 19zM36.001 500h24c6 0 10.833 -2 14.5 -6s5.5 -8.66699 5.5 -14v-6c0 -5.33301 -1.83301 -10 -5.5 -14s-8.5 -6 -14.5 -6h-24c-6 0 -10.833 2 -14.5 6s-5.5 8.66699 -5.5 14v6c0 5.33301 1.83301 10 5.5 14s8.5 6 14.5 6zM170.001 500h74
c5.33301 0 9.83301 -2 13.5 -6s5.5 -8.66699 5.5 -14v-6c0 -5.33301 -1.83301 -10 -5.5 -14s-8.16699 -6 -13.5 -6h-74c-5.33301 0 -10 2 -14 6s-6 8.66699 -6 14v6c0 5.33301 2 10 6 14s8.66699 6 14 6z" />
    <glyph glyph-name="u" unicode="u" horiz-adv-x="498" 
d="M90 502l8 0.000976562c13.333 0 20 -6.66699 20 -20v-316c0 -39.333 9.83301 -69 29.5 -89s47.5 -30 83.5 -30s67 14.333 93 43c6 7.33301 12.333 11 19 11c12.667 0 19 -7.33301 19 -22c0 -6 -1.66699 -11.333 -5 -16c-13.333 -18.667 -32 -33.834 -56 -45.501
s-49.333 -17.5 -76 -17.5c-46 0 -83.167 14.5 -111.5 43.5s-42.5 69.5 -42.5 121.5v317c0 13.333 6.33301 20 19 20zM386 500.001h10c12.667 0 19 -6.66699 19 -20v-363c0 -26 2.16699 -43.833 6.5 -53.5s12.833 -16.167 25.5 -19.5l11 -3c10 -2 15 -6.33301 15 -13v-11
c0 -11.333 -6.66699 -17 -20 -17c-32.667 0 -55.167 9.66699 -67.5 29s-18.5 49 -18.5 89v362c0 13.333 6.33301 20 19 20z" />
    <glyph glyph-name="v" unicode="v" horiz-adv-x="488" 
d="M409 500h9c7.33301 0 12.5 -2.16699 15.5 -6.5s4.5 -8 4.5 -11s-0.333008 -5.83301 -1 -8.5l-165 -447c-8 -18.667 -21 -28 -39 -28s-30 9 -36 27l-165 448c-0.666992 2.66699 -1 5.5 -1 8.5s1.5 6.66699 4.5 11s8.16699 6.5 15.5 6.5h9c8 0 14.333 -4.33301 19 -13
l156 -427l155 427c4 8.66699 10.333 13 19 13z" />
    <glyph glyph-name="w" unicode="w" horiz-adv-x="585" 
d="M530 500h8.99512c6 0 10.667 -2.16699 14 -6.5s5 -8 5 -11s-3 -17.167 -9 -42.5l-45.5 -190.5l-55.5 -226.5c-5.33301 -16.667 -17.666 -25 -36.999 -25s-32.666 10 -39.999 30l-90 294c-42.667 -136 -72.667 -234 -90 -294c-7.33301 -20 -20.666 -30 -39.999 -30
s-31.666 8.33301 -36.999 25l-110 453c-0.666992 2 -1 4.5 -1 7.5s1.5 6.5 4.5 10.5s7.83301 6 14.5 6h9c10.667 0 17 -5 19 -15l102 -423l98 317c4 18.667 14.167 28 30.5 28s27.5 -9 33.5 -27l96 -318l103 423c2.66699 10 8.33398 15 17.001 15z" />
    <glyph glyph-name="x" unicode="x" horiz-adv-x="442" 
d="M351 500l11.0029 -0.000976562c7.33301 0 12.666 -3.5 15.999 -10.5s3.33301 -13.833 0 -20.5l-67.5 -104l-66.5 -104v1c-4 -6 -6.33301 -9.33301 -7 -10l6 -10v1l142 -212c2 -3.33301 3 -6.66602 3 -9.99902c0 -14 -6.66699 -21 -20 -21h-10c-6 0 -11.667 2.66699 -17 8
l-132 201l-66.5 -100.5l-66.5 -100.5c-5.33301 -5.33301 -11 -8 -17 -8h-10c-8.66699 0 -14.167 2.5 -16.5 7.5s-3.5 9.16699 -3.5 12.5s1 7 3 11l142 213v-1l6 9l-7 10l-134 207c-3.33301 6.66699 -3.33301 13.5 0 20.5s8.66602 10.5 15.999 10.5h10
c6 0 11.667 -2.66699 17 -8l127 -196l126 196c5.33301 5.33301 10.666 8 15.999 8z" />
    <glyph glyph-name="y" unicode="y" horiz-adv-x="508" 
d="M383 500h9c12.667 0 19 -6.66699 19 -20v-534c0 -57.333 -15.167 -101 -45.5 -131s-71.5 -45 -123.5 -45s-92.167 13.833 -120.5 41.5s-43.166 67.167 -44.499 118.5c0 12.667 6.33301 19 19 19h9c12.667 0 19 -6.33301 19 -19
c1.33301 -36.667 13.166 -64.667 35.499 -84s50.833 -29 85.5 -29c79.333 0 119 42.667 119 128v535c0 13.333 6.33301 20 19 20zM87 502l8 0.000976562c13.333 0 20 -6.66699 20 -20v-316c0 -39.333 9.83301 -69 29.5 -89s47.5 -30 83.5 -30s67 14.333 93 43
c6 7.33301 12.333 11 19 11c12.667 0 19 -7.33301 19 -22c0 -6 -1.66699 -11.333 -5 -16c-13.333 -18.667 -32 -33.834 -56 -45.501s-49.333 -17.5 -76 -17.5c-46 0 -83.167 14.5 -111.5 43.5s-42.5 69.5 -42.5 121.5v317c0 13.333 6.33301 20 19 20z" />
    <glyph glyph-name="z" unicode="z" horiz-adv-x="456" 
d="M74 500h265c26.667 0 40 -11.667 40 -35c0 -10 -5.66699 -22.667 -17 -38l-252 -380h255c12.667 0 19 -6.33301 19 -19v-8c0 -13.333 -6.33301 -20 -19 -20h-274c-11.333 -0 -20.333 3.33301 -27 10s-10 15 -10 25s5.66699 23 17 39l249 379h-246
c-12.667 0 -19 6.33301 -19 19v8c0 13.333 6.33301 20 19 20z" />
    <glyph glyph-name="braceleft" unicode="{" horiz-adv-x="339" 
d="M291 687c7.33301 0 12.5 -2.00098 15.5 -6.00098s4.5 -7.33301 4.5 -10c0 -12.667 -3 -21.167 -9 -25.5s-10.667 -6.5 -14 -6.5c-91.333 -2 -137 -43.333 -137 -124v-28v-12c0 -68.667 -16 -113.334 -48 -134.001c24 -15.333 38.333 -38.666 43 -69.999
c3.33301 -25.333 5 -50 5 -74v-27c0 -80.667 46.667 -122 140 -124c5.33301 0 10 -1.83301 14 -5.5s6 -8.16699 6 -13.5l-4 -15c-2.66699 -9.33301 -9 -14 -19 -14c-123.333 2 -185 59.333 -185 172v25v10c0 69.333 -21 104 -63 104h-5
c-9.33301 0 -17.833 2.83301 -25.5 8.5s-11.5 13.834 -11.5 24.501s3.83301 18.667 11.5 24s16.167 8 25.5 8h5c42 0 63 34.333 63 103v10v28c0 112.667 62.667 170 188 172z" />
    <glyph glyph-name="bar" unicode="|" horiz-adv-x="211" 
d="M95 730h12c12.667 0 19 -6.33301 19 -19v-783c0 -5.33301 -1.83301 -10 -5.5 -14s-8.16699 -6 -13.5 -6h-12c-5.33301 0 -9.83301 2 -13.5 6s-5.5 8.66699 -5.5 14v783c0 12.667 6.33301 19 19 19z" />
    <glyph glyph-name="braceright" unicode="}" horiz-adv-x="339" 
d="M222 515l0.000976562 -27.9971v-10c0 -68.667 21 -103 63 -103h6c8.66699 0 16.834 -2.66699 24.501 -8s11.5 -13.333 11.5 -24s-3.83301 -18.834 -11.5 -24.501s-15.834 -8.5 -24.501 -8.5h-6c-42 0 -63 -34.667 -63 -104v-10v-25c0 -112.667 -62.667 -170 -188 -172
c-12.667 0 -19 6.66699 -19 20l4 14c0.666992 4 3 7.33301 7 10s7.66699 4 11 4c92 2 138 43.333 138 124v27c0 74.667 15.667 122.667 47 144c-15.333 9.33301 -26.833 24.166 -34.5 44.499s-11.834 35.166 -12.501 44.499s-1 18.333 -1 27s0.333008 18.667 1 30v28
c0 80.667 -47 122 -141 124c-7.33301 0 -12.5 2 -15.5 6s-4.5 7.33301 -4.5 10s1.66699 8.66699 5 18s9.33301 14 18 14c123.333 -2 185 -59.333 185 -172z" />
    <glyph glyph-name="asciitilde" unicode="~" 
d="M453 508h23.999c8.66699 0 13 -5.66699 13 -17c0 -36.667 -10 -64.667 -30 -84s-44 -29 -72 -29s-55.333 7.16699 -82 21.5l-76 42.5c-24 14 -43.667 21 -59 21s-29.5 -5.33301 -42.5 -16s-19.5 -27.667 -19.5 -51c0 -12 -5 -18 -15 -18h-15c-8.66699 0 -13 6 -13 18
c0 34 10 60.833 30 80.5s44.5 29.5 73.5 29.5s66.333 -14 112 -42s77.834 -42 96.501 -42c44 0 66 23 66 69c0 11.333 3 17 9 17z" />
    <glyph glyph-name="exclamdown" unicode="&#xa1;" horiz-adv-x="222" 
d="M112 -200h-10c-12.667 0 -19 6.33301 -19 19v479c0 12.667 6.33301 19 19 19h10c5.33301 0 10 -1.83301 14 -5.5s6 -8.16699 6 -13.5v-479c0 -5.33301 -2 -9.83301 -6 -13.5s-8.66699 -5.5 -14 -5.5zM106 389c-24 0 -39.333 2.83301 -46 8.5s-10 19.167 -10 40.5v13
c0 22.667 3.33301 37 10 43s22 9 46 9s39.667 -3 47 -9s11 -20.333 11 -43v-13c0 -20 -3.66699 -33.167 -11 -39.5s-23 -9.5 -47 -9.5zM89 427c2.66699 -2 8.5 -3 17.5 -3s15 1.16699 18 3.5s4.5 6.83301 4.5 13.5v10c0 7.33301 -1.33301 12 -4 14s-8.66699 3 -18 3
s-15.333 -1 -18 -3s-4 -6.66699 -4 -14v-10c0 -7.33301 1.33301 -12 4 -14z" />
    <glyph glyph-name="cent" unicode="&#xa2;" horiz-adv-x="505" 
d="M242 684l6.99902 -0.00195312c5.33301 0 10 -1.83301 14 -5.5s6 -8.16699 6 -13.5v-164c44 -4.66699 79.167 -21.167 105.5 -49.5s39.5 -66.5 39.5 -114.5c0 -12.667 -6.66699 -19 -20 -19h-8c-12.667 0 -19 6.33301 -19 19c0 32.667 -9 58.834 -27 78.501
s-41.667 31.834 -71 36.501v-405c28.667 4.66699 52 16.667 70 36s27.333 45 28 77c0 5.33301 1.83301 10 5.5 14s8.16699 6 13.5 6h8c6 0 10.833 -2 14.5 -6s5.5 -8.66699 5.5 -14c-1.33301 -46.667 -15.166 -84 -41.499 -112s-60.833 -44.333 -103.5 -49v-163
c0 -5.33301 -2 -9.83301 -6 -13.5s-8.66699 -5.5 -14 -5.5h-7c-5.33301 0 -10 1.83301 -14 5.5s-6 8.16699 -6 13.5v163c-46 4 -82.833 20.333 -110.5 49s-41.5 67 -41.5 115v174c0 48.667 13.833 87.167 41.5 115.5s64.5 44.5 110.5 48.5v164c0 5.33301 2 9.83301 6 13.5
s8.66699 5.5 14 5.5zM117.999 163.998c0 -34.667 9.5 -61.833 28.5 -81.5s44.167 -31.5 75.5 -35.5v406c-31.333 -4 -56.5 -16 -75.5 -36s-28.5 -47 -28.5 -81v-172z" />
    <glyph glyph-name="sterling" unicode="&#xa3;" 
d="M214.5 628.5c-19 -15 -31.832 -32.6689 -38.499 -53.002s-10 -43.166 -10 -68.499v-457l310 1c5.33301 0 10 -2 14 -6s6 -9 6 -15v-10c-1.33301 -12 -8 -18.667 -20 -20l-316 1c-18 0 -29.833 3 -35.5 9s-8.5 17.667 -8.5 35l-1 467c0 56 14.167 101.333 42.5 136
s73.166 52 134.499 52c39.333 0 79.666 -10.333 120.999 -31c14.667 -7.33301 24.334 -13.666 29.001 -18.999s5 -11 1 -17l-13 -21c-3.33301 -6.66699 -16 -4 -38 8c-36 20.667 -69.833 31 -101.5 31s-57 -7.5 -76 -22.5zM47.001 378.998h46c5.33301 0 10 -2 14 -6
s6 -8.66699 6 -14v-9c0 -5.33301 -2 -9.83301 -6 -13.5s-8.66699 -5.5 -14 -5.5h-46c-12.667 0 -19 6.33301 -19 19v9c0 5.33301 1.83301 10 5.5 14s8.16699 6 13.5 6zM198.001 378.998h197c6 0 10.833 -2 14.5 -6s5.5 -8.66699 5.5 -14v-9c0 -12.667 -6.66699 -19 -20 -19
h-197c-5.33301 0 -10 1.83301 -14 5.5s-6 8.16699 -6 13.5v9c0 5.33301 2 10 6 14s8.66699 6 14 6z" />
    <glyph glyph-name="currency" unicode="&#xa4;" horiz-adv-x="609" 
d="M65 536c-3.33301 4.66699 -4.99609 9.49805 -4.99609 14.498s2.83301 10.333 8.5 16s11 8.5 16 8.5s9.83301 -1.66699 14.5 -5l75 -77c37.333 30.667 80.666 46 129.999 46s92.666 -15 129.999 -45l76 76c3.33301 3.33301 8.16602 5 14.499 5s12 -2.5 17 -7.5
s7.5 -10.667 7.5 -17s-1.66699 -11.166 -5 -14.499l-77 -76c30 -37.333 45 -80.333 45 -129s-15 -92 -45 -130l77 -76c3.33301 -4.66699 5 -9.5 5 -14.5s-2.83301 -10.333 -8.5 -16s-11 -8.5 -16 -8.5s-9.83301 1.66699 -14.5 5l-76 77
c-37.333 -29.333 -80.166 -44 -128.499 -44s-91.833 14.667 -130.5 44l-76 -77c-4.66699 -3.33301 -9.33398 -5 -14.001 -5c-6.66699 0 -13.334 3.33301 -20.001 10c-3.33301 5.33301 -5 10.333 -5 15s1.66699 9.33398 5 14.001l77 76c-30 38 -45 81.333 -45 130
s14.667 91.667 44 129zM417.004 443.998c-31.333 31.333 -68.833 47 -112.5 47s-81 -15.5 -112 -46.5s-46.5 -68.667 -46.5 -113s15.333 -81.833 46 -112.5s68.167 -46 112.5 -46s82 15.5 113 46.5s46.5 68.333 46.5 112s-15.667 81.167 -47 112.5z" />
    <glyph glyph-name="yen" unicode="&#xa5;" horiz-adv-x="436" 
d="M43 357h133l-176 297c-2 3.33301 -3 6.66602 -3 9.99902s1.33301 7.5 4 12.5s8 7.5 16 7.5h11c8 0 13.667 -3 17 -9l167 -284l155 283c3.33301 6.66699 9.33301 10 18 10h11c8 0 13.333 -2.33301 16 -7s4 -8.66699 4 -12s-1 -6.66602 -3 -9.99902l-166 -298h129
c13.333 0 20 -6.33301 20 -19v-9c0 -5.33301 -1.83301 -10 -5.5 -14s-8.5 -6 -14.5 -6h-141v-29h141c6 0 10.833 -2 14.5 -6s5.5 -8.66699 5.5 -14v-9c0 -5.33301 -1.83301 -10 -5.5 -14s-8.5 -6 -14.5 -6h-141v-211c0 -13.333 -6.33301 -20 -19 -20h-9
c-5.33301 -0 -10 1.83301 -14 5.5s-6 8.5 -6 14.5v211h-144c-5.33301 0 -9.83301 2 -13.5 6s-5.5 8.66699 -5.5 14v9c0 5.33301 1.83301 10 5.5 14s8.16699 6 13.5 6h144v29h-144c-5.33301 0 -9.83301 2 -13.5 6s-5.5 8.66699 -5.5 14v9c0 12.667 6.33301 19 19 19z" />
    <glyph glyph-name="brokenbar" unicode="&#xa6;" horiz-adv-x="200" 
d="M93 684h9c12.667 0 19 -6.33301 19 -19v-240c0 -5.33301 -1.83301 -10 -5.5 -14s-8.16699 -6 -13.5 -6h-9c-6 0 -10.833 2 -14.5 6s-5.5 8.66699 -5.5 14v240c0 12.667 6.66699 19 20 19zM93 282h9c5.33301 0 9.83301 -2 13.5 -6s5.5 -8.66699 5.5 -14v-240
c0 -12.667 -6.33301 -19 -19 -19h-9c-13.333 0 -20 6.33301 -20 19v240c0 5.33301 1.83301 10 5.5 14s8.5 6 14.5 6z" />
    <glyph glyph-name="section" unicode="&#xa7;" horiz-adv-x="474" 
d="M119.5 690c29.667 28 73.1699 42 130.503 42s102.333 -14.333 135 -43s49 -70.667 49 -126c0 -5.33301 -1.83301 -10 -5.5 -14s-8.16699 -6 -13.5 -6h-9c-13.333 0 -20 7.66699 -20 23c0 38.667 -12 67.834 -36 87.501s-55.667 29.5 -95 29.5s-70.5 -8.66699 -93.5 -26
s-34.5 -39.666 -34.5 -66.999c0 -33.333 15.667 -61.333 47 -84c21.333 -15.333 48.333 -32 81 -50s51.5 -28.5 56.5 -31.5l32 -19c16.333 -9.66699 27 -16.834 32 -21.501l23 -21.5c10.333 -9.66699 17.166 -18.5 20.499 -26.5c10 -25.333 15 -47.666 15 -66.999
c0 -35.333 -11.333 -66.5 -34 -93.5s-53.334 -45.5 -92.001 -55.5c39.333 -22 66.5 -43.5 81.5 -64.5s22.5 -46.167 22.5 -75.5c0 -45.333 -17.333 -81.333 -52 -108s-77.834 -40 -129.501 -40s-96.334 14.667 -134.001 44s-56.5 70.666 -56.5 123.999
c0 5.33301 1.83301 10 5.5 14s8.16699 6 13.5 6h9c13.333 0 20 -7.66699 20 -23c0 -34.667 14 -63.167 42 -85.5s60.833 -33.5 98.5 -33.5s69.834 8.83301 96.501 26.5s40 42.167 40 73.5c0 32.667 -15 60 -45 82c-24 16.667 -60.333 36.167 -109 58.5
s-88.167 48.166 -118.5 77.499s-45.5 62.833 -45.5 100.5s10.167 70.5 30.5 98.5s48.833 47.667 85.5 59c-32 22 -54.667 43.333 -68 64s-20 47.5 -20 80.5s14.833 63.5 44.5 91.5zM96.0029 307c0 -40 16.667 -73.001 50 -99.001c25.333 -18.667 57.666 -37 96.999 -55
c42.667 2 77.334 13.5 104.001 34.5s40 47.833 40 80.5c0 35.333 -14.333 63.333 -43 84c-18 12 -36 22.667 -54 32l-74 38c-34 -1.33301 -62.5 -13.166 -85.5 -35.499s-34.5 -48.833 -34.5 -79.5z" />
    <glyph glyph-name="dieresis" unicode="&#xa8;" horiz-adv-x="361" 
d="M214 659c6 5.33301 19.833 8.00195 41.5 8.00195s35.834 -2.83301 42.501 -8.5s10 -17.834 10 -36.501v-12c0 -20 -3.33301 -32.833 -10 -38.5s-20.834 -8.5 -42.501 -8.5s-35.5 2.83301 -41.5 8.5s-9 18.5 -9 38.5v12c0 19.333 3 31.666 9 36.999zM48 659.002
c6 5.33301 19.833 8.00195 41.5 8.00195s35.834 -2.83301 42.501 -8.5s10 -17.834 10 -36.501v-12c0 -20 -3.33301 -32.833 -10 -38.5s-20.834 -8.5 -42.501 -8.5s-35.5 2.66699 -41.5 8s-9 18.333 -9 39v12c0 19.333 3 31.666 9 36.999zM106 632.004
c-2.66699 2 -7.99805 3.00098 -15.998 3.00098s-13.167 -0.833008 -15.5 -2.5s-3.5 -5.83398 -3.5 -12.501v-10c0 -6.66699 1.16699 -10.834 3.5 -12.501s7.66602 -2.5 15.999 -2.5s13.666 0.833008 15.999 2.5s3.5 5.83398 3.5 12.501v10c0 6 -1.33301 10 -4 12z
M272.002 632.005c-2.66699 2 -7.99805 3.00098 -15.998 3.00098s-13.167 -0.833008 -15.5 -2.5s-3.5 -5.83398 -3.5 -12.501v-10c0 -6.66699 1.16699 -10.834 3.5 -12.501s7.66602 -2.5 15.999 -2.5s13.666 0.833008 15.999 2.5s3.5 5.83398 3.5 12.501v10
c0 6 -1.33301 10 -4 12z" />
    <glyph glyph-name="copyright" unicode="&#xa9;" horiz-adv-x="620" 
d="M312 756c88.667 0 158.833 -25.5 210.5 -76.5s77.5 -118.167 77.5 -201.5v-200c0 -83.333 -25.833 -150.5 -77.5 -201.5s-121.5 -76.5 -209.5 -76.5s-158.833 25.667 -212.5 77s-80.5 118.333 -80.5 201v200c0 86 26.5 153.833 79.5 203.5s123.833 74.5 212.5 74.5z
M195.499 566c29 26 66.8301 38.998 113.497 38.998s84.167 -13.167 112.5 -39.5s42.5 -63.166 42.5 -110.499c0 -11.333 -6 -17 -18 -17h-8c-4.66699 0 -8.66699 1.66699 -12 5s-5 7.33301 -5 12c0 34 -10.5 60.167 -31.5 78.5s-47.833 27.5 -80.5 27.5
s-59.667 -9.16699 -81 -27.5s-32 -44.833 -32 -79.5v-156c0 -34.667 10.667 -61.167 32 -79.5s48.333 -27.5 81 -27.5s59.334 8.83301 80.001 26.5s31.334 43.167 32.001 76.5c0 12 5.66699 18 17 18h8c12 0 18 -6 18 -18c-1.33301 -46 -16.166 -82 -44.499 -108
s-65.333 -39 -111 -39s-83.167 13.333 -112.5 40s-44 63.334 -44 110.001v158c0 48 14.5 85 43.5 111zM311.996 707.998c-66.667 0 -124 -18.8291 -172 -56.4961s-72 -90.834 -72 -159.501v-228c0 -68.667 24 -121.834 72 -159.501s105.333 -56.5 172 -56.5
s123.334 18.667 170.001 56s70 90.666 70 159.999v228c0 69.333 -23.333 122.666 -70 159.999s-103.334 56 -170.001 56z" />
    <glyph glyph-name="ordfeminine" unicode="&#xaa;" horiz-adv-x="504" 
d="M376 399c-36 0 -53.998 22.0029 -53.998 66.0029v151c0 23.333 -6.66699 41.666 -20 54.999s-31.833 20 -55.5 20s-42.167 -7 -55.5 -21s-20 -32.667 -20 -56v-97c0 -54.667 25.333 -82 76 -82c15.333 0 30.666 4.66699 45.999 14c3.33301 2.66699 6 2 8 -2l9 -23
c2.66699 -4.66699 2.66699 -8 0 -10c-20 -13.333 -44.667 -20 -74 -20s-54.333 9.83301 -75 29.5s-31 47.5 -31 83.5v117c0 36 10.5 63 31.5 81s49.5 27 85.5 27c77.333 0 116 -38.333 116 -115v-129c0 -26.667 3 -42.334 9 -47.001c7.33301 -6 15.333 -7.33301 24 -4
s13 2.66602 13 -2.00098v-25c0 -2.66699 -2.83301 -5.16699 -8.5 -7.5s-13.834 -3.5 -24.501 -3.5z" />
    <glyph glyph-name="guillemotleft" unicode="&#xab;" horiz-adv-x="558" 
d="M481 530c4 2 8.66602 3 13.999 3s10.333 -2.33301 15 -7s7 -10.667 7 -18s-4 -14 -12 -20l-225 -168l225 -168c8.66699 -6 13 -12 13 -18c0 -18.667 -8 -28 -24 -28c-5.33301 0 -9.66602 1.33301 -12.999 4l-230 173c-13.333 10 -20 22 -20 36s7 26.333 21 37z
M309.999 530c4 2 8.66602 3 13.999 3s10.333 -2.33301 15 -7s7 -10.667 7 -18s-4 -14 -12 -20l-225 -168l225 -168c8.66699 -6 13 -12 13 -18c0 -18.667 -8 -28 -24 -28c-5.33301 0 -9.66602 1.33301 -12.999 4l-230 173c-13.333 10 -20 22 -20 36s7 26.333 21 37z" />
    <glyph glyph-name="logicalnot" unicode="&#xac;" horiz-adv-x="480" 
d="M12 500l453.999 0.000976562c12 0 18.833 -1 20.5 -3s2.83398 -3.33301 3.50098 -4s1.16699 -2.33398 1.5 -5.00098s0.5 -4.66699 0.5 -6v-169c0 -12.667 -6.33301 -19 -19 -19h-10c-12.667 0 -19 6.33301 -19 19v139h-432c-13.333 0 -20 6.33301 -20 19v9
c0 13.333 6.66699 20 20 20z" />
    <glyph glyph-name="softhyphen" unicode="&#xad;" horiz-adv-x="351" 
d="M51 346h249c13.333 0 20 -6.33301 20 -19v-10c0 -12.667 -6.66699 -19 -20 -19h-249c-13.333 0 -20 6.33301 -20 19v10c0 12.667 6.66699 19 20 19z" />
    <glyph glyph-name="registered" unicode="&#xae;" 
d="M312 756c88.667 0 158.833 -25.5 210.5 -76.5s77.5 -118.167 77.5 -201.5v-200c0 -83.333 -25.833 -150.5 -77.5 -201.5s-121.5 -76.5 -209.5 -76.5s-158.833 25.667 -212.5 77s-80.5 118.333 -80.5 201v200c0 86 26.5 153.833 79.5 203.5s123.833 74.5 212.5 74.5z
M311.999 708c-66.667 0 -124 -18.8291 -172 -56.4961s-72 -90.834 -72 -159.501v-228c0 -68.667 24 -121.834 72 -159.501s105.333 -56.5 172 -56.5s123.334 18.667 170.001 56s70 90.666 70 159.999v228c0 69.333 -23.333 122.666 -70 159.999s-103.334 56 -170.001 56z
M207.999 615.004l111 0.000976562c44.667 0 80.667 -11.167 108 -33.5s41 -55.5 41 -99.5c0 -34.667 -10.667 -63.334 -32 -86.001c-8.66699 -9.33301 -22.667 -17.666 -42 -24.999s-42 -11 -68 -11h-10l129 -196c8.66699 -14.667 13 -23 13 -25
c0 -7.33301 -5.33301 -11 -16 -11h-13c-9.33301 0 -15.666 2.66699 -18.999 8l-139 211c-8.66699 14.667 -13 24.667 -13 30c0 14 8.66699 21 26 21h31c72.667 0 109 27.333 109 82c0 18.667 -3.83301 34.667 -11.5 48s-17.834 22.666 -30.501 27.999
c-22 10.667 -43.333 16 -64 16h-102v-428c0 -10 -6.33301 -15 -19 -15h-5c-12.667 0 -19 5 -19 15v436c0 16.667 1.83301 26.667 5.5 30s13.5 5 29.5 5z" />
    <glyph glyph-name="macron" unicode="&#xaf;" horiz-adv-x="509" 
d="M70 601h370c12.667 0 19 -6.33301 19 -19v-9c0 -13.333 -6.33301 -20 -19 -20h-370c-13.333 0 -20 6.66699 -20 20v9c0 12.667 6.66699 19 20 19z" />
    <glyph glyph-name="degree" unicode="&#xb0;" horiz-adv-x="438" 
d="M219 758c35.333 0 65.666 -12.667 90.999 -38s38 -55.666 38 -90.999s-12.667 -65.666 -38 -90.999s-55.666 -38 -90.999 -38s-65.666 12.667 -90.999 38s-38 55.666 -38 90.999s12.667 65.666 38 90.999s55.666 38 90.999 38zM219 708c-22.667 0 -41.5 -7.5 -56.5 -22.5
s-22.5 -33.833 -22.5 -56.5s7.5 -41.5 22.5 -56.5s33.833 -22.5 56.5 -22.5s41.5 7.5 56.5 22.5s22.5 33.833 22.5 56.5s-7.5 41.5 -22.5 56.5s-33.833 22.5 -56.5 22.5z" />
    <glyph glyph-name="plusminus" unicode="&#xb1;" horiz-adv-x="366" 
d="M-15 366l171 -0.000976562v172c0 12.667 6.33301 19 19 19h8c12.667 -1.33301 19.667 -7.66602 21 -18.999v-172h171c12.667 0 19 -6.33301 19 -19v-9c0 -5.33301 -1.83301 -10 -5.5 -14s-8.16699 -6 -13.5 -6h-171v-171c-1.33301 -13.333 -8 -20 -20 -20h-10
c-12 1.33301 -18 8 -18 20v171h-171c-6 0 -10.833 2 -14.5 6s-5.5 8.66699 -5.5 14v9c0 12.667 6.66699 19 20 19zM-16 48.999h390c12.667 0 19 -6.33301 19 -19v-9c0 -5.33301 -1.83301 -10 -5.5 -14s-8.16699 -6 -13.5 -6h-390c-6 0 -10.833 2 -14.5 6
s-5.5 8.66699 -5.5 14v9c0 12.667 6.66699 19 20 19z" />
    <glyph glyph-name="twosuperior" unicode="&#xb2;" horiz-adv-x="500" 
d="M321 774c0 45.333 -25.667 68 -77 68c-42 0 -69.333 -20 -82 -60c-1.33301 -4.66699 -5.33301 -7 -12 -7h-7c-10 0 -15 3 -15 9c0 8.66699 1 14 3 16c8 24.667 22.5 43.834 43.5 57.501s47 20.5 78 20.5s56.833 -9.83301 77.5 -29.5s31 -44.834 31 -75.501
c0 -41.333 -25.333 -94.333 -76 -159l-63 -76l-48 -57h179c8.66699 0 13 -4 13 -12v-14c0 -8 -4.33301 -12 -13 -12h-207c-18 0 -27 7.66699 -27 23c0 7.33301 12 25 36 53c56 65.333 89.333 105.333 100 120c44 56.667 66 101.667 66 135z" />
    <glyph glyph-name="threesuperior" unicode="&#xb3;" horiz-adv-x="535" 
d="M187 861.5c20.667 17 47.334 25.4961 80.001 25.4961s59 -11 79 -33s30 -49.667 30 -83c0 -20.667 -5.5 -40.167 -16.5 -58.5s-27.5 -32.166 -49.5 -41.499c50.667 -15.333 76 -51 76 -107c0 -40 -13 -70 -39 -90s-55.333 -30 -88 -30c-69.333 0 -110.666 32 -123.999 96
c-1.33301 4 -2 7 -2 9s2 3 6 3l24 1h3c0.666992 0 1.66699 -2.33301 3 -7c11.333 -44 41.333 -66 90 -66c26.667 0 48.5 7.33301 65.5 22s25.5 35.334 25.5 62.001s-8.33301 48.167 -25 64.5s-43 24.5 -79 24.5h-37c-4.66699 0 -7.16699 0.5 -7.5 1.5s-0.5 6.5 -0.5 16.5
c3.33301 10.667 6.33301 16.334 9 17.001h34c32 0 56 7.66699 72 23s24 35.333 24 60s-6.66699 44.334 -20 59.001s-34 22 -62 22c-38.667 0 -61.334 -19 -68.001 -57c-0.666992 -2.66699 -2.33398 -4 -5.00098 -4h-31c-4 0 -5 3.66699 -3 11
c3.33301 22.667 15.333 42.5 36 59.5z" />
    <glyph glyph-name="acute" unicode="&#xb4;" horiz-adv-x="358" 
d="M241 732c17.333 0 25.9951 -7.66699 25.9951 -23c0 -3.33301 -2.33301 -7.66602 -7 -12.999l-107 -133c-9.33301 -11.333 -19.166 -17 -29.499 -17s-17.166 2.5 -20.499 7.5s-5 9.33301 -5 13s1.66699 7.5 5 11.5l107 136c2.66699 2.66699 4.33398 4.66699 5.00098 6
s1.83398 2.83301 3.50098 4.5s2.83398 2.66699 3.50098 3s2 1.16602 4 2.49902s3.66699 1.83301 5 1.5s3 -0.333008 5 0s3.66699 0.5 5 0.5z" />
    <glyph glyph-name="mu" unicode="&#xb5;" horiz-adv-x="474" 
d="M78 500l9 -0.000976562c12.667 0 19 -6.66699 19 -20v-374c6 0 11.667 -3.33301 17 -10c20.667 -33.333 56 -50 106 -50c36 0 65.833 10.167 89.5 30.5s35.5 49.5 35.5 87.5v316c0 13.333 6.66699 20 20 20h8c12.667 0 19 -6.66699 19 -20v-317
c0 -51.333 -16 -91.666 -48 -120.999s-73 -44 -123 -44s-91.333 14.667 -124 44v-253c0 -12.667 -6.33301 -19 -19 -19h-9c-12.667 0 -19 6.33301 -19 19v691c0 13.333 6.33301 20 19 20z" />
    <glyph glyph-name="paragraph" unicode="&#xb6;" 
d="M254 700l51 0.000976562c10.667 0 16 -6.66699 16 -20v-9c0 -12 -5.33301 -18 -16 -18l-49 -1c-96.667 -2.66699 -145 -47.334 -145 -134.001c0 -42 14.333 -74.667 43 -98s65 -35 109 -35h42c10 0 15 -6.66699 15 -20v-7c0 -13.333 -5 -20 -15 -20h-45
c-61.333 0 -109.5 17.333 -144.5 52s-52.5 79 -52.5 133s17.667 97 53 129s81.333 48 138 48zM381 730.001h12c12.667 0 19 -6.33301 19 -19v-783c0 -5.33301 -1.83301 -10 -5.5 -14s-8.16699 -6 -13.5 -6h-12c-5.33301 0 -9.83301 2 -13.5 6s-5.5 8.66699 -5.5 14v783
c0 12.667 6.33301 19 19 19zM473 730.001h12c12.667 0 19 -6.33301 19 -19v-783c0 -5.33301 -1.83301 -10 -5.5 -14s-8.16699 -6 -13.5 -6h-12c-5.33301 0 -9.83301 2 -13.5 6s-5.5 8.66699 -5.5 14v783c0 12.667 6.33301 19 19 19z" />
    <glyph glyph-name="periodcentered" unicode="&#xb7;" horiz-adv-x="228" 
d="M113 354c28.667 0 47.5 -3.66699 56.5 -11s13.5 -23.333 13.5 -48v-15c0 -28 -4.33301 -45.667 -13 -53s-27.667 -11 -57 -11s-48 3.66699 -56 11s-12 25 -12 53v15c0 25.333 4.16699 41.5 12.5 48.5s26.833 10.5 55.5 10.5zM135 307
c-3.33301 2.66699 -10.5 3.99805 -21.5 3.99805s-18 -1.16699 -21 -3.5s-4.5 -8.16602 -4.5 -17.499v-10c0 -9.33301 1.5 -15.166 4.5 -17.499s10.167 -3.5 21.5 -3.5s18.5 1.16699 21.5 3.5s4.5 8.16602 4.5 17.499v10c0 8.66699 -1.66699 14.334 -5 17.001z" />
    <glyph glyph-name="cedilla" unicode="&#xb8;" 
d="M366 -123l0.00195312 -42c0 -26.667 -9.16699 -47.5 -27.5 -62.5s-38.333 -22.5 -60 -22.5s-41 3.5 -58 10.5s-29.5 15.167 -37.5 24.5l23 38c7.33301 -10 17.5 -17.5 30.5 -22.5s25.667 -7.5 38 -7.5s23.666 4.16699 33.999 12.5s15.5 20.5 15.5 36.5v28
c0 15.333 -5.33301 27.333 -16 36s-25.334 13 -44.001 13s-31 -1 -37 -3v1l38 113l42 -1l-24 -67c25.333 -2 45.5 -10.333 60.5 -25s22.5 -34.667 22.5 -60z" />
    <glyph glyph-name="onesuperior" unicode="&#xb9;" horiz-adv-x="383" 
d="M231 851v-394c0 -9.33301 -4 -14 -12 -14h-17c-8 0 -12 4.33301 -12 13v387l-105 -83c-6.66699 -5.33301 -12 -5 -16 1l-7 9c-2 2 -3 4.33301 -3 7s2 5.66699 6 9l109 90c9.33301 8 19.333 12 30 12c18 -0.666992 27 -13 27 -37z" />
    <glyph glyph-name="ordmasculine" unicode="&#xba;" horiz-adv-x="504" 
d="M167.5 703c21.667 19.333 50.168 29 85.501 29s63.666 -10 84.999 -30s32 -47.667 32 -83v-119c0 -35.333 -10.667 -62.833 -32 -82.5s-49.5 -29.5 -84.5 -29.5s-63.5 9.83301 -85.5 29.5s-33 47.167 -33 82.5v119c0 36.667 10.833 64.667 32.5 84zM254.001 691
c-27.333 0 -47.333 -7.5 -60 -22.5s-19 -34.833 -19 -59.5v-99c0 -24 6.5 -43.5 19.5 -58.5s32.833 -22.5 59.5 -22.5c48.667 0 73 27 73 81v99c0 54.667 -24.333 82 -73 82z" />
    <glyph glyph-name="guillemotright" unicode="&#xbb;" horiz-adv-x="538" 
d="M209 526c4.66699 4.66699 9.66699 6.99902 15 6.99902s10 -1 14 -3l229 -174c14 -10.667 21 -23 21 -37s-6.66699 -26 -20 -36l-230 -173c-3.33301 -2.66699 -9 -4 -17 -4s-13.333 3.33301 -16 10s-4 12.834 -4 18.501s4.33301 11.5 13 17.5l224 168l-224 168
c-8 6 -12 12.667 -12 20s2.33301 13.333 7 18zM38 525.999c4.66699 4.66699 9.66699 6.99902 15 6.99902s10 -1 14 -3l229 -174c14 -10.667 21 -23 21 -37s-6.66699 -26 -20 -36l-230 -173c-3.33301 -2.66699 -9 -4 -17 -4s-13.333 3.33301 -16 10s-4 12.834 -4 18.501
s4.33301 11.5 13 17.5l224 168l-224 168c-8 6 -12 12.667 -12 20s2.33301 13.333 7 18z" />
    <glyph glyph-name="onequarter" unicode="&#xbc;" horiz-adv-x="700" 
d="M193 692v-394c0 -9.33301 -4 -14 -12 -14h-17c-8 0 -12 4.33301 -12 13v387l-105 -83c-6.66699 -5.33301 -12 -5 -16 1l-7 9c-2 2 -3 4.33301 -3 7s2 5.66699 6 9l109 90c9.33301 8 19.333 12 30 12c18 -0.666992 27 -13 27 -37zM65 0c-10 0 -15 5 -15 15
c0 4 1.33301 7.66699 4 11l568 699c6.66699 8.66699 13.667 13 21 13h3c7.33301 0 12.833 -3 16.5 -9s3.16699 -11.667 -1.5 -17l-567 -699c-5.33301 -8.66699 -11.333 -13 -18 -13h-11zM550 427c8 11.333 17.834 17 29.501 17s20.667 -2.66699 27 -8s9.5 -12.333 9.5 -21
v-228h61c3.33301 0 6.16602 -1.5 8.49902 -4.5s3.5 -6.16699 3.5 -9.5v-7c0 -11.333 -4 -17 -12 -17h-61v-137c0 -8 -4 -12 -12 -12h-14c-8.66699 0 -13 4 -13 12v137h-161c-17.333 0 -28 7 -32 21c-0.666992 2.66699 -1 6 -1 10s1.66699 8.66699 5 14zM577.001 187v216
l-148 -216h148z" />
    <glyph glyph-name="onehalf" unicode="&#xbd;" horiz-adv-x="500" 
d="M193 699v-394c0 -9.33301 -4 -14 -12 -14h-17c-8 0 -12 4.33301 -12 13v387l-105 -83c-6.66699 -5.33301 -12 -5 -16 1l-7 9c-2 2 -3 4.33301 -3 7s2 5.66699 6 9l109 90c9.33301 8 19.333 12 30 12c18 -0.666992 27 -13 27 -37zM67 0c-10 0 -15 5 -15 15
c0 4 1.33301 7.66699 4 11l568 699c6.66699 8.66699 13.667 13 21 13h3c7.33301 0 12.833 -3 16.5 -9s3.16699 -11.667 -1.5 -17l-567 -699c-5.33301 -8.66699 -11.333 -13 -18 -13h-11zM658 331c0 45.333 -25.667 68 -77 68c-42 0 -69.333 -20 -82 -60
c-1.33301 -4.66699 -5.33301 -7 -12 -7h-7c-10 0 -15 3 -15 9c0 8.66699 1 14 3 16c8 24.667 22.333 43.834 43 57.501s46.667 20.5 78 20.5s57.333 -9.83301 78 -29.5s31 -44.834 31 -75.501c0 -41.333 -25.333 -94.333 -76 -159l-63 -76l-48 -57h179
c8.66699 0 13 -4 13 -12v-14c0 -8 -4.33301 -12 -13 -12h-206c-18.667 0 -28 7.66699 -28 23c0 7.33301 12 25 36 53c56 65.333 89.333 105.333 100 120c44 56.667 66 101.667 66 135z" />
    <glyph glyph-name="threequarters" unicode="&#xbe;" horiz-adv-x="700" 
d="M67 706.5c20.667 17 47.334 25.4961 80.001 25.4961s59 -11 79 -33s30 -49.667 30 -83c0 -20.667 -5.5 -40.167 -16.5 -58.5s-27.5 -32.166 -49.5 -41.499c50.667 -15.333 76 -51 76 -107c0 -40 -13 -70 -39 -90s-55.333 -30 -88 -30c-69.333 0 -110.666 32 -123.999 96
c-1.33301 4 -2 7 -2 9s2 3 6 3l24 1h3c0.666992 0 1.66699 -2.33301 3 -7c11.333 -44 41.333 -66 90 -66c26.667 0 48.5 7.33301 65.5 22s25.5 35.334 25.5 62.001s-8.33301 48.167 -25 64.5s-43 24.5 -79 24.5h-37c-4.66699 0 -7.16699 0.5 -7.5 1.5s-0.5 6.5 -0.5 16.5
c3.33301 10.667 6.33301 16.334 9 17.001h34c32 0 56 7.66699 72 23s24 35.333 24 60s-6.66699 44.334 -20 59.001s-34 22 -62 22c-38.667 0 -61.334 -19 -68.001 -57c-0.666992 -2.66699 -2.33398 -4 -5.00098 -4h-31c-4 0 -5 3.66699 -3 11
c3.33301 22.667 15.333 42.5 36 59.5zM76 -0.00390625c-10 0 -15 5 -15 15c0 4 1.33301 7.66699 4 11l568 699c6.66699 8.66699 13.667 13 21 13h3c7.33301 0 12.833 -3 16.5 -9s3.16699 -11.667 -1.5 -17l-567 -699c-5.33301 -8.66699 -11.333 -13 -18 -13h-11z
M545 426.996c8 11.333 17.834 17 29.501 17s20.667 -2.66699 27 -8s9.5 -12.333 9.5 -21v-228h61c3.33301 0 6.16602 -1.5 8.49902 -4.5s3.5 -6.16699 3.5 -9.5v-7c0 -11.333 -4 -17 -12 -17h-61v-137c0 -8 -4 -12 -12 -12h-14c-8.66699 0 -13 4 -13 12v137h-161
c-17.333 0 -28 7 -32 21c-0.666992 2.66699 -1 6 -1 10s1.66699 8.66699 5 14zM572.001 186.996v216l-148 -216h148z" />
    <glyph glyph-name="questiondown" unicode="&#xbf;" horiz-adv-x="442" 
d="M217 -177c-60 0 -104.67 17.498 -134.003 52.498s-44 75.5 -44 121.5s15 85 45 117s70 51.333 120 58c0.666992 0 1.33398 -0.333008 2.00098 -1v143c0 12.667 6.33301 19 19 19h9c13.333 0 20 -6.33301 20 -19v-148c0 -15.333 -3.33301 -25.666 -10 -30.999
s-18.667 -8.66602 -36 -9.99902c-34.667 -3.33301 -63.5 -16.333 -86.5 -39s-34.5 -52 -34.5 -88s11.167 -66.167 33.5 -90.5s54.5 -36.5 96.5 -36.5c60 0 100.333 24 121 72c4 8 10 12 18 12h9c13.333 0 20 -5.33301 20 -16c0 -2.66699 -0.333008 -5.66699 -1 -9
c-13.333 -36.667 -35.166 -63.667 -65.499 -81s-64.166 -26 -101.499 -26zM232.997 397.998c-24 0 -39.667 3.16699 -47 9.5s-11 19.5 -11 39.5v13c0 22.667 3.66699 37 11 43s23 9 47 9s39.333 -3 46 -9s10 -20.333 10 -43v-13c0 -21.333 -3.33301 -34.833 -10 -40.5
s-22 -8.5 -46 -8.5zM214.497 436.498c3 -2.33301 9 -3.5 18 -3.5s14.833 1 17.5 3s4 6.66699 4 14v10c0 7.33301 -1.33301 12 -4 14s-8.66699 3 -18 3s-15.333 -1 -18 -3s-4 -6.66699 -4 -14v-10c0 -6.66699 1.5 -11.167 4.5 -13.5z" />
    <glyph glyph-name="Agrave" unicode="&#xc0;" horiz-adv-x="588" 
d="M246 674c6 18 18.832 27 38.499 27s32.834 -9.33301 39.501 -28l230 -646c0.666992 -2 1 -4.33301 1 -7c0 -13.333 -6.66699 -20 -20 -20h-12c-8.66699 -0 -15 4.33301 -19 13l-218 621l-219 -621c-4 -8.66699 -10.333 -13 -19 -13h-12c-13.333 0 -20 6.66699 -20 20
c0 2.66699 0.333008 5 1 7zM198.999 308h173c5.33301 0 10 -1.83301 14 -5.5s6 -8.5 6 -14.5v-9c0 -6 -2 -10.833 -6 -14.5s-8.66699 -5.5 -14 -5.5h-173c-12.667 0 -19 6.66699 -19 20v9c0 13.333 6.33301 20 19 20zM220.999 912c0 13.333 8.99805 20.001 26.998 20.001
c9.33301 0 15.5 -1.5 18.5 -4.5s6.83301 -7.5 11.5 -13.5l107 -136c3.33301 -4 5 -7.83301 5 -11.5s-1.66699 -8 -5 -13s-10.166 -7.5 -20.499 -7.5s-20.166 5.66699 -29.499 17l-107 133c-4.66699 5.33301 -7 10.666 -7 15.999z" />
    <glyph glyph-name="Aacute" unicode="&#xc1;" horiz-adv-x="588" 
d="M246 674c6 18 18.832 27 38.499 27s32.834 -9.33301 39.501 -28l230 -646c0.666992 -2 1 -4.33301 1 -7c0 -13.333 -6.66699 -20 -20 -20h-12c-8.66699 -0 -15 4.33301 -19 13l-218 621l-219 -621c-4 -8.66699 -10.333 -13 -19 -13h-12c-13.333 0 -20 6.66699 -20 20
c0 2.66699 0.333008 5 1 7zM198.999 308h173c5.33301 0 10 -1.83301 14 -5.5s6 -8.5 6 -14.5v-9c0 -6 -2 -10.833 -6 -14.5s-8.66699 -5.5 -14 -5.5h-173c-12.667 0 -19 6.66699 -19 20v9c0 13.333 6.33301 20 19 20zM344.999 932c17.333 0 25.9951 -7.66699 25.9951 -23
c0 -3.33301 -2.33301 -7.66602 -7 -12.999l-107 -133c-9.33301 -11.333 -19.166 -17 -29.499 -17s-17.166 2.5 -20.499 7.5s-5 9.33301 -5 13s1.66699 7.5 5 11.5l107 136c2.66699 2.66699 4.33398 4.66699 5.00098 6s1.83398 2.83301 3.50098 4.5
s2.83398 2.66699 3.50098 3s2 1.16602 4 2.49902s3.66699 1.83301 5 1.5s3 -0.333008 5 0s3.66699 0.5 5 0.5z" />
    <glyph glyph-name="Acircumflex" unicode="&#xc2;" horiz-adv-x="588" 
d="M246 674c6 18 18.832 27 38.499 27s32.834 -9.33301 39.501 -28l230 -646c0.666992 -2 1 -4.33301 1 -7c0 -13.333 -6.66699 -20 -20 -20h-12c-8.66699 -0 -15 4.33301 -19 13l-218 621l-219 -621c-4 -8.66699 -10.333 -13 -19 -13h-12c-13.333 0 -20 6.66699 -20 20
c0 2.66699 0.333008 5 1 7zM198.999 308h173c5.33301 0 10 -1.83301 14 -5.5s6 -8.5 6 -14.5v-9c0 -6 -2 -10.833 -6 -14.5s-8.66699 -5.5 -14 -5.5h-173c-12.667 0 -19 6.66699 -19 20v9c0 13.333 6.33301 20 19 20zM247.999 933c9.33301 12.667 21.6689 19 37.002 19
s27.666 -6.33301 36.999 -19l121 -152c3.33301 -4 5 -8.66699 5 -14c0 -12 -6.66699 -18 -20 -18h-13c-7.33301 0 -12.333 2 -15 6l-113 145l-2 2l-111 -147c-2.66699 -4 -7.33398 -6 -14.001 -6h-13c-13.333 0 -20 6 -20 18c0 4 1.66699 8.66699 5 14z" />
    <glyph glyph-name="Atilde" unicode="&#xc3;" horiz-adv-x="588" 
d="M246 674c6 18 18.832 27 38.499 27s32.834 -9.33301 39.501 -28l230 -646c0.666992 -2 1 -4.33301 1 -7c0 -13.333 -6.66699 -20 -20 -20h-12c-8.66699 -0 -15 4.33301 -19 13l-218 621l-219 -621c-4 -8.66699 -10.333 -13 -19 -13h-12c-13.333 0 -20 6.66699 -20 20
c0 2.66699 0.333008 5 1 7zM198.999 308h173c5.33301 0 10 -1.83301 14 -5.5s6 -8.5 6 -14.5v-9c0 -6 -2 -10.833 -6 -14.5s-8.66699 -5.5 -14 -5.5h-173c-12.667 0 -19 6.66699 -19 20v9c0 13.333 6.33301 20 19 20zM420.999 888l23.999 -0.000976562
c8.66699 0 13 -5.66699 13 -17c0 -37.333 -8 -65.5 -24 -84.5s-38.667 -28.5 -68 -28.5c-16 0 -31 4 -45 12s-29.167 19.167 -45.5 33.5s-29.166 24.5 -38.499 30.5s-20.333 9 -33 9s-24 -5.5 -34 -16.5s-15 -28.5 -15 -52.5c0 -10.667 -5 -16 -15 -16h-15
c-8.66699 0 -13 6.66699 -13 20c0 34.667 8.5 61.334 25.5 80.001s40.167 28 69.5 28c24 0 51 -12 81 -36l18.5 -15l18.5 -15c14.667 -12 27.667 -18 39 -18c32 0 48 22.667 48 68v6c0 8 3 12 9 12z" />
    <glyph glyph-name="Adieresis" unicode="&#xc4;" horiz-adv-x="588" 
d="M246 674c6 18 18.832 27 38.499 27s32.834 -9.33301 39.501 -28l230 -646c0.666992 -2 1 -4.33301 1 -7c0 -13.333 -6.66699 -20 -20 -20h-12c-8.66699 -0 -15 4.33301 -19 13l-218 621l-219 -621c-4 -8.66699 -10.333 -13 -19 -13h-12c-13.333 0 -20 6.66699 -20 20
c0 2.66699 0.333008 5 1 7zM198.999 308h173c5.33301 0 10 -1.83301 14 -5.5s6 -8.5 6 -14.5v-9c0 -6 -2 -10.833 -6 -14.5s-8.66699 -5.5 -14 -5.5h-173c-12.667 0 -19 6.66699 -19 20v9c0 13.333 6.33301 20 19 20zM326.999 859c6 5.33301 19.833 8.00195 41.5 8.00195
s35.834 -2.83301 42.501 -8.5s10 -17.834 10 -36.501v-12c0 -20 -3.33301 -32.833 -10 -38.5s-20.834 -8.5 -42.501 -8.5s-35.5 2.83301 -41.5 8.5s-9 18.5 -9 38.5v12c0 19.333 3 31.666 9 36.999zM160.999 859.002c6 5.33301 19.833 8.00195 41.5 8.00195
s35.834 -2.83301 42.501 -8.5s10 -17.834 10 -36.501v-12c0 -20 -3.33301 -32.833 -10 -38.5s-20.834 -8.5 -42.501 -8.5s-35.5 2.66699 -41.5 8s-9 18.333 -9 39v12c0 19.333 3 31.666 9 36.999zM218.999 832.004c-2.66699 2 -7.99805 3.00098 -15.998 3.00098
s-13.167 -0.833008 -15.5 -2.5s-3.5 -5.83398 -3.5 -12.501v-10c0 -6.66699 1.16699 -10.834 3.5 -12.501s7.66602 -2.5 15.999 -2.5s13.666 0.833008 15.999 2.5s3.5 5.83398 3.5 12.501v10c0 6 -1.33301 10 -4 12zM385.001 832.005
c-2.66699 2 -7.99805 3.00098 -15.998 3.00098s-13.167 -0.833008 -15.5 -2.5s-3.5 -5.83398 -3.5 -12.501v-10c0 -6.66699 1.16699 -10.834 3.5 -12.501s7.66602 -2.5 15.999 -2.5s13.666 0.833008 15.999 2.5s3.5 5.83398 3.5 12.501v10c0 6 -1.33301 10 -4 12z" />
    <glyph glyph-name="Aring" unicode="&#xc5;" horiz-adv-x="588" 
d="M246 674c6 18 18.832 27 38.499 27s32.834 -9.33301 39.501 -28l230 -646c0.666992 -2 1 -4.33301 1 -7c0 -13.333 -6.66699 -20 -20 -20h-12c-8.66699 -0 -15 4.33301 -19 13l-218 621l-219 -621c-4 -8.66699 -10.333 -13 -19 -13h-12c-13.333 0 -20 6.66699 -20 20
c0 2.66699 0.333008 5 1 7zM198.999 308h173c5.33301 0 10 -1.83301 14 -5.5s6 -8.5 6 -14.5v-9c0 -6 -2 -10.833 -6 -14.5s-8.66699 -5.5 -14 -5.5h-173c-12.667 0 -19 6.66699 -19 20v9c0 13.333 6.33301 20 19 20zM213.999 911c17.333 14.667 41.166 22 71.499 22
s53.666 -7.33301 69.999 -22s24.5 -35.667 24.5 -63v-62c0 -27.333 -8.16699 -48.333 -24.5 -63s-39.666 -22 -69.999 -22s-54.166 7.33301 -71.499 22s-26 35.667 -26 63v62c0 27.333 8.66699 48.333 26 63zM322.999 877c-10 8.66699 -22.667 13 -38 13
s-28.333 -4.16699 -39 -12.5s-16 -20.5 -16 -36.5v-48c0 -16 5.33301 -28.167 16 -36.5s23.667 -12.5 39 -12.5s28 4.33301 38 13s15 20.667 15 36v48c0 15.333 -5 27.333 -15 36z" />
    <glyph glyph-name="AE" unicode="&#xc6;" horiz-adv-x="1088" 
d="M540 700c-14.667 0 -25 -3.16797 -31 -9.50098s-9 -16.166 -9 -29.499v-621c0 -12.667 2.5 -22.5 7.5 -29.5s15.5 -10.5 31.5 -10.5h350c5.33301 0 10 2 14 6s6 8.66699 6 14v9c0 6 -2 10.833 -6 14.5s-8.66699 5.5 -14 5.5h-339v602h339c5.33301 0 10 1.83301 14 5.5
s6 8.5 6 14.5v9c0 5.33301 -2 10 -6 14s-8.66699 6 -14 6h-349zM610 387.999h214c6 0 10.833 -2 14.5 -6s5.5 -8.66699 5.5 -14v-9c0 -13.333 -6.66699 -20 -20 -20h-214c-13.333 0 -20 6.66699 -20 20v9c0 5.33301 1.83301 10 5.5 14s8.5 6 14.5 6zM246 673.999
c6 18 18.832 27 38.499 27s32.834 -9.33301 39.501 -28l230 -646c0.666992 -2 1 -4.33301 1 -7c0 -13.333 -6.66699 -20 -20 -20h-12c-8.66699 0 -15 4.33301 -19 13l-218 621l-219 -621c-4 -8.66699 -10.333 -13 -19 -13h-12c-13.333 0 -20 6.66699 -20 20
c0 2.66699 0.333008 5 1 7zM198.999 307.999h173c5.33301 0 10 -1.83301 14 -5.5s6 -8.5 6 -14.5v-9c0 -6 -2 -10.833 -6 -14.5s-8.66699 -5.5 -14 -5.5h-173c-12.667 0 -19 6.66699 -19 20v9c0 13.333 6.33301 20 19 20z" />
    <glyph glyph-name="Ccedilla" unicode="&#xc7;" horiz-adv-x="564" 
d="M228.5 701.5c-18.333 -3 -39.332 -10.0068 -62.999 -21.0068s-44.334 -25 -62.001 -42s-32.667 -41.5 -45 -73.5s-18.5 -69 -18.5 -111v-203c0 -40.667 6.33301 -76.834 19 -108.501s28.167 -56.167 46.5 -73.5s39.666 -31.666 63.999 -42.999s46.333 -18.666 66 -21.999
s43 -5 70 -5s58.5 7 94.5 21c23.333 9.33301 43.666 21.833 60.999 37.5s32.5 38.834 45.5 69.501s19.5 66.334 19.5 107.001c0 13.333 -6.66699 20 -20 20h-8c-6 0 -10.833 -1.66699 -14.5 -5s-5.5 -10.666 -5.5 -21.999c0 -70.667 -20.667 -119 -62 -145
c-19.333 -12.667 -38.833 -21.5 -58.5 -26.5s-43.5 -7.5 -71.5 -7.5s-58 7 -90 21c-20 8.66699 -37.5 20.167 -52.5 34.5s-27.833 34.5 -38.5 60.5s-16 56 -16 90v196c0 34 4.83301 64 14.5 90s21.5 46.167 35.5 60.5s30.333 25.833 49 34.5s35.5 14.334 50.5 17.001
s34 4 57 4s47.833 -5.66699 74.5 -17c18 -7.33301 34 -16.666 48 -27.999s26.333 -27.666 37 -48.999s17.667 -46 21 -74c1.33301 -12 8 -18 20 -18h9c13.333 0 20 7.33301 20 22c-3.33301 34.667 -11.666 65.167 -24.999 91.5s-28.666 47 -45.999 62
s-36.833 27.333 -58.5 37s-41.5 16 -59.5 19s-35.833 4.5 -53.5 4.5s-35.667 -1.5 -54 -4.5zM366.001 -142.007l0.00195312 -42c0 -26.667 -9.16699 -47.5 -27.5 -62.5s-38.333 -22.5 -60 -22.5s-41 3.5 -58 10.5s-29.5 15.167 -37.5 24.5l23 38
c7.33301 -10 17.5 -17.5 30.5 -22.5s25.667 -7.5 38 -7.5s23.666 4.16699 33.999 12.5s15.5 20.5 15.5 36.5v28c0 15.333 -5.33301 27.333 -16 36s-25.334 13 -44.001 13s-31 -1 -37 -3v1l38 113l42 -1l-24 -67c25.333 -2 45.5 -10.333 60.5 -25s22.5 -34.667 22.5 -60z" />
    <glyph glyph-name="Egrave" unicode="&#xc8;" horiz-adv-x="500" 
d="M102 700l349 0.000976562c5.33301 0 10 -2 14 -6s6 -8.66699 6 -14v-9c0 -6 -2 -10.833 -6 -14.5s-8.66699 -5.5 -14 -5.5h-339v-602h339c5.33301 0 10 -1.83301 14 -5.5s6 -8.5 6 -14.5v-9c0 -5.33301 -2 -10 -6 -14s-8.66699 -6 -14 -6h-350
c-16 0 -26.5 3.5 -31.5 10.5s-7.5 16.833 -7.5 29.5v621c0 13.333 3 23.166 9 29.499s16.333 9.5 31 9.5zM172 388.001h214c6 0 10.833 -2 14.5 -6s5.5 -8.66699 5.5 -14v-9c0 -13.333 -6.66699 -20 -20 -20h-214c-13.333 0 -20 6.66699 -20 20v9
c0 5.33301 1.83301 10 5.5 14s8.5 6 14.5 6zM185 912.001c0 13.333 8.99805 20.001 26.998 20.001c9.33301 0 15.5 -1.5 18.5 -4.5s6.83301 -7.5 11.5 -13.5l107 -136c3.33301 -4 5 -7.83301 5 -11.5s-1.66699 -8 -5 -13s-10.166 -7.5 -20.499 -7.5
s-20.166 5.66699 -29.499 17l-107 133c-4.66699 5.33301 -7 10.666 -7 15.999z" />
    <glyph glyph-name="Eacute" unicode="&#xc9;" horiz-adv-x="500" 
d="M102 700l349 0.000976562c5.33301 0 10 -2 14 -6s6 -8.66699 6 -14v-9c0 -6 -2 -10.833 -6 -14.5s-8.66699 -5.5 -14 -5.5h-339v-602h339c5.33301 0 10 -1.83301 14 -5.5s6 -8.5 6 -14.5v-9c0 -5.33301 -2 -10 -6 -14s-8.66699 -6 -14 -6h-350
c-16 0 -26.5 3.5 -31.5 10.5s-7.5 16.833 -7.5 29.5v621c0 13.333 3 23.166 9 29.499s16.333 9.5 31 9.5zM172 388.001h214c6 0 10.833 -2 14.5 -6s5.5 -8.66699 5.5 -14v-9c0 -13.333 -6.66699 -20 -20 -20h-214c-13.333 0 -20 6.66699 -20 20v9
c0 5.33301 1.83301 10 5.5 14s8.5 6 14.5 6zM309 932.001c17.333 0 25.9951 -7.66699 25.9951 -23c0 -3.33301 -2.33301 -7.66602 -7 -12.999l-107 -133c-9.33301 -11.333 -19.166 -17 -29.499 -17s-17.166 2.5 -20.499 7.5s-5 9.33301 -5 13s1.66699 7.5 5 11.5l107 136
c2.66699 2.66699 4.33398 4.66699 5.00098 6s1.83398 2.83301 3.50098 4.5s2.83398 2.66699 3.50098 3s2 1.16602 4 2.49902s3.66699 1.83301 5 1.5s3 -0.333008 5 0s3.66699 0.5 5 0.5z" />
    <glyph glyph-name="Ecircumflex" unicode="&#xca;" horiz-adv-x="500" 
d="M102 700l349 0.000976562c5.33301 0 10 -2 14 -6s6 -8.66699 6 -14v-9c0 -6 -2 -10.833 -6 -14.5s-8.66699 -5.5 -14 -5.5h-339v-602h339c5.33301 0 10 -1.83301 14 -5.5s6 -8.5 6 -14.5v-9c0 -5.33301 -2 -10 -6 -14s-8.66699 -6 -14 -6h-350
c-16 0 -26.5 3.5 -31.5 10.5s-7.5 16.833 -7.5 29.5v621c0 13.333 3 23.166 9 29.499s16.333 9.5 31 9.5zM172 388.001h214c6 0 10.833 -2 14.5 -6s5.5 -8.66699 5.5 -14v-9c0 -13.333 -6.66699 -20 -20 -20h-214c-13.333 0 -20 6.66699 -20 20v9
c0 5.33301 1.83301 10 5.5 14s8.5 6 14.5 6zM212 933.001c9.33301 12.667 21.6689 19 37.002 19s27.666 -6.33301 36.999 -19l121 -152c3.33301 -4 5 -8.66699 5 -14c0 -12 -6.66699 -18 -20 -18h-13c-7.33301 0 -12.333 2 -15 6l-113 145l-2 2l-111 -147
c-2.66699 -4 -7.33398 -6 -14.001 -6h-13c-13.333 0 -20 6 -20 18c0 4 1.66699 8.66699 5 14z" />
    <glyph glyph-name="Edieresis" unicode="&#xcb;" horiz-adv-x="500" 
d="M102 700l349 0.000976562c5.33301 0 10 -2 14 -6s6 -8.66699 6 -14v-9c0 -6 -2 -10.833 -6 -14.5s-8.66699 -5.5 -14 -5.5h-339v-602h339c5.33301 0 10 -1.83301 14 -5.5s6 -8.5 6 -14.5v-9c0 -5.33301 -2 -10 -6 -14s-8.66699 -6 -14 -6h-350
c-16 0 -26.5 3.5 -31.5 10.5s-7.5 16.833 -7.5 29.5v621c0 13.333 3 23.166 9 29.499s16.333 9.5 31 9.5zM172 388.001h214c6 0 10.833 -2 14.5 -6s5.5 -8.66699 5.5 -14v-9c0 -13.333 -6.66699 -20 -20 -20h-214c-13.333 0 -20 6.66699 -20 20v9
c0 5.33301 1.83301 10 5.5 14s8.5 6 14.5 6zM291 859.001c6 5.33301 19.833 8.00195 41.5 8.00195s35.834 -2.83301 42.501 -8.5s10 -17.834 10 -36.501v-12c0 -20 -3.33301 -32.833 -10 -38.5s-20.834 -8.5 -42.501 -8.5s-35.5 2.83301 -41.5 8.5s-9 18.5 -9 38.5v12
c0 19.333 3 31.666 9 36.999zM125 859.003c6 5.33301 19.833 8.00195 41.5 8.00195s35.834 -2.83301 42.501 -8.5s10 -17.834 10 -36.501v-12c0 -20 -3.33301 -32.833 -10 -38.5s-20.834 -8.5 -42.501 -8.5s-35.5 2.66699 -41.5 8s-9 18.333 -9 39v12
c0 19.333 3 31.666 9 36.999zM183 832.005c-2.66699 2 -7.99805 3.00098 -15.998 3.00098s-13.167 -0.833008 -15.5 -2.5s-3.5 -5.83398 -3.5 -12.501v-10c0 -6.66699 1.16699 -10.834 3.5 -12.501s7.66602 -2.5 15.999 -2.5s13.666 0.833008 15.999 2.5
s3.5 5.83398 3.5 12.501v10c0 6 -1.33301 10 -4 12zM349.002 832.006c-2.66699 2 -7.99805 3.00098 -15.998 3.00098s-13.167 -0.833008 -15.5 -2.5s-3.5 -5.83398 -3.5 -12.501v-10c0 -6.66699 1.16699 -10.834 3.5 -12.501s7.66602 -2.5 15.999 -2.5
s13.666 0.833008 15.999 2.5s3.5 5.83398 3.5 12.501v10c0 6 -1.33301 10 -4 12z" />
    <glyph glyph-name="Igrave" unicode="&#xcc;" horiz-adv-x="200" 
d="M94 700h9c5.33301 0 10 -2 14 -6s6 -8.66699 6 -14v-660c0 -5.33301 -2 -10 -6 -14s-8.66699 -6 -14 -6h-9c-6 0 -10.833 2 -14.5 6s-5.5 8.66699 -5.5 14v660c0 5.33301 1.83301 10 5.5 14s8.5 6 14.5 6zM35 912c0 13.333 8.99805 20.001 26.998 20.001
c9.33301 0 15.5 -1.5 18.5 -4.5s6.83301 -7.5 11.5 -13.5l107 -136c3.33301 -4 5 -7.83301 5 -11.5s-1.66699 -8 -5 -13s-10.166 -7.5 -20.499 -7.5s-20.166 5.66699 -29.499 17l-107 133c-4.66699 5.33301 -7 10.666 -7 15.999z" />
    <glyph glyph-name="Iacute" unicode="&#xcd;" horiz-adv-x="200" 
d="M94 700h9c5.33301 0 10 -2 14 -6s6 -8.66699 6 -14v-660c0 -5.33301 -2 -10 -6 -14s-8.66699 -6 -14 -6h-9c-6 0 -10.833 2 -14.5 6s-5.5 8.66699 -5.5 14v660c0 5.33301 1.83301 10 5.5 14s8.5 6 14.5 6zM159 932c17.333 0 25.9951 -7.66699 25.9951 -23
c0 -3.33301 -2.33301 -7.66602 -7 -12.999l-107 -133c-9.33301 -11.333 -19.166 -17 -29.499 -17s-17.166 2.5 -20.499 7.5s-5 9.33301 -5 13s1.66699 7.5 5 11.5l107 136c2.66699 2.66699 4.33398 4.66699 5.00098 6s1.83398 2.83301 3.50098 4.5
s2.83398 2.66699 3.50098 3s2 1.16602 4 2.49902s3.66699 1.83301 5 1.5s3 -0.333008 5 0s3.66699 0.5 5 0.5z" />
    <glyph glyph-name="Icircumflex" unicode="&#xce;" horiz-adv-x="200" 
d="M94 700h9c5.33301 0 10 -2 14 -6s6 -8.66699 6 -14v-660c0 -5.33301 -2 -10 -6 -14s-8.66699 -6 -14 -6h-9c-6 0 -10.833 2 -14.5 6s-5.5 8.66699 -5.5 14v660c0 5.33301 1.83301 10 5.5 14s8.5 6 14.5 6zM62 933c9.33301 12.667 21.6689 19 37.002 19
s27.666 -6.33301 36.999 -19l121 -152c3.33301 -4 5 -8.66699 5 -14c0 -12 -6.66699 -18 -20 -18h-13c-7.33301 0 -12.333 2 -15 6l-113 145l-2 2l-111 -147c-2.66699 -4 -7.33398 -6 -14.001 -6h-13c-13.333 0 -20 6 -20 18c0 4 1.66699 8.66699 5 14z" />
    <glyph glyph-name="Idieresis" unicode="&#xcf;" horiz-adv-x="200" 
d="M94 700h9c5.33301 0 10 -2 14 -6s6 -8.66699 6 -14v-660c0 -5.33301 -2 -10 -6 -14s-8.66699 -6 -14 -6h-9c-6 0 -10.833 2 -14.5 6s-5.5 8.66699 -5.5 14v660c0 5.33301 1.83301 10 5.5 14s8.5 6 14.5 6zM141 859c6 5.33301 19.833 8.00195 41.5 8.00195
s35.834 -2.83301 42.501 -8.5s10 -17.834 10 -36.501v-12c0 -20 -3.33301 -32.833 -10 -38.5s-20.834 -8.5 -42.501 -8.5s-35.5 2.83301 -41.5 8.5s-9 18.5 -9 38.5v12c0 19.333 3 31.666 9 36.999zM-25 859.002c6 5.33301 19.833 8.00195 41.5 8.00195
s35.834 -2.83301 42.501 -8.5s10 -17.834 10 -36.501v-12c0 -20 -3.33301 -32.833 -10 -38.5s-20.834 -8.5 -42.501 -8.5s-35.5 2.66699 -41.5 8s-9 18.333 -9 39v12c0 19.333 3 31.666 9 36.999zM33 832.004c-2.66699 2 -7.99805 3.00098 -15.998 3.00098
s-13.167 -0.833008 -15.5 -2.5s-3.5 -5.83398 -3.5 -12.501v-10c0 -6.66699 1.16699 -10.834 3.5 -12.501s7.66602 -2.5 15.999 -2.5s13.666 0.833008 15.999 2.5s3.5 5.83398 3.5 12.501v10c0 6 -1.33301 10 -4 12zM199.002 832.005
c-2.66699 2 -7.99805 3.00098 -15.998 3.00098s-13.167 -0.833008 -15.5 -2.5s-3.5 -5.83398 -3.5 -12.501v-10c0 -6.66699 1.16699 -10.834 3.5 -12.501s7.66602 -2.5 15.999 -2.5s13.666 0.833008 15.999 2.5s3.5 5.83398 3.5 12.501v10c0 6 -1.33301 10 -4 12z" />
    <glyph glyph-name="Eth" unicode="&#xd0;" horiz-adv-x="576" 
d="M81 700h161.999c98.667 0 164.334 -24 197.001 -72c16.667 -24 28 -50.5 34 -79.5s9 -65.5 9 -109.5v-192c0 -85.333 -17.833 -147.833 -53.5 -187.5s-95.834 -59.5 -180.501 -59.5h-167c-26.667 0 -40 13.667 -40 41v619c0 14.667 2.83301 25 8.5 31s15.834 9 30.501 9z
M242.999 651h-151v-602h157c63.333 0 110 15 140 45s45 79 45 147v201c0 73.333 -13.333 126.5 -40 159.5s-77 49.5 -151 49.5zM-41.001 374h249c13.333 0 20 -6.33301 20 -19v-10c0 -12.667 -6.66699 -19 -20 -19h-249c-13.333 0 -20 6.33301 -20 19v10
c0 12.667 6.66699 19 20 19z" />
    <glyph glyph-name="Ntilde" unicode="&#xd1;" 
d="M89 702c18 0 32 -8.00098 42 -24.001l355 -609v611c0 5.33301 1.83301 10 5.5 14s8.5 6 14.5 6h10c6 0 10.833 -2 14.5 -6s5.5 -8.66699 5.5 -14v-643c0 -13.333 -3.83301 -23.166 -11.5 -29.499s-18.5 -9.5 -32.5 -9.5s-25.667 7.33301 -35 22l-355 609v-609
c0 -5.33301 -2 -10 -6 -14s-8.66699 -6 -14 -6h-11c-5.33301 0 -9.83301 2 -13.5 6s-5.5 8.66699 -5.5 14v641c0 27.333 12.333 41 37 41zM435 887.999l23.999 -0.000976562c8.66699 0 13 -5.66699 13 -17c0 -37.333 -8 -65.5 -24 -84.5s-38.667 -28.5 -68 -28.5
c-16 0 -31 4 -45 12s-29.167 19.167 -45.5 33.5s-29.166 24.5 -38.499 30.5s-20.333 9 -33 9s-24 -5.5 -34 -16.5s-15 -28.5 -15 -52.5c0 -10.667 -5 -16 -15 -16h-15c-8.66699 0 -13 6.66699 -13 20c0 34.667 8.5 61.334 25.5 80.001s40.167 28 69.5 28c24 0 51 -12 81 -36
l18.5 -15l18.5 -15c14.667 -12 27.667 -18 39 -18c32 0 48 22.667 48 68v6c0 8 3 12 9 12z" />
    <glyph glyph-name="Ograve" unicode="&#xd2;" horiz-adv-x="606" 
d="M238 696c18 2.66699 36.4971 3.99902 55.4971 3.99902s37.833 -1.5 56.5 -4.5s39.834 -9.83301 63.501 -20.5s44.167 -24.5 61.5 -41.5s32 -41 44 -72s18 -66.833 18 -107.5v-203c0 -42 -6.16699 -79 -18.5 -111s-27.333 -56.667 -45 -74s-38.167 -31.333 -61.5 -42
c-37.333 -16.667 -76.666 -25 -117.999 -25c-43.333 0 -80.166 7.33301 -110.499 22s-54.166 30.667 -71.499 48s-32 41.833 -44 73.5s-18 67.834 -18 108.501v203c0 42 6.16699 78.667 18.5 110s27.166 55.333 44.499 72s38 30.167 62 40.5s45 16.833 63 19.5z
M337.497 647.499c-14.333 2.33301 -29 3.5 -44 3.5s-29.833 -1.16699 -44.5 -3.5s-31.5 -7.66602 -50.5 -15.999s-35.5 -19.333 -49.5 -33s-25.833 -33.334 -35.5 -59.001s-14.5 -55.5 -14.5 -89.5v-196c0 -34 4.83301 -64 14.5 -90s21.667 -46.167 36 -60.5
s30.833 -25.833 49.5 -34.5s35.5 -14.334 50.5 -17.001s29.833 -4 44.5 -4s29.5 1.33301 44.5 4s31.833 8.33398 50.5 17.001s35 20.167 49 34.5s25.833 34.5 35.5 60.5s14.5 56 14.5 90v196c0 34 -5 63.833 -15 89.5s-22 45.334 -36 59.001s-30.5 24.667 -49.5 33
s-35.667 13.666 -50 15.999zM237.997 911.999c0 13.333 8.99805 20.001 26.998 20.001c9.33301 0 15.5 -1.5 18.5 -4.5s6.83301 -7.5 11.5 -13.5l107 -136c3.33301 -4 5 -7.83301 5 -11.5s-1.66699 -8 -5 -13s-10.166 -7.5 -20.499 -7.5s-20.166 5.66699 -29.499 17
l-107 133c-4.66699 5.33301 -7 10.666 -7 15.999z" />
    <glyph glyph-name="Oacute" unicode="&#xd3;" horiz-adv-x="606" 
d="M238 696c18 2.66699 36.4971 3.99902 55.4971 3.99902s37.833 -1.5 56.5 -4.5s39.834 -9.83301 63.501 -20.5s44.167 -24.5 61.5 -41.5s32 -41 44 -72s18 -66.833 18 -107.5v-203c0 -42 -6.16699 -79 -18.5 -111s-27.333 -56.667 -45 -74s-38.167 -31.333 -61.5 -42
c-37.333 -16.667 -76.666 -25 -117.999 -25c-43.333 0 -80.166 7.33301 -110.499 22s-54.166 30.667 -71.499 48s-32 41.833 -44 73.5s-18 67.834 -18 108.501v203c0 42 6.16699 78.667 18.5 110s27.166 55.333 44.499 72s38 30.167 62 40.5s45 16.833 63 19.5z
M337.497 647.499c-14.333 2.33301 -29 3.5 -44 3.5s-29.833 -1.16699 -44.5 -3.5s-31.5 -7.66602 -50.5 -15.999s-35.5 -19.333 -49.5 -33s-25.833 -33.334 -35.5 -59.001s-14.5 -55.5 -14.5 -89.5v-196c0 -34 4.83301 -64 14.5 -90s21.667 -46.167 36 -60.5
s30.833 -25.833 49.5 -34.5s35.5 -14.334 50.5 -17.001s29.833 -4 44.5 -4s29.5 1.33301 44.5 4s31.833 8.33398 50.5 17.001s35 20.167 49 34.5s25.833 34.5 35.5 60.5s14.5 56 14.5 90v196c0 34 -5 63.833 -15 89.5s-22 45.334 -36 59.001s-30.5 24.667 -49.5 33
s-35.667 13.666 -50 15.999zM361.997 931.999c17.333 0 25.9951 -7.66699 25.9951 -23c0 -3.33301 -2.33301 -7.66602 -7 -12.999l-107 -133c-9.33301 -11.333 -19.166 -17 -29.499 -17s-17.166 2.5 -20.499 7.5s-5 9.33301 -5 13s1.66699 7.5 5 11.5l107 136
c2.66699 2.66699 4.33398 4.66699 5.00098 6s1.83398 2.83301 3.50098 4.5s2.83398 2.66699 3.50098 3s2 1.16602 4 2.49902s3.66699 1.83301 5 1.5s3 -0.333008 5 0s3.66699 0.5 5 0.5z" />
    <glyph glyph-name="Ocircumflex" unicode="&#xd4;" horiz-adv-x="606" 
d="M238 696c18 2.66699 36.4971 3.99902 55.4971 3.99902s37.833 -1.5 56.5 -4.5s39.834 -9.83301 63.501 -20.5s44.167 -24.5 61.5 -41.5s32 -41 44 -72s18 -66.833 18 -107.5v-203c0 -42 -6.16699 -79 -18.5 -111s-27.333 -56.667 -45 -74s-38.167 -31.333 -61.5 -42
c-37.333 -16.667 -76.666 -25 -117.999 -25c-43.333 0 -80.166 7.33301 -110.499 22s-54.166 30.667 -71.499 48s-32 41.833 -44 73.5s-18 67.834 -18 108.501v203c0 42 6.16699 78.667 18.5 110s27.166 55.333 44.499 72s38 30.167 62 40.5s45 16.833 63 19.5z
M337.497 647.499c-14.333 2.33301 -29 3.5 -44 3.5s-29.833 -1.16699 -44.5 -3.5s-31.5 -7.66602 -50.5 -15.999s-35.5 -19.333 -49.5 -33s-25.833 -33.334 -35.5 -59.001s-14.5 -55.5 -14.5 -89.5v-196c0 -34 4.83301 -64 14.5 -90s21.667 -46.167 36 -60.5
s30.833 -25.833 49.5 -34.5s35.5 -14.334 50.5 -17.001s29.833 -4 44.5 -4s29.5 1.33301 44.5 4s31.833 8.33398 50.5 17.001s35 20.167 49 34.5s25.833 34.5 35.5 60.5s14.5 56 14.5 90v196c0 34 -5 63.833 -15 89.5s-22 45.334 -36 59.001s-30.5 24.667 -49.5 33
s-35.667 13.666 -50 15.999zM264.997 932.999c9.33301 12.667 21.6689 19 37.002 19s27.666 -6.33301 36.999 -19l121 -152c3.33301 -4 5 -8.66699 5 -14c0 -12 -6.66699 -18 -20 -18h-13c-7.33301 0 -12.333 2 -15 6l-113 145l-2 2l-111 -147
c-2.66699 -4 -7.33398 -6 -14.001 -6h-13c-13.333 0 -20 6 -20 18c0 4 1.66699 8.66699 5 14z" />
    <glyph glyph-name="Otilde" unicode="&#xd5;" horiz-adv-x="606" 
d="M238 696c18 2.66699 36.4971 3.99902 55.4971 3.99902s37.833 -1.5 56.5 -4.5s39.834 -9.83301 63.501 -20.5s44.167 -24.5 61.5 -41.5s32 -41 44 -72s18 -66.833 18 -107.5v-203c0 -42 -6.16699 -79 -18.5 -111s-27.333 -56.667 -45 -74s-38.167 -31.333 -61.5 -42
c-37.333 -16.667 -76.666 -25 -117.999 -25c-43.333 0 -80.166 7.33301 -110.499 22s-54.166 30.667 -71.499 48s-32 41.833 -44 73.5s-18 67.834 -18 108.501v203c0 42 6.16699 78.667 18.5 110s27.166 55.333 44.499 72s38 30.167 62 40.5s45 16.833 63 19.5z
M337.497 647.499c-14.333 2.33301 -29 3.5 -44 3.5s-29.833 -1.16699 -44.5 -3.5s-31.5 -7.66602 -50.5 -15.999s-35.5 -19.333 -49.5 -33s-25.833 -33.334 -35.5 -59.001s-14.5 -55.5 -14.5 -89.5v-196c0 -34 4.83301 -64 14.5 -90s21.667 -46.167 36 -60.5
s30.833 -25.833 49.5 -34.5s35.5 -14.334 50.5 -17.001s29.833 -4 44.5 -4s29.5 1.33301 44.5 4s31.833 8.33398 50.5 17.001s35 20.167 49 34.5s25.833 34.5 35.5 60.5s14.5 56 14.5 90v196c0 34 -5 63.833 -15 89.5s-22 45.334 -36 59.001s-30.5 24.667 -49.5 33
s-35.667 13.666 -50 15.999zM437.997 887.999l23.999 -0.000976562c8.66699 0 13 -5.66699 13 -17c0 -37.333 -8 -65.5 -24 -84.5s-38.667 -28.5 -68 -28.5c-16 0 -31 4 -45 12s-29.167 19.167 -45.5 33.5s-29.166 24.5 -38.499 30.5s-20.333 9 -33 9s-24 -5.5 -34 -16.5
s-15 -28.5 -15 -52.5c0 -10.667 -5 -16 -15 -16h-15c-8.66699 0 -13 6.66699 -13 20c0 34.667 8.5 61.334 25.5 80.001s40.167 28 69.5 28c24 0 51 -12 81 -36l18.5 -15l18.5 -15c14.667 -12 27.667 -18 39 -18c32 0 48 22.667 48 68v6c0 8 3 12 9 12z" />
    <glyph glyph-name="Odieresis" unicode="&#xd6;" horiz-adv-x="606" 
d="M238 696c18 2.66699 36.4971 3.99902 55.4971 3.99902s37.833 -1.5 56.5 -4.5s39.834 -9.83301 63.501 -20.5s44.167 -24.5 61.5 -41.5s32 -41 44 -72s18 -66.833 18 -107.5v-203c0 -42 -6.16699 -79 -18.5 -111s-27.333 -56.667 -45 -74s-38.167 -31.333 -61.5 -42
c-37.333 -16.667 -76.666 -25 -117.999 -25c-43.333 0 -80.166 7.33301 -110.499 22s-54.166 30.667 -71.499 48s-32 41.833 -44 73.5s-18 67.834 -18 108.501v203c0 42 6.16699 78.667 18.5 110s27.166 55.333 44.499 72s38 30.167 62 40.5s45 16.833 63 19.5z
M337.497 647.499c-14.333 2.33301 -29 3.5 -44 3.5s-29.833 -1.16699 -44.5 -3.5s-31.5 -7.66602 -50.5 -15.999s-35.5 -19.333 -49.5 -33s-25.833 -33.334 -35.5 -59.001s-14.5 -55.5 -14.5 -89.5v-196c0 -34 4.83301 -64 14.5 -90s21.667 -46.167 36 -60.5
s30.833 -25.833 49.5 -34.5s35.5 -14.334 50.5 -17.001s29.833 -4 44.5 -4s29.5 1.33301 44.5 4s31.833 8.33398 50.5 17.001s35 20.167 49 34.5s25.833 34.5 35.5 60.5s14.5 56 14.5 90v196c0 34 -5 63.833 -15 89.5s-22 45.334 -36 59.001s-30.5 24.667 -49.5 33
s-35.667 13.666 -50 15.999zM343.997 858.999c6 5.33301 19.833 8.00195 41.5 8.00195s35.834 -2.83301 42.501 -8.5s10 -17.834 10 -36.501v-12c0 -20 -3.33301 -32.833 -10 -38.5s-20.834 -8.5 -42.501 -8.5s-35.5 2.83301 -41.5 8.5s-9 18.5 -9 38.5v12
c0 19.333 3 31.666 9 36.999zM177.997 859.001c6 5.33301 19.833 8.00195 41.5 8.00195s35.834 -2.83301 42.501 -8.5s10 -17.834 10 -36.501v-12c0 -20 -3.33301 -32.833 -10 -38.5s-20.834 -8.5 -42.501 -8.5s-35.5 2.66699 -41.5 8s-9 18.333 -9 39v12
c0 19.333 3 31.666 9 36.999zM235.997 832.003c-2.66699 2 -7.99805 3.00098 -15.998 3.00098s-13.167 -0.833008 -15.5 -2.5s-3.5 -5.83398 -3.5 -12.501v-10c0 -6.66699 1.16699 -10.834 3.5 -12.501s7.66602 -2.5 15.999 -2.5s13.666 0.833008 15.999 2.5
s3.5 5.83398 3.5 12.501v10c0 6 -1.33301 10 -4 12zM401.999 832.004c-2.66699 2 -7.99805 3.00098 -15.998 3.00098s-13.167 -0.833008 -15.5 -2.5s-3.5 -5.83398 -3.5 -12.501v-10c0 -6.66699 1.16699 -10.834 3.5 -12.501s7.66602 -2.5 15.999 -2.5
s13.666 0.833008 15.999 2.5s3.5 5.83398 3.5 12.501v10c0 6 -1.33301 10 -4 12z" />
    <glyph glyph-name="multiply" unicode="&#xd7;" horiz-adv-x="421" 
d="M345.5 524c4.33301 0 9.83301 -3.33105 16.5 -9.99805s10 -12.334 10 -17.001s-2 -9.33398 -6 -14.001l-121 -121l121 -121c4 -4.66699 6 -9.66699 6 -15c0 -4.66699 -4.33301 -11.334 -13 -20.001c-4.66699 -3.33301 -9.16699 -5 -13.5 -5s-8.83301 2 -13.5 6l-121 121
l-121 -121c-5.33301 -4.66699 -10.333 -7 -15 -7s-10.167 3.5 -16.5 10.5s-9.5 12.667 -9.5 17s2.33301 8.83301 7 13.5l121 121l-122 122c-4 4.66699 -6 9.33398 -6 14.001s4 11 12 19c4.66699 4 9.66699 6 15 6l13 -5l122 -122l121 121c4.66699 4.66699 9.16699 7 13.5 7z
" />
    <glyph glyph-name="Oslash" unicode="&#xd8;" horiz-adv-x="606" 
d="M238 696c18 2.66699 36.4971 3.99902 55.4971 3.99902s37.833 -1.5 56.5 -4.5s39.834 -9.83301 63.501 -20.5s44.167 -24.5 61.5 -41.5s32 -41 44 -72s18 -66.833 18 -107.5v-203c0 -42 -6.16699 -79 -18.5 -111s-27.333 -56.667 -45 -74s-38.167 -31.333 -61.5 -42
c-37.333 -16.667 -76.666 -25 -117.999 -25c-43.333 0 -80.166 7.33301 -110.499 22s-54.166 30.667 -71.499 48s-32 41.833 -44 73.5s-18 67.834 -18 108.501v203c0 42 6.16699 78.667 18.5 110s27.166 55.333 44.499 72s38 30.167 62 40.5s45 16.833 63 19.5z
M337.497 647.499c-14.333 2.33301 -29 3.5 -44 3.5s-29.833 -1.16699 -44.5 -3.5s-31.5 -7.66602 -50.5 -15.999s-35.5 -19.333 -49.5 -33s-25.833 -33.334 -35.5 -59.001s-14.5 -55.5 -14.5 -89.5v-196c0 -34 4.83301 -64 14.5 -90s21.667 -46.167 36 -60.5
s30.833 -25.833 49.5 -34.5s35.5 -14.334 50.5 -17.001s29.833 -4 44.5 -4s29.5 1.33301 44.5 4s31.833 8.33398 50.5 17.001s35 20.167 49 34.5s25.833 34.5 35.5 60.5s14.5 56 14.5 90v196c0 34 -5 63.833 -15 89.5s-22 45.334 -36 59.001s-30.5 24.667 -49.5 33
s-35.667 13.666 -50 15.999zM420.997 698.999c11.333 0 16.999 -5.66699 16.999 -17c0 -2.66699 -0.666992 -5.66699 -2 -9l-261 -660c-5.33301 -8.66699 -10.333 -13 -15 -13h-12c-7.33301 0 -12.666 2.16699 -15.999 6.5s-5 8 -5 11s0.666992 5.83301 2 8.5l260 660
c4.66699 8.66699 11 13 19 13h13z" />
    <glyph glyph-name="Ugrave" unicode="&#xd9;" horiz-adv-x="562" 
d="M480 700l10 0.000976562c5.33301 0 10 -2 14 -6s6 -8.66699 6 -14v-429c0 -48 -8 -89.5 -24 -124.5s-36.667 -61.167 -62 -78.5c-46.667 -32.667 -94.334 -49 -143.001 -49h-12c-48.667 0 -97 16.333 -145 49c-25.333 17.333 -45.833 43.5 -61.5 78.5
s-23.5 76.5 -23.5 124.5v429c0 5.33301 1.83301 10 5.5 14s8.5 6 14.5 6h10c6 0 10.833 -2 14.5 -6s5.5 -8.66699 5.5 -14v-429c0 -39.333 6.33301 -73.166 19 -101.499s29.334 -49.5 50.001 -63.5c36 -24 73.667 -36.667 113 -38h9c38 1.33301 75.333 14.333 112 39
c20 13.333 36.333 34.166 49 62.499s19 62.166 19 101.499v429c0 5.33301 1.83301 10 5.5 14s8.5 6 14.5 6zM203 912.001c0 13.333 8.99805 20.001 26.998 20.001c9.33301 0 15.5 -1.5 18.5 -4.5s6.83301 -7.5 11.5 -13.5l107 -136c3.33301 -4 5 -7.83301 5 -11.5
s-1.66699 -8 -5 -13s-10.166 -7.5 -20.499 -7.5s-20.166 5.66699 -29.499 17l-107 133c-4.66699 5.33301 -7 10.666 -7 15.999z" />
    <glyph glyph-name="Uacute" unicode="&#xda;" horiz-adv-x="562" 
d="M480 700l10 0.000976562c5.33301 0 10 -2 14 -6s6 -8.66699 6 -14v-429c0 -48 -8 -89.5 -24 -124.5s-36.667 -61.167 -62 -78.5c-46.667 -32.667 -94.334 -49 -143.001 -49h-12c-48.667 0 -97 16.333 -145 49c-25.333 17.333 -45.833 43.5 -61.5 78.5
s-23.5 76.5 -23.5 124.5v429c0 5.33301 1.83301 10 5.5 14s8.5 6 14.5 6h10c6 0 10.833 -2 14.5 -6s5.5 -8.66699 5.5 -14v-429c0 -39.333 6.33301 -73.166 19 -101.499s29.334 -49.5 50.001 -63.5c36 -24 73.667 -36.667 113 -38h9c38 1.33301 75.333 14.333 112 39
c20 13.333 36.333 34.166 49 62.499s19 62.166 19 101.499v429c0 5.33301 1.83301 10 5.5 14s8.5 6 14.5 6zM327 932.001c17.333 0 25.9951 -7.66699 25.9951 -23c0 -3.33301 -2.33301 -7.66602 -7 -12.999l-107 -133c-9.33301 -11.333 -19.166 -17 -29.499 -17
s-17.166 2.5 -20.499 7.5s-5 9.33301 -5 13s1.66699 7.5 5 11.5l107 136c2.66699 2.66699 4.33398 4.66699 5.00098 6s1.83398 2.83301 3.50098 4.5s2.83398 2.66699 3.50098 3s2 1.16602 4 2.49902s3.66699 1.83301 5 1.5s3 -0.333008 5 0s3.66699 0.5 5 0.5z" />
    <glyph glyph-name="Ucircumflex" unicode="&#xdb;" horiz-adv-x="562" 
d="M480 700l10 0.000976562c5.33301 0 10 -2 14 -6s6 -8.66699 6 -14v-429c0 -48 -8 -89.5 -24 -124.5s-36.667 -61.167 -62 -78.5c-46.667 -32.667 -94.334 -49 -143.001 -49h-12c-48.667 0 -97 16.333 -145 49c-25.333 17.333 -45.833 43.5 -61.5 78.5
s-23.5 76.5 -23.5 124.5v429c0 5.33301 1.83301 10 5.5 14s8.5 6 14.5 6h10c6 0 10.833 -2 14.5 -6s5.5 -8.66699 5.5 -14v-429c0 -39.333 6.33301 -73.166 19 -101.499s29.334 -49.5 50.001 -63.5c36 -24 73.667 -36.667 113 -38h9c38 1.33301 75.333 14.333 112 39
c20 13.333 36.333 34.166 49 62.499s19 62.166 19 101.499v429c0 5.33301 1.83301 10 5.5 14s8.5 6 14.5 6zM230 933.001c9.33301 12.667 21.6689 19 37.002 19s27.666 -6.33301 36.999 -19l121 -152c3.33301 -4 5 -8.66699 5 -14c0 -12 -6.66699 -18 -20 -18h-13
c-7.33301 0 -12.333 2 -15 6l-113 145l-2 2l-111 -147c-2.66699 -4 -7.33398 -6 -14.001 -6h-13c-13.333 0 -20 6 -20 18c0 4 1.66699 8.66699 5 14z" />
    <glyph glyph-name="Udieresis" unicode="&#xdc;" horiz-adv-x="562" 
d="M480 700l10 0.000976562c5.33301 0 10 -2 14 -6s6 -8.66699 6 -14v-429c0 -48 -8 -89.5 -24 -124.5s-36.667 -61.167 -62 -78.5c-46.667 -32.667 -94.334 -49 -143.001 -49h-12c-48.667 0 -97 16.333 -145 49c-25.333 17.333 -45.833 43.5 -61.5 78.5
s-23.5 76.5 -23.5 124.5v429c0 5.33301 1.83301 10 5.5 14s8.5 6 14.5 6h10c6 0 10.833 -2 14.5 -6s5.5 -8.66699 5.5 -14v-429c0 -39.333 6.33301 -73.166 19 -101.499s29.334 -49.5 50.001 -63.5c36 -24 73.667 -36.667 113 -38h9c38 1.33301 75.333 14.333 112 39
c20 13.333 36.333 34.166 49 62.499s19 62.166 19 101.499v429c0 5.33301 1.83301 10 5.5 14s8.5 6 14.5 6zM309 859.001c6 5.33301 19.833 8.00195 41.5 8.00195s35.834 -2.83301 42.501 -8.5s10 -17.834 10 -36.501v-12c0 -20 -3.33301 -32.833 -10 -38.5
s-20.834 -8.5 -42.501 -8.5s-35.5 2.83301 -41.5 8.5s-9 18.5 -9 38.5v12c0 19.333 3 31.666 9 36.999zM143 859.003c6 5.33301 19.833 8.00195 41.5 8.00195s35.834 -2.83301 42.501 -8.5s10 -17.834 10 -36.501v-12c0 -20 -3.33301 -32.833 -10 -38.5
s-20.834 -8.5 -42.501 -8.5s-35.5 2.66699 -41.5 8s-9 18.333 -9 39v12c0 19.333 3 31.666 9 36.999zM201 832.005c-2.66699 2 -7.99805 3.00098 -15.998 3.00098s-13.167 -0.833008 -15.5 -2.5s-3.5 -5.83398 -3.5 -12.501v-10c0 -6.66699 1.16699 -10.834 3.5 -12.501
s7.66602 -2.5 15.999 -2.5s13.666 0.833008 15.999 2.5s3.5 5.83398 3.5 12.501v10c0 6 -1.33301 10 -4 12zM367.002 832.006c-2.66699 2 -7.99805 3.00098 -15.998 3.00098s-13.167 -0.833008 -15.5 -2.5s-3.5 -5.83398 -3.5 -12.501v-10
c0 -6.66699 1.16699 -10.834 3.5 -12.501s7.66602 -2.5 15.999 -2.5s13.666 0.833008 15.999 2.5s3.5 5.83398 3.5 12.501v10c0 6 -1.33301 10 -4 12z" />
    <glyph glyph-name="Yacute" unicode="&#xdd;" horiz-adv-x="436" 
d="M391 700h10.999c8 0 13.333 -2.5 16 -7.5s4 -9.16699 4 -12.5s-1 -6.66602 -3 -9.99902v1l-169 -308c-5.33301 -8 -9 -13 -11 -15v-328c0 -5.33301 -2 -10 -6 -14s-8.66699 -6 -14 -6h-10c-5.33301 0 -10 2 -14 6s-6 8.66699 -6 14v329
c-3.33301 3.33301 -6.33301 7.33301 -9 12l-182 309c-2 3.33301 -3 6.66602 -3 9.99902s1.33301 7.5 4 12.5s8 7.5 16 7.5h12c6.66699 0 12.334 -3 17.001 -9l170 -292l161 295c2.66699 4 8 6 16 6zM276.999 932c17.333 0 25.9951 -7.66699 25.9951 -23
c0 -3.33301 -2.33301 -7.66602 -7 -12.999l-107 -133c-9.33301 -11.333 -19.166 -17 -29.499 -17s-17.166 2.5 -20.499 7.5s-5 9.33301 -5 13s1.66699 7.5 5 11.5l107 136c2.66699 2.66699 4.33398 4.66699 5.00098 6s1.83398 2.83301 3.50098 4.5
s2.83398 2.66699 3.50098 3s2 1.16602 4 2.49902s3.66699 1.83301 5 1.5s3 -0.333008 5 0s3.66699 0.5 5 0.5z" />
    <glyph glyph-name="Thorn" unicode="&#xde;" horiz-adv-x="517" 
d="M176 590l85 0.000976562c47.333 0 91 -12 131 -36c20.667 -12.667 37.5 -31.667 50.5 -57s19.5 -55.333 19.5 -90c0 -56 -16.667 -101.5 -50 -136.5s-81 -52.5 -143 -52.5h-89c-6 0 -10.833 2 -14.5 6s-5.5 8.66699 -5.5 14v9c0 13.333 6.66699 20 20 20h80
c101.333 0 152 45.333 152 136c0 47.333 -15.5 82.166 -46.5 104.499s-66.5 33.5 -106.5 33.5h-83c-6 0 -10.833 2 -14.5 6s-5.5 8.66699 -5.5 14v9c0 13.333 6.66699 20 20 20zM95 732.001h10c5.33301 0 10 -2 14 -6s6 -8.66699 6 -14v-692c0 -5.33301 -2 -10 -6 -14
s-8.66699 -6 -14 -6h-10c-5.33301 0 -10 2 -14 6s-6 8.66699 -6 14v692c0 5.33301 2 10 6 14s8.66699 6 14 6z" />
    <glyph glyph-name="germandbls" unicode="&#xdf;" horiz-adv-x="516" 
d="M344 598c0 -35.333 -14.999 -74.667 -44.999 -118c-25.333 -35.333 -39 -56.333 -41 -63s-3 -12 -3 -16c0 -28.667 20.667 -51.667 62 -69c36.667 -12 72 -30.667 106 -56c35.333 -26 53 -64.833 53 -116.5s-16.333 -91.167 -49 -118.5s-80.667 -41 -144 -41h-89
c-6 0 -10.833 2 -14.5 6s-5.5 8.66699 -5.5 14v9c0 13.333 6.66699 20 20 20h80c47.333 0 84.5 8.66699 111.5 26s40.5 43.333 40.5 78c0 39.333 -13.333 69 -40 89c-20 15.333 -49 30 -87 44c-4.66699 2 -8.33398 3.33301 -11.001 4
c-29.333 11.333 -50.833 25.5 -64.5 42.5s-20.5 38.167 -20.5 63.5c0 16 4 30.667 12 44s16.333 26 25 38c33.333 50 50 89.333 50 118s-9.16699 50.167 -27.5 64.5s-40.833 21.5 -67.5 21.5s-47.5 -8.16699 -62.5 -24.5s-22.5 -36.833 -22.5 -61.5v-582
c0 -5.33301 -2 -10 -6 -14s-8.66699 -6 -14 -6h-10c-5.33301 0 -10 2 -14 6s-6 8.66699 -6 14l2 546v47c0 43.333 14 75 42 95s59.667 30 95 30s68.333 -10.333 99 -31s46 -55 46 -103z" />
    <glyph glyph-name="agrave" unicode="&#xe0;" horiz-adv-x="504" 
d="M121 459c32 28.667 73.6709 42.998 125.004 42.998s92.666 -14.5 123.999 -43.5s47 -69.5 47 -121.5v-220c0 -26 2.16699 -43.833 6.5 -53.5s12.833 -16.167 25.5 -19.5l11 -3c10 -2 15 -6.33301 15 -13v-11c0 -11.333 -6.66699 -17 -20 -17
c-32.667 0 -55 9.66699 -67 29s-18 49 -18 89v219c0 38 -11.667 67.167 -35 87.5s-53 30.5 -89 30.5s-66 -10.167 -90 -30.5s-36 -49.5 -36 -87.5v-171c0 -39.333 9.83301 -69 29.5 -89s48 -30 85 -30s67.5 15 91.5 45c4.66699 6 11.167 9 19.5 9s14.166 -5 17.499 -15
c2 -8 1 -15 -3 -21c-28.667 -43.333 -69.834 -65 -123.501 -65s-94.334 14.333 -122.001 43s-41.5 69.334 -41.5 122.001v172c0 52.667 16 93.334 48 122.001zM187.004 711.998c0 13.333 8.99805 20.001 26.998 20.001c9.33301 0 15.5 -1.5 18.5 -4.5
s6.83301 -7.5 11.5 -13.5l107 -136c3.33301 -4 5 -7.83301 5 -11.5s-1.66699 -8 -5 -13s-10.166 -7.5 -20.499 -7.5s-20.166 5.66699 -29.499 17l-107 133c-4.66699 5.33301 -7 10.666 -7 15.999z" />
    <glyph glyph-name="aacute" unicode="&#xe1;" horiz-adv-x="504" 
d="M121 459c32 28.667 73.6709 42.998 125.004 42.998s92.666 -14.5 123.999 -43.5s47 -69.5 47 -121.5v-220c0 -26 2.16699 -43.833 6.5 -53.5s12.833 -16.167 25.5 -19.5l11 -3c10 -2 15 -6.33301 15 -13v-11c0 -11.333 -6.66699 -17 -20 -17
c-32.667 0 -55 9.66699 -67 29s-18 49 -18 89v219c0 38 -11.667 67.167 -35 87.5s-53 30.5 -89 30.5s-66 -10.167 -90 -30.5s-36 -49.5 -36 -87.5v-171c0 -39.333 9.83301 -69 29.5 -89s48 -30 85 -30s67.5 15 91.5 45c4.66699 6 11.167 9 19.5 9s14.166 -5 17.499 -15
c2 -8 1 -15 -3 -21c-28.667 -43.333 -69.834 -65 -123.501 -65s-94.334 14.333 -122.001 43s-41.5 69.334 -41.5 122.001v172c0 52.667 16 93.334 48 122.001zM311.004 731.998c17.333 0 25.9951 -7.66699 25.9951 -23c0 -3.33301 -2.33301 -7.66602 -7 -12.999l-107 -133
c-9.33301 -11.333 -19.166 -17 -29.499 -17s-17.166 2.5 -20.499 7.5s-5 9.33301 -5 13s1.66699 7.5 5 11.5l107 136c2.66699 2.66699 4.33398 4.66699 5.00098 6s1.83398 2.83301 3.50098 4.5s2.83398 2.66699 3.50098 3s2 1.16602 4 2.49902s3.66699 1.83301 5 1.5
s3 -0.333008 5 0s3.66699 0.5 5 0.5z" />
    <glyph glyph-name="acircumflex" unicode="&#xe2;" horiz-adv-x="504" 
d="M121 459c32 28.667 73.6709 42.998 125.004 42.998s92.666 -14.5 123.999 -43.5s47 -69.5 47 -121.5v-220c0 -26 2.16699 -43.833 6.5 -53.5s12.833 -16.167 25.5 -19.5l11 -3c10 -2 15 -6.33301 15 -13v-11c0 -11.333 -6.66699 -17 -20 -17
c-32.667 0 -55 9.66699 -67 29s-18 49 -18 89v219c0 38 -11.667 67.167 -35 87.5s-53 30.5 -89 30.5s-66 -10.167 -90 -30.5s-36 -49.5 -36 -87.5v-171c0 -39.333 9.83301 -69 29.5 -89s48 -30 85 -30s67.5 15 91.5 45c4.66699 6 11.167 9 19.5 9s14.166 -5 17.499 -15
c2 -8 1 -15 -3 -21c-28.667 -43.333 -69.834 -65 -123.501 -65s-94.334 14.333 -122.001 43s-41.5 69.334 -41.5 122.001v172c0 52.667 16 93.334 48 122.001zM214.004 732.998c9.33301 12.667 21.6689 19 37.002 19s27.666 -6.33301 36.999 -19l121 -152
c3.33301 -4 5 -8.66699 5 -14c0 -12 -6.66699 -18 -20 -18h-13c-7.33301 0 -12.333 2 -15 6l-113 145l-2 2l-111 -147c-2.66699 -4 -7.33398 -6 -14.001 -6h-13c-13.333 0 -20 6 -20 18c0 4 1.66699 8.66699 5 14z" />
    <glyph glyph-name="atilde" unicode="&#xe3;" horiz-adv-x="504" 
d="M121 459c32 28.667 73.6709 42.998 125.004 42.998s92.666 -14.5 123.999 -43.5s47 -69.5 47 -121.5v-220c0 -26 2.16699 -43.833 6.5 -53.5s12.833 -16.167 25.5 -19.5l11 -3c10 -2 15 -6.33301 15 -13v-11c0 -11.333 -6.66699 -17 -20 -17
c-32.667 0 -55 9.66699 -67 29s-18 49 -18 89v219c0 38 -11.667 67.167 -35 87.5s-53 30.5 -89 30.5s-66 -10.167 -90 -30.5s-36 -49.5 -36 -87.5v-171c0 -39.333 9.83301 -69 29.5 -89s48 -30 85 -30s67.5 15 91.5 45c4.66699 6 11.167 9 19.5 9s14.166 -5 17.499 -15
c2 -8 1 -15 -3 -21c-28.667 -43.333 -69.834 -65 -123.501 -65s-94.334 14.333 -122.001 43s-41.5 69.334 -41.5 122.001v172c0 52.667 16 93.334 48 122.001zM387.004 687.998l23.999 -0.000976562c8.66699 0 13 -5.66699 13 -17c0 -37.333 -8 -65.5 -24 -84.5
s-38.667 -28.5 -68 -28.5c-16 0 -31 4 -45 12s-29.167 19.167 -45.5 33.5s-29.166 24.5 -38.499 30.5s-20.333 9 -33 9s-24 -5.5 -34 -16.5s-15 -28.5 -15 -52.5c0 -10.667 -5 -16 -15 -16h-15c-8.66699 0 -13 6.66699 -13 20c0 34.667 8.5 61.334 25.5 80.001
s40.167 28 69.5 28c24 0 51 -12 81 -36l18.5 -15l18.5 -15c14.667 -12 27.667 -18 39 -18c32 0 48 22.667 48 68v6c0 8 3 12 9 12z" />
    <glyph glyph-name="adieresis" unicode="&#xe4;" horiz-adv-x="504" 
d="M121 459c32 28.667 73.6709 42.998 125.004 42.998s92.666 -14.5 123.999 -43.5s47 -69.5 47 -121.5v-220c0 -26 2.16699 -43.833 6.5 -53.5s12.833 -16.167 25.5 -19.5l11 -3c10 -2 15 -6.33301 15 -13v-11c0 -11.333 -6.66699 -17 -20 -17
c-32.667 0 -55 9.66699 -67 29s-18 49 -18 89v219c0 38 -11.667 67.167 -35 87.5s-53 30.5 -89 30.5s-66 -10.167 -90 -30.5s-36 -49.5 -36 -87.5v-171c0 -39.333 9.83301 -69 29.5 -89s48 -30 85 -30s67.5 15 91.5 45c4.66699 6 11.167 9 19.5 9s14.166 -5 17.499 -15
c2 -8 1 -15 -3 -21c-28.667 -43.333 -69.834 -65 -123.501 -65s-94.334 14.333 -122.001 43s-41.5 69.334 -41.5 122.001v172c0 52.667 16 93.334 48 122.001zM293.004 658.998c6 5.33301 19.833 8.00195 41.5 8.00195s35.834 -2.83301 42.501 -8.5s10 -17.834 10 -36.501
v-12c0 -20 -3.33301 -32.833 -10 -38.5s-20.834 -8.5 -42.501 -8.5s-35.5 2.83301 -41.5 8.5s-9 18.5 -9 38.5v12c0 19.333 3 31.666 9 36.999zM127.004 659c6 5.33301 19.833 8.00195 41.5 8.00195s35.834 -2.83301 42.501 -8.5s10 -17.834 10 -36.501v-12
c0 -20 -3.33301 -32.833 -10 -38.5s-20.834 -8.5 -42.501 -8.5s-35.5 2.66699 -41.5 8s-9 18.333 -9 39v12c0 19.333 3 31.666 9 36.999zM185.004 632.002c-2.66699 2 -7.99805 3.00098 -15.998 3.00098s-13.167 -0.833008 -15.5 -2.5s-3.5 -5.83398 -3.5 -12.501v-10
c0 -6.66699 1.16699 -10.834 3.5 -12.501s7.66602 -2.5 15.999 -2.5s13.666 0.833008 15.999 2.5s3.5 5.83398 3.5 12.501v10c0 6 -1.33301 10 -4 12zM351.006 632.003c-2.66699 2 -7.99805 3.00098 -15.998 3.00098s-13.167 -0.833008 -15.5 -2.5
s-3.5 -5.83398 -3.5 -12.501v-10c0 -6.66699 1.16699 -10.834 3.5 -12.501s7.66602 -2.5 15.999 -2.5s13.666 0.833008 15.999 2.5s3.5 5.83398 3.5 12.501v10c0 6 -1.33301 10 -4 12z" />
    <glyph glyph-name="aring" unicode="&#xe5;" horiz-adv-x="504" 
d="M121 459c32 28.667 73.6709 42.998 125.004 42.998s92.666 -14.5 123.999 -43.5s47 -69.5 47 -121.5v-220c0 -26 2.16699 -43.833 6.5 -53.5s12.833 -16.167 25.5 -19.5l11 -3c10 -2 15 -6.33301 15 -13v-11c0 -11.333 -6.66699 -17 -20 -17
c-32.667 0 -55 9.66699 -67 29s-18 49 -18 89v219c0 38 -11.667 67.167 -35 87.5s-53 30.5 -89 30.5s-66 -10.167 -90 -30.5s-36 -49.5 -36 -87.5v-171c0 -39.333 9.83301 -69 29.5 -89s48 -30 85 -30s67.5 15 91.5 45c4.66699 6 11.167 9 19.5 9s14.166 -5 17.499 -15
c2 -8 1 -15 -3 -21c-28.667 -43.333 -69.834 -65 -123.501 -65s-94.334 14.333 -122.001 43s-41.5 69.334 -41.5 122.001v172c0 52.667 16 93.334 48 122.001zM180.004 710.998c17.333 14.667 41.166 22 71.499 22s53.666 -7.33301 69.999 -22s24.5 -35.667 24.5 -63v-62
c0 -27.333 -8.16699 -48.333 -24.5 -63s-39.666 -22 -69.999 -22s-54.166 7.33301 -71.499 22s-26 35.667 -26 63v62c0 27.333 8.66699 48.333 26 63zM289.004 676.998c-10 8.66699 -22.667 13 -38 13s-28.333 -4.16699 -39 -12.5s-16 -20.5 -16 -36.5v-48
c0 -16 5.33301 -28.167 16 -36.5s23.667 -12.5 39 -12.5s28 4.33301 38 13s15 20.667 15 36v48c0 15.333 -5 27.333 -15 36z" />
    <glyph glyph-name="ae" unicode="&#xe6;" horiz-adv-x="761" 
d="M234 502c68.667 0 117.334 -24.3369 146.001 -73.0039c30.667 48.667 81 73 151 73c50.667 0 91.667 -14.5 123 -43.5s47 -69.5 47 -121.5v-60c0 -28.667 -13.667 -43 -41 -43h-216c-6 0 -10.833 2 -14.5 6s-5.5 8.66699 -5.5 14v8c0 5.33301 1.83301 10 5.5 14
s8.5 6 14.5 6h210v54c0 38 -11.667 67.167 -35 87.5s-53 30.5 -89 30.5s-65.833 -10.167 -89.5 -30.5s-35.5 -49.5 -35.5 -87.5v-172c0 -38 11.833 -67.167 35.5 -87.5s53.334 -30.5 89.001 -30.5s65.334 9.83301 89.001 29.5s35.5 47.834 35.5 84.501
c0 5.33301 1.83301 10 5.5 14s8.16699 6 13.5 6h8c6 0 10.833 -2 14.5 -6s5.5 -8.66699 5.5 -14c-0.666992 -51.333 -16.667 -91.166 -48 -119.499s-72.333 -42.5 -123 -42.5s-92.167 14.5 -124.5 43.5s-48.5 69.5 -48.5 121.5v174c0 38 -11.667 67.167 -35 87.5
s-53 30.5 -89 30.5s-66 -10.167 -90 -30.5s-36 -49.5 -36 -87.5v-171c0 -39.333 9.83301 -69 29.5 -89s48 -30 85 -30s67.5 15 91.5 45c4.66699 6 11.167 9 19.5 9s14.166 -5 17.499 -15c2 -8 1 -15 -3 -21c-28.667 -43.333 -69.834 -65 -123.501 -65
s-94.334 14.333 -122.001 43s-41.5 69.334 -41.5 122.001v172c0 52.667 16 93.334 48 122.001s74 43 126 43z" />
    <glyph glyph-name="ccedilla" unicode="&#xe7;" horiz-adv-x="505" 
d="M118 459c32 28.667 73.665 42.999 124.998 42.999s92.666 -14.5 123.999 -43.5s47 -69.5 47 -121.5c0 -12.667 -6.66699 -19 -20 -19h-8c-12.667 0 -19 6.33301 -19 19c0 38 -11.667 67 -35 87s-53 30 -89 30s-65.833 -10.167 -89.5 -30.5s-35.5 -49.5 -35.5 -87.5v-172
c0 -38 11.833 -67.167 35.5 -87.5s53.5 -30.5 89.5 -30.5s65.5 9.83301 88.5 29.5s34.833 47.834 35.5 84.501c0 5.33301 1.83301 10 5.5 14s8.16699 6 13.5 6h8c6 0 10.833 -2 14.5 -6s5.5 -8.66699 5.5 -14c-1.33301 -50.667 -17.666 -90.334 -48.999 -119.001
s-72.166 -43 -122.499 -43s-91.666 14.5 -123.999 43.5s-48.5 69.5 -48.5 121.5v174c0 52.667 16 93.334 48 122.001zM336.998 -142.001l0.00195312 -42c0 -26.667 -9.16699 -47.5 -27.5 -62.5s-38.333 -22.5 -60 -22.5s-41 3.5 -58 10.5s-29.5 15.167 -37.5 24.5l23 38
c7.33301 -10 17.5 -17.5 30.5 -22.5s25.667 -7.5 38 -7.5s23.666 4.16699 33.999 12.5s15.5 20.5 15.5 36.5v28c0 15.333 -5.33301 27.333 -16 36s-25.334 13 -44.001 13s-31 -1 -37 -3v1l38 113l42 -1l-24 -67c25.333 -2 45.5 -10.333 60.5 -25s22.5 -34.667 22.5 -60z" />
    <glyph glyph-name="egrave" unicode="&#xe8;" horiz-adv-x="490" 
d="M118 459c32 28.667 73.666 42.9971 124.999 42.9971s92.666 -14.5 123.999 -43.5s47 -69.5 47 -121.5v-60c0 -28.667 -13.667 -43 -41 -43h-216c-6 0 -10.833 2 -14.5 6s-5.5 8.66699 -5.5 14v8c0 5.33301 1.83301 10 5.5 14s8.5 6 14.5 6h210v54
c0 38 -11.667 67.167 -35 87.5s-53 30.5 -89 30.5s-65.833 -10.167 -89.5 -30.5s-35.5 -49.5 -35.5 -87.5v-172c0 -38 11.833 -67.167 35.5 -87.5s53.334 -30.5 89.001 -30.5s65.334 9.83301 89.001 29.5s35.5 47.834 35.5 84.501c0 5.33301 1.83301 10 5.5 14
s8.16699 6 13.5 6h8c6 0 10.833 -2 14.5 -6s5.5 -8.66699 5.5 -14c-0.666992 -51.333 -16.667 -91.166 -48 -119.499s-72.333 -42.5 -123 -42.5s-92.167 14.5 -124.5 43.5s-48.5 69.5 -48.5 121.5v174c0 52.667 16 93.334 48 122.001zM179.999 711.997
c0 13.333 8.99805 20.001 26.998 20.001c9.33301 0 15.5 -1.5 18.5 -4.5s6.83301 -7.5 11.5 -13.5l107 -136c3.33301 -4 5 -7.83301 5 -11.5s-1.66699 -8 -5 -13s-10.166 -7.5 -20.499 -7.5s-20.166 5.66699 -29.499 17l-107 133c-4.66699 5.33301 -7 10.666 -7 15.999z" />
    <glyph glyph-name="eacute" unicode="&#xe9;" horiz-adv-x="490" 
d="M118 459c32 28.667 73.666 42.9971 124.999 42.9971s92.666 -14.5 123.999 -43.5s47 -69.5 47 -121.5v-60c0 -28.667 -13.667 -43 -41 -43h-216c-6 0 -10.833 2 -14.5 6s-5.5 8.66699 -5.5 14v8c0 5.33301 1.83301 10 5.5 14s8.5 6 14.5 6h210v54
c0 38 -11.667 67.167 -35 87.5s-53 30.5 -89 30.5s-65.833 -10.167 -89.5 -30.5s-35.5 -49.5 -35.5 -87.5v-172c0 -38 11.833 -67.167 35.5 -87.5s53.334 -30.5 89.001 -30.5s65.334 9.83301 89.001 29.5s35.5 47.834 35.5 84.501c0 5.33301 1.83301 10 5.5 14
s8.16699 6 13.5 6h8c6 0 10.833 -2 14.5 -6s5.5 -8.66699 5.5 -14c-0.666992 -51.333 -16.667 -91.166 -48 -119.499s-72.333 -42.5 -123 -42.5s-92.167 14.5 -124.5 43.5s-48.5 69.5 -48.5 121.5v174c0 52.667 16 93.334 48 122.001zM303.999 731.997
c17.333 0 25.9951 -7.66699 25.9951 -23c0 -3.33301 -2.33301 -7.66602 -7 -12.999l-107 -133c-9.33301 -11.333 -19.166 -17 -29.499 -17s-17.166 2.5 -20.499 7.5s-5 9.33301 -5 13s1.66699 7.5 5 11.5l107 136c2.66699 2.66699 4.33398 4.66699 5.00098 6
s1.83398 2.83301 3.50098 4.5s2.83398 2.66699 3.50098 3s2 1.16602 4 2.49902s3.66699 1.83301 5 1.5s3 -0.333008 5 0s3.66699 0.5 5 0.5z" />
    <glyph glyph-name="ecircumflex" unicode="&#xea;" horiz-adv-x="490" 
d="M118 459c32 28.667 73.666 42.9971 124.999 42.9971s92.666 -14.5 123.999 -43.5s47 -69.5 47 -121.5v-60c0 -28.667 -13.667 -43 -41 -43h-216c-6 0 -10.833 2 -14.5 6s-5.5 8.66699 -5.5 14v8c0 5.33301 1.83301 10 5.5 14s8.5 6 14.5 6h210v54
c0 38 -11.667 67.167 -35 87.5s-53 30.5 -89 30.5s-65.833 -10.167 -89.5 -30.5s-35.5 -49.5 -35.5 -87.5v-172c0 -38 11.833 -67.167 35.5 -87.5s53.334 -30.5 89.001 -30.5s65.334 9.83301 89.001 29.5s35.5 47.834 35.5 84.501c0 5.33301 1.83301 10 5.5 14
s8.16699 6 13.5 6h8c6 0 10.833 -2 14.5 -6s5.5 -8.66699 5.5 -14c-0.666992 -51.333 -16.667 -91.166 -48 -119.499s-72.333 -42.5 -123 -42.5s-92.167 14.5 -124.5 43.5s-48.5 69.5 -48.5 121.5v174c0 52.667 16 93.334 48 122.001zM206.999 732.997
c9.33301 12.667 21.6689 19 37.002 19s27.666 -6.33301 36.999 -19l121 -152c3.33301 -4 5 -8.66699 5 -14c0 -12 -6.66699 -18 -20 -18h-13c-7.33301 0 -12.333 2 -15 6l-113 145l-2 2l-111 -147c-2.66699 -4 -7.33398 -6 -14.001 -6h-13c-13.333 0 -20 6 -20 18
c0 4 1.66699 8.66699 5 14z" />
    <glyph glyph-name="edieresis" unicode="&#xeb;" horiz-adv-x="490" 
d="M118 459c32 28.667 73.666 42.9971 124.999 42.9971s92.666 -14.5 123.999 -43.5s47 -69.5 47 -121.5v-60c0 -28.667 -13.667 -43 -41 -43h-216c-6 0 -10.833 2 -14.5 6s-5.5 8.66699 -5.5 14v8c0 5.33301 1.83301 10 5.5 14s8.5 6 14.5 6h210v54
c0 38 -11.667 67.167 -35 87.5s-53 30.5 -89 30.5s-65.833 -10.167 -89.5 -30.5s-35.5 -49.5 -35.5 -87.5v-172c0 -38 11.833 -67.167 35.5 -87.5s53.334 -30.5 89.001 -30.5s65.334 9.83301 89.001 29.5s35.5 47.834 35.5 84.501c0 5.33301 1.83301 10 5.5 14
s8.16699 6 13.5 6h8c6 0 10.833 -2 14.5 -6s5.5 -8.66699 5.5 -14c-0.666992 -51.333 -16.667 -91.166 -48 -119.499s-72.333 -42.5 -123 -42.5s-92.167 14.5 -124.5 43.5s-48.5 69.5 -48.5 121.5v174c0 52.667 16 93.334 48 122.001zM285.999 658.997
c6 5.33301 19.833 8.00195 41.5 8.00195s35.834 -2.83301 42.501 -8.5s10 -17.834 10 -36.501v-12c0 -20 -3.33301 -32.833 -10 -38.5s-20.834 -8.5 -42.501 -8.5s-35.5 2.83301 -41.5 8.5s-9 18.5 -9 38.5v12c0 19.333 3 31.666 9 36.999zM119.999 658.999
c6 5.33301 19.833 8.00195 41.5 8.00195s35.834 -2.83301 42.501 -8.5s10 -17.834 10 -36.501v-12c0 -20 -3.33301 -32.833 -10 -38.5s-20.834 -8.5 -42.501 -8.5s-35.5 2.66699 -41.5 8s-9 18.333 -9 39v12c0 19.333 3 31.666 9 36.999zM177.999 632.001
c-2.66699 2 -7.99805 3.00098 -15.998 3.00098s-13.167 -0.833008 -15.5 -2.5s-3.5 -5.83398 -3.5 -12.501v-10c0 -6.66699 1.16699 -10.834 3.5 -12.501s7.66602 -2.5 15.999 -2.5s13.666 0.833008 15.999 2.5s3.5 5.83398 3.5 12.501v10c0 6 -1.33301 10 -4 12z
M344.001 632.002c-2.66699 2 -7.99805 3.00098 -15.998 3.00098s-13.167 -0.833008 -15.5 -2.5s-3.5 -5.83398 -3.5 -12.501v-10c0 -6.66699 1.16699 -10.834 3.5 -12.501s7.66602 -2.5 15.999 -2.5s13.666 0.833008 15.999 2.5s3.5 5.83398 3.5 12.501v10
c0 6 -1.33301 10 -4 12z" />
    <glyph glyph-name="igrave" unicode="&#xec;" horiz-adv-x="168" 
d="M80 501h8c5.33301 0 10 -1.83301 14 -5.5s6 -8.5 6 -14.5v-461c0 -6 -2 -10.833 -6 -14.5s-8.66699 -5.5 -14 -5.5h-8c-5.33301 -0 -10 1.83301 -14 5.5s-6 8.5 -6 14.5v461c0 6 2 10.833 6 14.5s8.66699 5.5 14 5.5zM18 712c0 13.333 8.99805 20.001 26.998 20.001
c9.33301 0 15.5 -1.5 18.5 -4.5s6.83301 -7.5 11.5 -13.5l107 -136c3.33301 -4 5 -7.83301 5 -11.5s-1.66699 -8 -5 -13s-10.166 -7.5 -20.499 -7.5s-20.166 5.66699 -29.499 17l-107 133c-4.66699 5.33301 -7 10.666 -7 15.999z" />
    <glyph glyph-name="iacute" unicode="&#xed;" horiz-adv-x="168" 
d="M80 501h8c5.33301 0 10 -1.83301 14 -5.5s6 -8.5 6 -14.5v-461c0 -6 -2 -10.833 -6 -14.5s-8.66699 -5.5 -14 -5.5h-8c-5.33301 -0 -10 1.83301 -14 5.5s-6 8.5 -6 14.5v461c0 6 2 10.833 6 14.5s8.66699 5.5 14 5.5zM142 732c17.333 0 25.9951 -7.66699 25.9951 -23
c0 -3.33301 -2.33301 -7.66602 -7 -12.999l-107 -133c-9.33301 -11.333 -19.166 -17 -29.499 -17s-17.166 2.5 -20.499 7.5s-5 9.33301 -5 13s1.66699 7.5 5 11.5l107 136c2.66699 2.66699 4.33398 4.66699 5.00098 6s1.83398 2.83301 3.50098 4.5
s2.83398 2.66699 3.50098 3s2 1.16602 4 2.49902s3.66699 1.83301 5 1.5s3 -0.333008 5 0s3.66699 0.5 5 0.5z" />
    <glyph glyph-name="icircumflex" unicode="&#xee;" horiz-adv-x="168" 
d="M80 501h8c5.33301 0 10 -1.83301 14 -5.5s6 -8.5 6 -14.5v-461c0 -6 -2 -10.833 -6 -14.5s-8.66699 -5.5 -14 -5.5h-8c-5.33301 -0 -10 1.83301 -14 5.5s-6 8.5 -6 14.5v461c0 6 2 10.833 6 14.5s8.66699 5.5 14 5.5zM45 733c9.33301 12.667 21.6689 19 37.002 19
s27.666 -6.33301 36.999 -19l121 -152c3.33301 -4 5 -8.66699 5 -14c0 -12 -6.66699 -18 -20 -18h-13c-7.33301 0 -12.333 2 -15 6l-113 145l-2 2l-111 -147c-2.66699 -4 -7.33398 -6 -14.001 -6h-13c-13.333 0 -20 6 -20 18c0 4 1.66699 8.66699 5 14z" />
    <glyph glyph-name="idieresis" unicode="&#xef;" horiz-adv-x="168" 
d="M80 501h8c5.33301 0 10 -1.83301 14 -5.5s6 -8.5 6 -14.5v-461c0 -6 -2 -10.833 -6 -14.5s-8.66699 -5.5 -14 -5.5h-8c-5.33301 -0 -10 1.83301 -14 5.5s-6 8.5 -6 14.5v461c0 6 2 10.833 6 14.5s8.66699 5.5 14 5.5zM124 659c6 5.33301 19.833 8.00195 41.5 8.00195
s35.834 -2.83301 42.501 -8.5s10 -17.834 10 -36.501v-12c0 -20 -3.33301 -32.833 -10 -38.5s-20.834 -8.5 -42.501 -8.5s-35.5 2.83301 -41.5 8.5s-9 18.5 -9 38.5v12c0 19.333 3 31.666 9 36.999zM-42 659.002c6 5.33301 19.833 8.00195 41.5 8.00195
s35.834 -2.83301 42.501 -8.5s10 -17.834 10 -36.501v-12c0 -20 -3.33301 -32.833 -10 -38.5s-20.834 -8.5 -42.501 -8.5s-35.5 2.66699 -41.5 8s-9 18.333 -9 39v12c0 19.333 3 31.666 9 36.999zM16 632.004c-2.66699 2 -7.99805 3.00098 -15.998 3.00098
s-13.167 -0.833008 -15.5 -2.5s-3.5 -5.83398 -3.5 -12.501v-10c0 -6.66699 1.16699 -10.834 3.5 -12.501s7.66602 -2.5 15.999 -2.5s13.666 0.833008 15.999 2.5s3.5 5.83398 3.5 12.501v10c0 6 -1.33301 10 -4 12zM182.002 632.005
c-2.66699 2 -7.99805 3.00098 -15.998 3.00098s-13.167 -0.833008 -15.5 -2.5s-3.5 -5.83398 -3.5 -12.501v-10c0 -6.66699 1.16699 -10.834 3.5 -12.501s7.66602 -2.5 15.999 -2.5s13.666 0.833008 15.999 2.5s3.5 5.83398 3.5 12.501v10c0 6 -1.33301 10 -4 12z" />
    <glyph glyph-name="eth" unicode="&#xf0;" 
d="M408 732l12.001 -0.000976562c12 0 18 -6.33301 18 -19v-550c0 -52 -15.833 -92.5 -47.5 -121.5s-73.167 -43.5 -124.5 -43.5s-93 14.333 -125 43s-48 69.334 -48 122.001v174c0 51.333 16 91.333 48 120s73.667 43 125 43c21.333 0 44.166 -4 68.499 -12
s42.833 -17 55.5 -27v252c0 12.667 6 19 18 19zM390.001 405.999c-38.667 30.667 -78 46 -118 46s-71.833 -10 -95.5 -30s-35.5 -49 -35.5 -87v-171c0 -38.667 11.833 -68 35.5 -88s53.5 -30 89.5 -30s65.667 10.167 89 30.5s35 49.5 35 87.5v242z" />
    <glyph glyph-name="ntilde" unicode="&#xf1;" horiz-adv-x="479" 
d="M248 502c50 0 88.333 -13.166 115 -39.499s40 -64.833 40 -115.5v-327c0 -13.333 -6.33301 -20 -19 -20h-8c-13.333 0 -20 6.66699 -20 20v316c0 79.333 -36.333 119 -109 119c-38 0 -70.333 -15 -97 -45c-7.33301 -6 -13.666 -9 -18.999 -9
c-12 0 -18.333 6.66699 -19 20c0 5.33301 1.33301 10.666 4 15.999c14 19.333 32.667 35 56 47s48.666 18 75.999 18zM79 499.001h8c5.33301 0 10 -1.83301 14 -5.5s6 -8.5 6 -14.5v-459c0 -6 -2 -10.833 -6 -14.5s-8.66699 -5.5 -14 -5.5h-8
c-5.33301 0 -10 1.83301 -14 5.5s-6 8.5 -6 14.5v459c0 6 2 10.833 6 14.5s8.66699 5.5 14 5.5zM375 688.001l23.999 -0.000976562c8.66699 0 13 -5.66699 13 -17c0 -37.333 -8 -65.5 -24 -84.5s-38.667 -28.5 -68 -28.5c-16 0 -31 4 -45 12s-29.167 19.167 -45.5 33.5
s-29.166 24.5 -38.499 30.5s-20.333 9 -33 9s-24 -5.5 -34 -16.5s-15 -28.5 -15 -52.5c0 -10.667 -5 -16 -15 -16h-15c-8.66699 0 -13 6.66699 -13 20c0 34.667 8.5 61.334 25.5 80.001s40.167 28 69.5 28c24 0 51 -12 81 -36l18.5 -15l18.5 -15
c14.667 -12 27.667 -18 39 -18c32 0 48 22.667 48 68v6c0 8 3 12 9 12z" />
    <glyph glyph-name="ograve" unicode="&#xf2;" horiz-adv-x="504" 
d="M118 459c32 28.667 73.668 42.999 125.001 42.999s92.666 -14.5 123.999 -43.5s47 -69.5 47 -121.5v-174c0 -52 -15.667 -92.5 -47 -121.5s-72.5 -43.5 -123.5 -43.5s-92.667 14.5 -125 43.5s-48.5 69.5 -48.5 121.5v174c0 52.667 16 93.334 48 122.001zM332.001 424.499
c-23.333 20.333 -53 30.5 -89 30.5s-66 -10.167 -90 -30.5s-36 -49.5 -36 -87.5v-174c0 -38 12 -67.167 36 -87.5s54 -30.5 90 -30.5s65.667 10.167 89 30.5s35 49.5 35 87.5v174c0 38 -11.667 67.167 -35 87.5zM187.001 711.999c0 13.333 8.99805 20.001 26.998 20.001
c9.33301 0 15.5 -1.5 18.5 -4.5s6.83301 -7.5 11.5 -13.5l107 -136c3.33301 -4 5 -7.83301 5 -11.5s-1.66699 -8 -5 -13s-10.166 -7.5 -20.499 -7.5s-20.166 5.66699 -29.499 17l-107 133c-4.66699 5.33301 -7 10.666 -7 15.999z" />
    <glyph glyph-name="oacute" unicode="&#xf3;" horiz-adv-x="504" 
d="M118 459c32 28.667 73.668 42.999 125.001 42.999s92.666 -14.5 123.999 -43.5s47 -69.5 47 -121.5v-174c0 -52 -15.667 -92.5 -47 -121.5s-72.5 -43.5 -123.5 -43.5s-92.667 14.5 -125 43.5s-48.5 69.5 -48.5 121.5v174c0 52.667 16 93.334 48 122.001zM332.001 424.499
c-23.333 20.333 -53 30.5 -89 30.5s-66 -10.167 -90 -30.5s-36 -49.5 -36 -87.5v-174c0 -38 12 -67.167 36 -87.5s54 -30.5 90 -30.5s65.667 10.167 89 30.5s35 49.5 35 87.5v174c0 38 -11.667 67.167 -35 87.5zM311.001 731.999c17.333 0 25.9951 -7.66699 25.9951 -23
c0 -3.33301 -2.33301 -7.66602 -7 -12.999l-107 -133c-9.33301 -11.333 -19.166 -17 -29.499 -17s-17.166 2.5 -20.499 7.5s-5 9.33301 -5 13s1.66699 7.5 5 11.5l107 136c2.66699 2.66699 4.33398 4.66699 5.00098 6s1.83398 2.83301 3.50098 4.5
s2.83398 2.66699 3.50098 3s2 1.16602 4 2.49902s3.66699 1.83301 5 1.5s3 -0.333008 5 0s3.66699 0.5 5 0.5z" />
    <glyph glyph-name="ocircumflex" unicode="&#xf4;" horiz-adv-x="504" 
d="M118 459c32 28.667 73.668 42.999 125.001 42.999s92.666 -14.5 123.999 -43.5s47 -69.5 47 -121.5v-174c0 -52 -15.667 -92.5 -47 -121.5s-72.5 -43.5 -123.5 -43.5s-92.667 14.5 -125 43.5s-48.5 69.5 -48.5 121.5v174c0 52.667 16 93.334 48 122.001zM332.001 424.499
c-23.333 20.333 -53 30.5 -89 30.5s-66 -10.167 -90 -30.5s-36 -49.5 -36 -87.5v-174c0 -38 12 -67.167 36 -87.5s54 -30.5 90 -30.5s65.667 10.167 89 30.5s35 49.5 35 87.5v174c0 38 -11.667 67.167 -35 87.5zM214.001 732.999c9.33301 12.667 21.6689 19 37.002 19
s27.666 -6.33301 36.999 -19l121 -152c3.33301 -4 5 -8.66699 5 -14c0 -12 -6.66699 -18 -20 -18h-13c-7.33301 0 -12.333 2 -15 6l-113 145l-2 2l-111 -147c-2.66699 -4 -7.33398 -6 -14.001 -6h-13c-13.333 0 -20 6 -20 18c0 4 1.66699 8.66699 5 14z" />
    <glyph glyph-name="otilde" unicode="&#xf5;" horiz-adv-x="504" 
d="M118 459c32 28.667 73.668 42.999 125.001 42.999s92.666 -14.5 123.999 -43.5s47 -69.5 47 -121.5v-174c0 -52 -15.667 -92.5 -47 -121.5s-72.5 -43.5 -123.5 -43.5s-92.667 14.5 -125 43.5s-48.5 69.5 -48.5 121.5v174c0 52.667 16 93.334 48 122.001zM332.001 424.499
c-23.333 20.333 -53 30.5 -89 30.5s-66 -10.167 -90 -30.5s-36 -49.5 -36 -87.5v-174c0 -38 12 -67.167 36 -87.5s54 -30.5 90 -30.5s65.667 10.167 89 30.5s35 49.5 35 87.5v174c0 38 -11.667 67.167 -35 87.5zM387.001 687.999l23.999 -0.000976562
c8.66699 0 13 -5.66699 13 -17c0 -37.333 -8 -65.5 -24 -84.5s-38.667 -28.5 -68 -28.5c-16 0 -31 4 -45 12s-29.167 19.167 -45.5 33.5s-29.166 24.5 -38.499 30.5s-20.333 9 -33 9s-24 -5.5 -34 -16.5s-15 -28.5 -15 -52.5c0 -10.667 -5 -16 -15 -16h-15
c-8.66699 0 -13 6.66699 -13 20c0 34.667 8.5 61.334 25.5 80.001s40.167 28 69.5 28c24 0 51 -12 81 -36l18.5 -15l18.5 -15c14.667 -12 27.667 -18 39 -18c32 0 48 22.667 48 68v6c0 8 3 12 9 12z" />
    <glyph glyph-name="odieresis" unicode="&#xf6;" horiz-adv-x="504" 
d="M118 459c32 28.667 73.668 42.999 125.001 42.999s92.666 -14.5 123.999 -43.5s47 -69.5 47 -121.5v-174c0 -52 -15.667 -92.5 -47 -121.5s-72.5 -43.5 -123.5 -43.5s-92.667 14.5 -125 43.5s-48.5 69.5 -48.5 121.5v174c0 52.667 16 93.334 48 122.001zM332.001 424.499
c-23.333 20.333 -53 30.5 -89 30.5s-66 -10.167 -90 -30.5s-36 -49.5 -36 -87.5v-174c0 -38 12 -67.167 36 -87.5s54 -30.5 90 -30.5s65.667 10.167 89 30.5s35 49.5 35 87.5v174c0 38 -11.667 67.167 -35 87.5zM293.001 658.999c6 5.33301 19.833 8.00195 41.5 8.00195
s35.834 -2.83301 42.501 -8.5s10 -17.834 10 -36.501v-12c0 -20 -3.33301 -32.833 -10 -38.5s-20.834 -8.5 -42.501 -8.5s-35.5 2.83301 -41.5 8.5s-9 18.5 -9 38.5v12c0 19.333 3 31.666 9 36.999zM127.001 659.001c6 5.33301 19.833 8.00195 41.5 8.00195
s35.834 -2.83301 42.501 -8.5s10 -17.834 10 -36.501v-12c0 -20 -3.33301 -32.833 -10 -38.5s-20.834 -8.5 -42.501 -8.5s-35.5 2.66699 -41.5 8s-9 18.333 -9 39v12c0 19.333 3 31.666 9 36.999zM185.001 632.003c-2.66699 2 -7.99805 3.00098 -15.998 3.00098
s-13.167 -0.833008 -15.5 -2.5s-3.5 -5.83398 -3.5 -12.501v-10c0 -6.66699 1.16699 -10.834 3.5 -12.501s7.66602 -2.5 15.999 -2.5s13.666 0.833008 15.999 2.5s3.5 5.83398 3.5 12.501v10c0 6 -1.33301 10 -4 12zM351.003 632.004
c-2.66699 2 -7.99805 3.00098 -15.998 3.00098s-13.167 -0.833008 -15.5 -2.5s-3.5 -5.83398 -3.5 -12.501v-10c0 -6.66699 1.16699 -10.834 3.5 -12.501s7.66602 -2.5 15.999 -2.5s13.666 0.833008 15.999 2.5s3.5 5.83398 3.5 12.501v10c0 6 -1.33301 10 -4 12z" />
    <glyph glyph-name="divide" unicode="&#xf7;" horiz-adv-x="539" 
d="M75 317h390c12.667 0 19 -6.33301 19 -19v-9c0 -5.33301 -1.83301 -10 -5.5 -14s-8.16699 -6 -13.5 -6h-390c-6 0 -10.833 2 -14.5 6s-5.5 8.66699 -5.5 14v9c0 12.667 6.66699 19 20 19zM263 502c24 0 39.667 -3.16699 47 -9.5s11 -19.5 11 -39.5v-13
c0 -22.667 -3.66699 -37 -11 -43s-23 -9 -47 -9s-39.333 3 -46 9s-10 20.333 -10 43v13c0 21.333 3.33301 34.833 10 40.5s22 8.5 46 8.5zM263 172c24 0 39.667 -3.16699 47 -9.5s11 -19.5 11 -39.5v-13c0 -22.667 -3.66699 -37 -11 -43s-23 -9 -47 -9s-39.333 3 -46 9
s-10 20.333 -10 43v13c0 21.333 3.33301 34.833 10 40.5s22 8.5 46 8.5zM281.5 133.5c-3 2.33301 -9 3.5 -18 3.5s-14.833 -1 -17.5 -3s-4 -6.66699 -4 -14v-10c0 -7.33301 1.33301 -12 4 -14s8.66699 -3 18 -3s15.333 1 18 3s4 6.66699 4 14v10
c0 6.66699 -1.5 11.167 -4.5 13.5zM281.5 463.5c-3 2.33301 -9 3.5 -18 3.5s-14.833 -1 -17.5 -3s-4 -6.66699 -4 -14v-10c0 -7.33301 1.33301 -12 4 -14s8.66699 -3 18 -3s15.333 1 18 3s4 6.66699 4 14v10c0 6.66699 -1.5 11.167 -4.5 13.5z" />
    <glyph glyph-name="oslash" unicode="&#xf8;" horiz-adv-x="483" 
d="M392 500h13.001c7.33301 0 12.166 -2 14.499 -6s3.5 -7.5 3.5 -10.5s-1 -6.16699 -3 -9.5l-311 -461c-5.33301 -8.66699 -10.333 -13 -15 -13h-12c-8 0 -13.667 2.16699 -17 6.5s-5 8 -5 11s1 5.83301 3 8.5l310 461c4.66699 8.66699 11 13 19 13zM120.001 459
c32 28.667 73.668 42.999 125.001 42.999s92.666 -14.5 123.999 -43.5s47 -69.5 47 -121.5v-174c0 -52 -15.667 -92.5 -47 -121.5s-72.5 -43.5 -123.5 -43.5s-92.667 14.5 -125 43.5s-48.5 69.5 -48.5 121.5v174c0 52.667 16 93.334 48 122.001zM334.002 424.499
c-23.333 20.333 -53 30.5 -89 30.5s-66 -10.167 -90 -30.5s-36 -49.5 -36 -87.5v-174c0 -38 12 -67.167 36 -87.5s54 -30.5 90 -30.5s65.667 10.167 89 30.5s35 49.5 35 87.5v174c0 38 -11.667 67.167 -35 87.5z" />
    <glyph glyph-name="ugrave" unicode="&#xf9;" horiz-adv-x="498" 
d="M90 502l8 0.000976562c13.333 0 20 -6.66699 20 -20v-316c0 -39.333 9.83301 -69 29.5 -89s47.5 -30 83.5 -30s67 14.333 93 43c6 7.33301 12.333 11 19 11c12.667 0 19 -7.33301 19 -22c0 -6 -1.66699 -11.333 -5 -16c-13.333 -18.667 -32 -33.834 -56 -45.501
s-49.333 -17.5 -76 -17.5c-46 0 -83.167 14.5 -111.5 43.5s-42.5 69.5 -42.5 121.5v317c0 13.333 6.33301 20 19 20zM386 500.001h10c12.667 0 19 -6.66699 19 -20v-363c0 -26 2.16699 -43.833 6.5 -53.5s12.833 -16.167 25.5 -19.5l11 -3c10 -2 15 -6.33301 15 -13v-11
c0 -11.333 -6.66699 -17 -20 -17c-32.667 0 -55.167 9.66699 -67.5 29s-18.5 49 -18.5 89v362c0 13.333 6.33301 20 19 20zM174 712.001c0 13.333 8.99805 20.001 26.998 20.001c9.33301 0 15.5 -1.5 18.5 -4.5s6.83301 -7.5 11.5 -13.5l107 -136
c3.33301 -4 5 -7.83301 5 -11.5s-1.66699 -8 -5 -13s-10.166 -7.5 -20.499 -7.5s-20.166 5.66699 -29.499 17l-107 133c-4.66699 5.33301 -7 10.666 -7 15.999z" />
    <glyph glyph-name="uacute" unicode="&#xfa;" horiz-adv-x="498" 
d="M90 502l8 0.000976562c13.333 0 20 -6.66699 20 -20v-316c0 -39.333 9.83301 -69 29.5 -89s47.5 -30 83.5 -30s67 14.333 93 43c6 7.33301 12.333 11 19 11c12.667 0 19 -7.33301 19 -22c0 -6 -1.66699 -11.333 -5 -16c-13.333 -18.667 -32 -33.834 -56 -45.501
s-49.333 -17.5 -76 -17.5c-46 0 -83.167 14.5 -111.5 43.5s-42.5 69.5 -42.5 121.5v317c0 13.333 6.33301 20 19 20zM386 500.001h10c12.667 0 19 -6.66699 19 -20v-363c0 -26 2.16699 -43.833 6.5 -53.5s12.833 -16.167 25.5 -19.5l11 -3c10 -2 15 -6.33301 15 -13v-11
c0 -11.333 -6.66699 -17 -20 -17c-32.667 0 -55.167 9.66699 -67.5 29s-18.5 49 -18.5 89v362c0 13.333 6.33301 20 19 20zM298 732.001c17.333 0 25.9951 -7.66699 25.9951 -23c0 -3.33301 -2.33301 -7.66602 -7 -12.999l-107 -133
c-9.33301 -11.333 -19.166 -17 -29.499 -17s-17.166 2.5 -20.499 7.5s-5 9.33301 -5 13s1.66699 7.5 5 11.5l107 136c2.66699 2.66699 4.33398 4.66699 5.00098 6s1.83398 2.83301 3.50098 4.5s2.83398 2.66699 3.50098 3s2 1.16602 4 2.49902s3.66699 1.83301 5 1.5
s3 -0.333008 5 0s3.66699 0.5 5 0.5z" />
    <glyph glyph-name="ucircumflex" unicode="&#xfb;" horiz-adv-x="498" 
d="M90 502l8 0.000976562c13.333 0 20 -6.66699 20 -20v-316c0 -39.333 9.83301 -69 29.5 -89s47.5 -30 83.5 -30s67 14.333 93 43c6 7.33301 12.333 11 19 11c12.667 0 19 -7.33301 19 -22c0 -6 -1.66699 -11.333 -5 -16c-13.333 -18.667 -32 -33.834 -56 -45.501
s-49.333 -17.5 -76 -17.5c-46 0 -83.167 14.5 -111.5 43.5s-42.5 69.5 -42.5 121.5v317c0 13.333 6.33301 20 19 20zM386 500.001h10c12.667 0 19 -6.66699 19 -20v-363c0 -26 2.16699 -43.833 6.5 -53.5s12.833 -16.167 25.5 -19.5l11 -3c10 -2 15 -6.33301 15 -13v-11
c0 -11.333 -6.66699 -17 -20 -17c-32.667 0 -55.167 9.66699 -67.5 29s-18.5 49 -18.5 89v362c0 13.333 6.33301 20 19 20zM201 733.001c9.33301 12.667 21.6689 19 37.002 19s27.666 -6.33301 36.999 -19l121 -152c3.33301 -4 5 -8.66699 5 -14c0 -12 -6.66699 -18 -20 -18
h-13c-7.33301 0 -12.333 2 -15 6l-113 145l-2 2l-111 -147c-2.66699 -4 -7.33398 -6 -14.001 -6h-13c-13.333 0 -20 6 -20 18c0 4 1.66699 8.66699 5 14z" />
    <glyph glyph-name="udieresis" unicode="&#xfc;" horiz-adv-x="498" 
d="M90 502l8 0.000976562c13.333 0 20 -6.66699 20 -20v-316c0 -39.333 9.83301 -69 29.5 -89s47.5 -30 83.5 -30s67 14.333 93 43c6 7.33301 12.333 11 19 11c12.667 0 19 -7.33301 19 -22c0 -6 -1.66699 -11.333 -5 -16c-13.333 -18.667 -32 -33.834 -56 -45.501
s-49.333 -17.5 -76 -17.5c-46 0 -83.167 14.5 -111.5 43.5s-42.5 69.5 -42.5 121.5v317c0 13.333 6.33301 20 19 20zM386 500.001h10c12.667 0 19 -6.66699 19 -20v-363c0 -26 2.16699 -43.833 6.5 -53.5s12.833 -16.167 25.5 -19.5l11 -3c10 -2 15 -6.33301 15 -13v-11
c0 -11.333 -6.66699 -17 -20 -17c-32.667 0 -55.167 9.66699 -67.5 29s-18.5 49 -18.5 89v362c0 13.333 6.33301 20 19 20zM280 659.001c6 5.33301 19.833 8.00195 41.5 8.00195s35.834 -2.83301 42.501 -8.5s10 -17.834 10 -36.501v-12c0 -20 -3.33301 -32.833 -10 -38.5
s-20.834 -8.5 -42.501 -8.5s-35.5 2.83301 -41.5 8.5s-9 18.5 -9 38.5v12c0 19.333 3 31.666 9 36.999zM114 659.003c6 5.33301 19.833 8.00195 41.5 8.00195s35.834 -2.83301 42.501 -8.5s10 -17.834 10 -36.501v-12c0 -20 -3.33301 -32.833 -10 -38.5
s-20.834 -8.5 -42.501 -8.5s-35.5 2.66699 -41.5 8s-9 18.333 -9 39v12c0 19.333 3 31.666 9 36.999zM172 632.005c-2.66699 2 -7.99805 3.00098 -15.998 3.00098s-13.167 -0.833008 -15.5 -2.5s-3.5 -5.83398 -3.5 -12.501v-10c0 -6.66699 1.16699 -10.834 3.5 -12.501
s7.66602 -2.5 15.999 -2.5s13.666 0.833008 15.999 2.5s3.5 5.83398 3.5 12.501v10c0 6 -1.33301 10 -4 12zM338.002 632.006c-2.66699 2 -7.99805 3.00098 -15.998 3.00098s-13.167 -0.833008 -15.5 -2.5s-3.5 -5.83398 -3.5 -12.501v-10
c0 -6.66699 1.16699 -10.834 3.5 -12.501s7.66602 -2.5 15.999 -2.5s13.666 0.833008 15.999 2.5s3.5 5.83398 3.5 12.501v10c0 6 -1.33301 10 -4 12z" />
    <glyph glyph-name="yacute" unicode="&#xfd;" horiz-adv-x="508" 
d="M383 500h9c12.667 0 19 -6.66699 19 -20v-534c0 -57.333 -15.167 -101 -45.5 -131s-71.5 -45 -123.5 -45s-92.167 13.833 -120.5 41.5s-43.166 67.167 -44.499 118.5c0 12.667 6.33301 19 19 19h9c12.667 0 19 -6.33301 19 -19
c1.33301 -36.667 13.166 -64.667 35.499 -84s50.833 -29 85.5 -29c79.333 0 119 42.667 119 128v535c0 13.333 6.33301 20 19 20zM87 502l8 0.000976562c13.333 0 20 -6.66699 20 -20v-316c0 -39.333 9.83301 -69 29.5 -89s47.5 -30 83.5 -30s67 14.333 93 43
c6 7.33301 12.333 11 19 11c12.667 0 19 -7.33301 19 -22c0 -6 -1.66699 -11.333 -5 -16c-13.333 -18.667 -32 -33.834 -56 -45.501s-49.333 -17.5 -76 -17.5c-46 0 -83.167 14.5 -111.5 43.5s-42.5 69.5 -42.5 121.5v317c0 13.333 6.33301 20 19 20zM313 732.001
c17.333 0 25.9951 -7.66699 25.9951 -23c0 -3.33301 -2.33301 -7.66602 -7 -12.999l-107 -133c-9.33301 -11.333 -19.166 -17 -29.499 -17s-17.166 2.5 -20.499 7.5s-5 9.33301 -5 13s1.66699 7.5 5 11.5l107 136c2.66699 2.66699 4.33398 4.66699 5.00098 6
s1.83398 2.83301 3.50098 4.5s2.83398 2.66699 3.50098 3s2 1.16602 4 2.49902s3.66699 1.83301 5 1.5s3 -0.333008 5 0s3.66699 0.5 5 0.5z" />
    <glyph glyph-name="thorn" unicode="&#xfe;" 
d="M80 730h7.99902c12.667 0 19 -6.33301 19 -19l-1 -252c30.667 28.667 71.667 43 123 43s93 -14.333 125 -43s48 -69.334 48 -122.001v-174c0 -51.333 -16 -91.666 -48 -120.999s-71.5 -44 -118.5 -44s-84.5 8.33301 -112.5 25v52c32 -19.333 66.833 -29 104.5 -29
s68.334 10.333 92.001 31s35.5 50 35.5 88v171c0 38.667 -11.833 68 -35.5 88s-53 30 -88 30s-64.167 -9.16699 -87.5 -27.5s-36.333 -44.833 -39 -79.5v-578c0 -12.667 -6.33301 -19 -19 -19h-9c-12.667 0 -19 6.33301 -19 19v582l2 360c1.33301 12.667 8 19 20 19z" />
    <glyph glyph-name="ydieresis" unicode="&#xff;" horiz-adv-x="508" 
d="M383 500h9c12.667 0 19 -6.66699 19 -20v-534c0 -57.333 -15.167 -101 -45.5 -131s-71.5 -45 -123.5 -45s-92.167 13.833 -120.5 41.5s-43.166 67.167 -44.499 118.5c0 12.667 6.33301 19 19 19h9c12.667 0 19 -6.33301 19 -19
c1.33301 -36.667 13.166 -64.667 35.499 -84s50.833 -29 85.5 -29c79.333 0 119 42.667 119 128v535c0 13.333 6.33301 20 19 20zM87 502l8 0.000976562c13.333 0 20 -6.66699 20 -20v-316c0 -39.333 9.83301 -69 29.5 -89s47.5 -30 83.5 -30s67 14.333 93 43
c6 7.33301 12.333 11 19 11c12.667 0 19 -7.33301 19 -22c0 -6 -1.66699 -11.333 -5 -16c-13.333 -18.667 -32 -33.834 -56 -45.501s-49.333 -17.5 -76 -17.5c-46 0 -83.167 14.5 -111.5 43.5s-42.5 69.5 -42.5 121.5v317c0 13.333 6.33301 20 19 20zM295 659.001
c6 5.33301 19.833 8.00195 41.5 8.00195s35.834 -2.83301 42.501 -8.5s10 -17.834 10 -36.501v-12c0 -20 -3.33301 -32.833 -10 -38.5s-20.834 -8.5 -42.501 -8.5s-35.5 2.83301 -41.5 8.5s-9 18.5 -9 38.5v12c0 19.333 3 31.666 9 36.999zM129 659.003
c6 5.33301 19.833 8.00195 41.5 8.00195s35.834 -2.83301 42.501 -8.5s10 -17.834 10 -36.501v-12c0 -20 -3.33301 -32.833 -10 -38.5s-20.834 -8.5 -42.501 -8.5s-35.5 2.66699 -41.5 8s-9 18.333 -9 39v12c0 19.333 3 31.666 9 36.999zM187 632.005
c-2.66699 2 -7.99805 3.00098 -15.998 3.00098s-13.167 -0.833008 -15.5 -2.5s-3.5 -5.83398 -3.5 -12.501v-10c0 -6.66699 1.16699 -10.834 3.5 -12.501s7.66602 -2.5 15.999 -2.5s13.666 0.833008 15.999 2.5s3.5 5.83398 3.5 12.501v10c0 6 -1.33301 10 -4 12z
M353.002 632.006c-2.66699 2 -7.99805 3.00098 -15.998 3.00098s-13.167 -0.833008 -15.5 -2.5s-3.5 -5.83398 -3.5 -12.501v-10c0 -6.66699 1.16699 -10.834 3.5 -12.501s7.66602 -2.5 15.999 -2.5s13.666 0.833008 15.999 2.5s3.5 5.83398 3.5 12.501v10
c0 6 -1.33301 10 -4 12z" />
    <glyph glyph-name="dotlessi" unicode="&#x131;" horiz-adv-x="168" 
d="M80 501h8c5.33301 0 10 -1.83301 14 -5.5s6 -8.5 6 -14.5v-461c0 -6 -2 -10.833 -6 -14.5s-8.66699 -5.5 -14 -5.5h-8c-5.33301 -0 -10 1.83301 -14 5.5s-6 8.5 -6 14.5v461c0 6 2 10.833 6 14.5s8.66699 5.5 14 5.5z" />
    <glyph glyph-name="Lslash" unicode="&#x141;" 
d="M101 700h10c5.33301 0 10 -2 14 -6s6 -8.66699 6 -14v-631h334c12.667 0 19 -6.66699 19 -20v-9c0 -5.33301 -1.83301 -10 -5.5 -14s-8.16699 -6 -13.5 -6h-343c-27.333 -0 -41 14.333 -41 43v637c0 5.33301 2 10 6 14s8.66699 6 14 6zM273 501
c8.66699 0 14.666 -4.99805 17.999 -14.998c1.33301 -2.66699 2 -6 2 -10c0 -8 -4.66699 -13.333 -14 -16l-98 -48c-13.333 -2.66699 -21 1.66602 -23 12.999l-2 3c-3.33301 11.333 0.666992 19.666 12 24.999l97 47c2.66699 0.666992 5.33398 1 8.00098 1zM42.999 394.002
c8.66699 0 14.665 -4.99902 17.998 -14.999c1.33301 -2.66699 2 -6 2 -10c0 -8 -4.66699 -13.333 -14 -16l-58 -34c-2.66699 -0.666992 -5 -1 -7 -1c-9.33301 0 -14.666 4.66699 -15.999 14c-2 3.33301 -3 7.66602 -3 12.999s4.33301 10.333 13 15l57 33
c2.66699 0.666992 5.33398 1 8.00098 1z" />
    <glyph glyph-name="lslash" unicode="&#x142;" horiz-adv-x="313" 
d="M130 730h7.99805c12.667 0 19 -6.33301 19 -19v-245l80 34c5.33301 2 10.333 2 15 0c9.33301 -4.66699 14 -12 14 -22s-4 -16.333 -12 -19l-97 -41v-264c0 -71.333 30.333 -107 91 -107h16c5.33301 0 9.83301 -2 13.5 -6s5.5 -8.33301 5.5 -13v-8
c0 -13.333 -12 -20 -36 -20c-45.333 0 -79.666 13 -102.999 39s-34.666 64 -33.999 114v558c0 12.667 6.66699 19 20 19zM53.998 423c3.33301 1.33301 7.33203 2.00098 11.999 2.00098s8.83398 -3.83301 12.501 -11.5s5.5 -13.167 5.5 -16.5c0 -6 -4 -10.667 -12 -14
l-29 -12c-4 -1.33301 -8.66699 -2 -14 -2c-6.66699 0 -11.667 5 -15 15c-1.33301 3.33301 -2 7.66602 -2 12.999s4.33301 10 13 14z" />
    <glyph glyph-name="OE" unicode="&#x152;" horiz-adv-x="1106" 
d="M527 700l349 0.000976562c5.33301 0 10 -2 14 -6s6 -8.66699 6 -14v-9c0 -6 -2 -10.833 -6 -14.5s-8.66699 -5.5 -14 -5.5h-339v-602h339c5.33301 0 10 -1.83301 14 -5.5s6 -8.5 6 -14.5v-9c0 -5.33301 -2 -10 -6 -14s-8.66699 -6 -14 -6h-350
c-16 0 -26.5 3.5 -31.5 10.5s-7.5 16.833 -7.5 29.5v621c0 13.333 3 23.166 9 29.499s16.333 9.5 31 9.5zM597 388.001h214c6 0 10.833 -2 14.5 -6s5.5 -8.66699 5.5 -14v-9c0 -13.333 -6.66699 -20 -20 -20h-214c-13.333 0 -20 6.66699 -20 20v9
c0 5.33301 1.83301 10 5.5 14s8.5 6 14.5 6zM238 696.001c18 2.66699 36.4971 3.99902 55.4971 3.99902s37.833 -1.5 56.5 -4.5s39.834 -9.83301 63.501 -20.5s44.167 -24.5 61.5 -41.5s32 -41 44 -72s18 -66.833 18 -107.5v-203c0 -42 -6.16699 -79 -18.5 -111
s-27.333 -56.667 -45 -74s-38.167 -31.333 -61.5 -42c-37.333 -16.667 -76.666 -25 -117.999 -25c-43.333 0 -80.166 7.33301 -110.499 22s-54.166 30.667 -71.499 48s-32 41.833 -44 73.5s-18 67.834 -18 108.501v203c0 42 6.16699 78.667 18.5 110
s27.166 55.333 44.499 72s38 30.167 62 40.5s45 16.833 63 19.5zM337.497 647.5c-14.333 2.33301 -29 3.5 -44 3.5s-29.833 -1.16699 -44.5 -3.5s-31.5 -7.66602 -50.5 -15.999s-35.5 -19.333 -49.5 -33s-25.833 -33.334 -35.5 -59.001s-14.5 -55.5 -14.5 -89.5v-196
c0 -34 4.83301 -64 14.5 -90s21.667 -46.167 36 -60.5s30.833 -25.833 49.5 -34.5s35.5 -14.334 50.5 -17.001s29.833 -4 44.5 -4s29.5 1.33301 44.5 4s31.833 8.33398 50.5 17.001s35 20.167 49 34.5s25.833 34.5 35.5 60.5s14.5 56 14.5 90v196c0 34 -5 63.833 -15 89.5
s-22 45.334 -36 59.001s-30.5 24.667 -49.5 33s-35.667 13.666 -50 15.999z" />
    <glyph glyph-name="oe" unicode="&#x153;" horiz-adv-x="762" 
d="M406 459c32 28.667 73.666 42.9971 124.999 42.9971s92.666 -14.5 123.999 -43.5s47 -69.5 47 -121.5v-60c0 -28.667 -13.667 -43 -41 -43h-216c-6 0 -10.833 2 -14.5 6s-5.5 8.66699 -5.5 14v8c0 5.33301 1.83301 10 5.5 14s8.5 6 14.5 6h210v54
c0 38 -11.667 67.167 -35 87.5s-53 30.5 -89 30.5s-65.833 -10.167 -89.5 -30.5s-35.5 -49.5 -35.5 -87.5v-172c0 -38 11.833 -67.167 35.5 -87.5s53.334 -30.5 89.001 -30.5s65.334 9.83301 89.001 29.5s35.5 47.834 35.5 84.501c0 5.33301 1.83301 10 5.5 14
s8.16699 6 13.5 6h8c6 0 10.833 -2 14.5 -6s5.5 -8.66699 5.5 -14c-0.666992 -51.333 -16.667 -91.166 -48 -119.499s-72.333 -42.5 -123 -42.5s-92.167 14.5 -124.5 43.5s-48.5 69.5 -48.5 121.5v174c0 52.667 16 93.334 48 122.001zM107.999 458.997
c32 28.667 73.668 42.999 125.001 42.999s92.666 -14.5 123.999 -43.5s47 -69.5 47 -121.5v-174c0 -52 -15.667 -92.5 -47 -121.5s-72.5 -43.5 -123.5 -43.5s-92.667 14.5 -125 43.5s-48.5 69.5 -48.5 121.5v174c0 52.667 16 93.334 48 122.001zM322 424.496
c-23.333 20.333 -53 30.5 -89 30.5s-66 -10.167 -90 -30.5s-36 -49.5 -36 -87.5v-174c0 -38 12 -67.167 36 -87.5s54 -30.5 90 -30.5s65.667 10.167 89 30.5s35 49.5 35 87.5v174c0 38 -11.667 67.167 -35 87.5z" />
    <glyph glyph-name="Scaron" unicode="&#x160;" horiz-adv-x="557" 
d="M138 654c35.333 32 83.502 47.9971 144.502 47.9971s112.333 -16.167 154 -48.5s63.834 -80.5 66.501 -144.5c0 -5.33301 -2 -10.166 -6 -14.499s-8.66699 -6.5 -14 -6.5h-10c-4.66699 0 -9 1.83301 -13 5.5s-6.33301 8.16699 -7 13.5c-2 50.667 -19 87.5 -51 110.5
s-70.333 34.5 -115 34.5c-48 0 -85.333 -11 -112 -33s-40 -49.167 -40 -81.5s9.33301 -58.166 28 -77.499c26 -26 74.333 -52.667 145 -80c84 -33.333 140 -66.666 168 -99.999c21.333 -25.333 32 -61.666 32 -108.999s-19.167 -87.833 -57.5 -121.5
s-92.833 -50.5 -163.5 -50.5c-52.667 0 -102.334 14.333 -149.001 43c-24.667 15.333 -44.834 36.833 -60.501 64.5s-24.167 59.5 -25.5 95.5c0 14 6.66699 21 20 21h9c12 0 18.667 -6.33301 20 -19c1.33301 -29.333 8.66602 -54.833 21.999 -76.5s30 -37.834 50 -48.501
c38.667 -20.667 81.167 -31 127.5 -31s84.333 12.167 114 36.5s44.5 54.833 44.5 91.5c0 37.333 -12 66 -36 86c-19.333 16 -40.333 29.667 -63 41c-29.333 14 -75.333 33.667 -138 59c-48 21.333 -82.833 45.833 -104.5 73.5s-32.5 63 -32.5 106s17.667 80.5 53 112.5z
M380.502 881.497c9.66699 7.66699 18.8359 11.498 27.5029 11.498s14.667 -4 18 -12c1.33301 -2.66699 2 -5.83398 2 -9.50098s-2 -7.16699 -6 -10.5l-107 -105c-0.666992 -0.666992 -2.33398 -2.16699 -5.00098 -4.5s-4.66699 -4.16602 -6 -5.49902
s-3.33301 -2.66602 -6 -3.99902c-4.66699 -3.33301 -11 -5 -19 -5h-2c-10.667 0 -17.834 1.83301 -21.501 5.5s-6.83398 6.66699 -9.50098 9s-4.33398 3.83301 -5.00098 4.5l-107 105c-4 3.33301 -6 6.83301 -6 10.5s0.666992 6.83398 2 9.50098c3.33301 8 9.33301 12 18 12
s17.834 -3.83301 27.501 -11.5s43.167 -37.5 100.5 -89.5l2 -2l2 2c57.333 52 90.833 81.833 100.5 89.5z" />
    <glyph glyph-name="scaron" unicode="&#x161;" horiz-adv-x="455" 
d="M113.5 464c25.667 25.333 64.001 37.999 115.001 37.999s90.167 -12.5 117.5 -37.5s41 -61.833 41 -110.5c0 -5.33301 -1.83301 -9.83301 -5.5 -13.5s-8.16699 -5.5 -13.5 -5.5h-9c-5.33301 0 -9.83301 1.83301 -13.5 5.5s-5.5 7.83398 -5.5 12.501
c0 67.333 -37.667 101 -113 101c-34.667 0 -60.834 -8.33301 -78.501 -25s-26.5 -37.667 -26.5 -63s8.5 -45.5 25.5 -60.5s49.167 -27.167 96.5 -36.5s84.333 -24 111 -44s40 -49.833 40 -89.5s-14.5 -72.667 -43.5 -99s-69.333 -39.5 -121 -39.5s-93.5 13.167 -125.5 39.5
s-48 65.166 -48 116.499c0 14 6.66699 21 20 21h8c12.667 0 19 -6.66699 19 -20c0 -72.667 43 -109 129 -109c38.667 0 67.5 8.83301 86.5 26.5s28.5 39.5 28.5 65.5s-10 44.833 -30 56.5s-54.833 22.834 -104.5 33.501s-85.167 27.667 -106.5 51s-32 53.833 -32 91.5
s12.833 69.167 38.5 94.5zM329.501 681.499c9.66699 7.66699 18.8359 11.498 27.5029 11.498s14.667 -4 18 -12c1.33301 -2.66699 2 -5.83398 2 -9.50098s-2 -7.16699 -6 -10.5l-107 -105c-0.666992 -0.666992 -2.33398 -2.16699 -5.00098 -4.5
s-4.66699 -4.16602 -6 -5.49902s-3.33301 -2.66602 -6 -3.99902c-4.66699 -3.33301 -11 -5 -19 -5h-2c-10.667 0 -17.834 1.83301 -21.501 5.5s-6.83398 6.66699 -9.50098 9s-4.33398 3.83301 -5.00098 4.5l-107 105c-4 3.33301 -6 6.83301 -6 10.5
s0.666992 6.83398 2 9.50098c3.33301 8 9.33301 12 18 12s17.834 -3.83301 27.501 -11.5s43.167 -37.5 100.5 -89.5l2 -2l2 2c57.333 52 90.833 81.833 100.5 89.5z" />
    <glyph glyph-name="Ydieresis" unicode="&#x178;" horiz-adv-x="436" 
d="M391 700h10.999c8 0 13.333 -2.5 16 -7.5s4 -9.16699 4 -12.5s-1 -6.66602 -3 -9.99902v1l-169 -308c-5.33301 -8 -9 -13 -11 -15v-328c0 -5.33301 -2 -10 -6 -14s-8.66699 -6 -14 -6h-10c-5.33301 0 -10 2 -14 6s-6 8.66699 -6 14v329
c-3.33301 3.33301 -6.33301 7.33301 -9 12l-182 309c-2 3.33301 -3 6.66602 -3 9.99902s1.33301 7.5 4 12.5s8 7.5 16 7.5h12c6.66699 0 12.334 -3 17.001 -9l170 -292l161 295c2.66699 4 8 6 16 6zM258.999 859c6 5.33301 19.833 8.00195 41.5 8.00195
s35.834 -2.83301 42.501 -8.5s10 -17.834 10 -36.501v-12c0 -20 -3.33301 -32.833 -10 -38.5s-20.834 -8.5 -42.501 -8.5s-35.5 2.83301 -41.5 8.5s-9 18.5 -9 38.5v12c0 19.333 3 31.666 9 36.999zM92.999 859.002c6 5.33301 19.833 8.00195 41.5 8.00195
s35.834 -2.83301 42.501 -8.5s10 -17.834 10 -36.501v-12c0 -20 -3.33301 -32.833 -10 -38.5s-20.834 -8.5 -42.501 -8.5s-35.5 2.66699 -41.5 8s-9 18.333 -9 39v12c0 19.333 3 31.666 9 36.999zM150.999 832.004c-2.66699 2 -7.99805 3.00098 -15.998 3.00098
s-13.167 -0.833008 -15.5 -2.5s-3.5 -5.83398 -3.5 -12.501v-10c0 -6.66699 1.16699 -10.834 3.5 -12.501s7.66602 -2.5 15.999 -2.5s13.666 0.833008 15.999 2.5s3.5 5.83398 3.5 12.501v10c0 6 -1.33301 10 -4 12zM317.001 832.005
c-2.66699 2 -7.99805 3.00098 -15.998 3.00098s-13.167 -0.833008 -15.5 -2.5s-3.5 -5.83398 -3.5 -12.501v-10c0 -6.66699 1.16699 -10.834 3.5 -12.501s7.66602 -2.5 15.999 -2.5s13.666 0.833008 15.999 2.5s3.5 5.83398 3.5 12.501v10c0 6 -1.33301 10 -4 12z" />
    <glyph glyph-name="Zcaron" unicode="&#x17d;" horiz-adv-x="552" 
d="M43 37c0 8.66699 5.33301 21 16 37v1l364 576h-372c-5.33301 0 -10 1.83301 -14 5.5s-6 8.5 -6 14.5v9c0 5.33301 2 10 6 14s8.66699 6 14 6h390c28 0 42 -11.667 42 -35c0 -12 -4.66699 -24 -14 -36v1l-3 -3l1 -2l-366 -576h393c5.33301 0 10 -1.83301 14 -5.5
s6 -8.5 6 -14.5v-9c0 -5.33301 -2 -10 -6 -14s-8.66699 -6 -14 -6h-411c-26.667 -0 -40 12.333 -40 37zM377.5 881.5c9.66699 7.66699 18.8359 11.498 27.5029 11.498s14.667 -4 18 -12c1.33301 -2.66699 2 -5.83398 2 -9.50098s-2 -7.16699 -6 -10.5l-107 -105
c-0.666992 -0.666992 -2.33398 -2.16699 -5.00098 -4.5s-4.66699 -4.16602 -6 -5.49902s-3.33301 -2.66602 -6 -3.99902c-4.66699 -3.33301 -11 -5 -19 -5h-2c-10.667 0 -17.834 1.83301 -21.501 5.5s-6.83398 6.66699 -9.50098 9s-4.33398 3.83301 -5.00098 4.5l-107 105
c-4 3.33301 -6 6.83301 -6 10.5s0.666992 6.83398 2 9.50098c3.33301 8 9.33301 12 18 12s17.834 -3.83301 27.501 -11.5s43.167 -37.5 100.5 -89.5l2 -2l2 2c57.333 52 90.833 81.833 100.5 89.5z" />
    <glyph glyph-name="zcaron" unicode="&#x17e;" horiz-adv-x="456" 
d="M74 500h265c26.667 0 40 -11.667 40 -35c0 -10 -5.66699 -22.667 -17 -38l-252 -380h255c12.667 0 19 -6.33301 19 -19v-8c0 -13.333 -6.33301 -20 -19 -20h-274c-11.333 -0 -20.333 3.33301 -27 10s-10 15 -10 25s5.66699 23 17 39l249 379h-246
c-12.667 0 -19 6.33301 -19 19v8c0 13.333 6.33301 20 19 20zM329.5 681.5c9.66699 7.66699 18.8359 11.498 27.5029 11.498s14.667 -4 18 -12c1.33301 -2.66699 2 -5.83398 2 -9.50098s-2 -7.16699 -6 -10.5l-107 -105
c-0.666992 -0.666992 -2.33398 -2.16699 -5.00098 -4.5s-4.66699 -4.16602 -6 -5.49902s-3.33301 -2.66602 -6 -3.99902c-4.66699 -3.33301 -11 -5 -19 -5h-2c-10.667 0 -17.834 1.83301 -21.501 5.5s-6.83398 6.66699 -9.50098 9s-4.33398 3.83301 -5.00098 4.5l-107 105
c-4 3.33301 -6 6.83301 -6 10.5s0.666992 6.83398 2 9.50098c3.33301 8 9.33301 12 18 12s17.834 -3.83301 27.501 -11.5s43.167 -37.5 100.5 -89.5l2 -2l2 2c57.333 52 90.833 81.833 100.5 89.5z" />
    <glyph glyph-name="florin" unicode="&#x192;" horiz-adv-x="423" 
d="M63 379l57.998 0.000976562c2 0 3.66699 -0.333008 5 -1l11 144c4.66699 57.333 17.334 101 38.001 131c22 32 60.667 48 116 48c16 0 34.833 -1.83301 56.5 -5.5s33.834 -6.83398 36.501 -9.50098s4 -8 4 -16v-23c0 -7.33301 -4.33301 -9.66602 -13 -6.99902
c-26 8.66699 -54.167 13 -84.5 13s-54 -10.5 -71 -31.5s-27.5 -59.167 -31.5 -114.5l-45 -680c-0.666992 -12 -11 -18 -31 -18c-9.33301 0 -16.5 1.16699 -21.5 3.5s-7.16699 7.16602 -6.5 14.499l38 504h-59c-8.66699 0 -13 6.33301 -13 19v9c0 13.333 4.33301 20 13 20z
M211.998 379.001h133c8 0 12 -6.66699 12 -20v-9c0 -12.667 -4 -19 -12 -19h-133c-8 0 -12 6.33301 -12 19v9c0 13.333 4 20 12 20z" />
    <glyph glyph-name="circumflex" unicode="&#x2c6;" horiz-adv-x="441" 
d="M181 733c9.33301 12.667 21.6689 19 37.002 19s27.666 -6.33301 36.999 -19l121 -152c3.33301 -4 5 -8.66699 5 -14c0 -12 -6.66699 -18 -20 -18h-13c-7.33301 0 -12.333 2 -15 6l-113 145l-2 2l-111 -147c-2.66699 -4 -7.33398 -6 -14.001 -6h-13
c-13.333 0 -20 6 -20 18c0 4 1.66699 8.66699 5 14z" />
    <glyph glyph-name="caron" unicode="&#x2c7;" 
d="M400.5 681.5c9.66699 7.66699 18.8359 11.498 27.5029 11.498s14.667 -4 18 -12c1.33301 -2.66699 2 -5.83398 2 -9.50098s-2 -7.16699 -6 -10.5l-107 -105c-0.666992 -0.666992 -2.33398 -2.16699 -5.00098 -4.5s-4.66699 -4.16602 -6 -5.49902
s-3.33301 -2.66602 -6 -3.99902c-4.66699 -3.33301 -11 -5 -19 -5h-2c-10.667 0 -17.834 1.83301 -21.501 5.5s-6.83398 6.66699 -9.50098 9s-4.33398 3.83301 -5.00098 4.5l-107 105c-4 3.33301 -6 6.83301 -6 10.5s0.666992 6.83398 2 9.50098c3.33301 8 9.33301 12 18 12
s17.834 -3.83301 27.501 -11.5s43.167 -37.5 100.5 -89.5l2 -2l2 2c57.333 52 90.833 81.833 100.5 89.5z" />
    <glyph glyph-name="breve" unicode="&#x2d8;" 
d="M450 675c0 -38 -19.3359 -69.666 -58.0029 -94.999c-27.333 -18 -52 -27 -74 -27s-41.167 2.83301 -57.5 8.5s-35.666 20.167 -57.999 43.5s-33.5 46.666 -33.5 69.999c0 2 0.333008 3.33301 1 4l31 14c1.33301 0.666992 2.83301 1 4.5 1s2.83398 -1.33301 3.50098 -4
c7.33301 -24 20.333 -43.167 39 -57.5s39.334 -21.5 62.001 -21.5s43.167 7.16699 61.5 21.5s31.166 33.5 38.499 57.5c0.666992 2.66699 1.83398 4 3.50098 4s3.16699 -0.333008 4.5 -1l31 -14c0.666992 -0.666992 1 -2 1 -4z" />
    <glyph glyph-name="dotaccent" unicode="&#x2d9;" 
d="M240 663.5c6.66699 5.66699 21.834 8.5 45.501 8.5s39.167 -3.16699 46.5 -9.5s11 -19.5 11 -39.5v-13c0 -22.667 -3.66699 -37 -11 -43s-22.833 -9 -46.5 -9s-38.834 3 -45.501 9s-10 20.333 -10 43v13c0 21.333 3.33301 34.833 10 40.5z" />
    <glyph glyph-name="ring" unicode="&#x2da;" 
d="M211 711c17.333 14.667 41.166 22 71.499 22s53.666 -7.33301 69.999 -22s24.5 -35.667 24.5 -63v-62c0 -27.333 -8.16699 -48.333 -24.5 -63s-39.666 -22 -69.999 -22s-54.166 7.33301 -71.499 22s-26 35.667 -26 63v62c0 27.333 8.66699 48.333 26 63zM320 677
c-10 8.66699 -22.667 13 -38 13s-28.333 -4.16699 -39 -12.5s-16 -20.5 -16 -36.5v-48c0 -16 5.33301 -28.167 16 -36.5s23.667 -12.5 39 -12.5s28 4.33301 38 13s15 20.667 15 36v48c0 15.333 -5 27.333 -15 36z" />
    <glyph glyph-name="ogonek" unicode="&#x2db;" horiz-adv-x="372" 
d="M206 -126c16.667 0 32.999 3.33398 48.999 10.001c2 0 3 -6.16699 3 -18.5s-0.666992 -18.833 -2 -19.5c-13.333 -6.66699 -30.333 -10 -51 -10c-37.333 0 -64.333 8 -81 24s-25 34.167 -25 54.5s5.16699 39.166 15.5 56.499s20.333 30.5 30 39.5
s19.834 17.5 30.501 25.5s18 12 22 12s8.5 -2.5 13.5 -7.5s5.83301 -8.83301 2.5 -11.5c-44 -40.667 -66 -74.667 -66 -102c0 -35.333 19.667 -53 59 -53z" />
    <glyph glyph-name="tilde" unicode="&#x2dc;" 
d="M415 688l23.999 -0.000976562c8.66699 0 13 -5.66699 13 -17c0 -37.333 -8 -65.5 -24 -84.5s-38.667 -28.5 -68 -28.5c-16 0 -31 4 -45 12s-29.167 19.167 -45.5 33.5s-29.166 24.5 -38.499 30.5s-20.333 9 -33 9s-24 -5.5 -34 -16.5s-15 -28.5 -15 -52.5
c0 -10.667 -5 -16 -15 -16h-15c-8.66699 0 -13 6.66699 -13 20c0 34.667 8.5 61.334 25.5 80.001s40.167 28 69.5 28c24 0 51 -12 81 -36l18.5 -15l18.5 -15c14.667 -12 27.667 -18 39 -18c32 0 48 22.667 48 68v6c0 8 3 12 9 12z" />
    <glyph glyph-name="hungarumlaut" unicode="&#x2dd;" 
d="M407 762c12 0 18 -6 18 -18c0 -6 -2.33301 -11.667 -7 -17l-147 -161c-8.66699 -8.66699 -19 -13 -31 -13h-2c-8.66699 0 -14.167 3.83301 -16.5 11.5s-0.5 15.167 5.5 22.5l127 165c2.66699 2 18 5.33301 46 10h7zM95 553c-11.333 0 -17 6.00098 -17 18.001
c0 5.33301 2 10.666 6 15.999l127 165c2.66699 2 18 5.33301 46 10h7c12 0 18 -6 18 -18c0 -6 -2.33301 -11.667 -7 -17l-147 -161c-8.66699 -8.66699 -19 -13 -31 -13h-2z" />
    <glyph glyph-name="pi" unicode="&#x3c0;" 
d="M369 438l7.99902 -0.00195312c5.33301 0 10 -1.83301 14 -5.5s6 -8.5 6 -14.5v-301c0 -28.667 4.66699 -48 14 -58s22.666 -15.667 39.999 -17s27.333 -2.66602 30 -3.99902s4 -4.66602 4 -9.99902v-11c0 -7.33301 -2.66699 -12.333 -8 -15
c-3.33301 -1.33301 -10.666 -2 -21.999 -2c-39.333 0 -66.666 9 -81.999 27s-23 48.333 -23 91v300c0 13.333 6.33301 20 19 20zM181.999 438.998h8c5.33301 0 10 -1.83301 14 -5.5s6 -8.5 6 -14.5v-399c0 -6 -2 -10.833 -6 -14.5s-8.66699 -5.5 -14 -5.5h-8
c-12.667 0 -19 6.66699 -19 20v399c0 13.333 6.33301 20 19 20zM60.999 482.998c-9.33301 0 -14.333 7.83301 -15 23.5s5 23.5 17 23.5h449c13.333 0 20 -7.83301 20 -23.5s-6 -23.5 -18 -23.5h-2h-449h-2z" />
    <glyph glyph-name="endash" unicode="&#x2013;" horiz-adv-x="228" 
d="M39 386l149 0.00195312c5.33301 0 10 -1.83301 14 -5.5s6 -7.83398 6 -12.501v-10c0 -5.33301 -2 -9.83301 -6 -13.5s-8.66699 -5.5 -14 -5.5h-149c-12.667 0 -19 6.33301 -19 19v10c0 5.33301 1.83301 9.66602 5.5 12.999s8.16699 5 13.5 5z" />
    <glyph glyph-name="emdash" unicode="&#x2014;" horiz-adv-x="456" 
d="M53 386h343c5.33301 0 9.83301 -1.66699 13.5 -5s5.5 -7.66602 5.5 -12.999v-10c0 -12.667 -6.33301 -19 -19 -19h-343c-12.667 0 -19 6.33301 -19 19v10c0 5.33301 1.83301 9.66602 5.5 12.999s8.16699 5 13.5 5z" />
    <glyph glyph-name="quoteleft" unicode="&#x2018;" horiz-adv-x="236" 
d="M154 732l26.001 0.000976562c8 -1.33301 10 -6 6 -14l-58 -130h34c19.333 0 29 -9.66699 29 -29v-93c0 -12.667 -1.83301 -21.167 -5.5 -25.5s-10.834 -6.5 -21.501 -6.5h-102c-9.33301 0 -17 4.33301 -23 13c-2.66699 5.33301 -4 10.666 -4 15.999s2.33301 14 7 26
l100 229c3.33301 9.33301 7.33301 14 12 14zM124.001 550.001c-6.66699 0 -10 1.66699 -10 5l-30 -68c-1.33301 -4 -2 -6.66699 -2 -8c0 -3.33301 2.66699 -5 8 -5h52c6 6.66699 9 12 9 16v53c0 3.33301 -0.666992 5.33301 -2 6s-5 1 -11 1h-14z" />
    <glyph glyph-name="quoteright" unicode="&#x2019;" horiz-adv-x="236" 
d="M72 732l101.999 -0.000976562c9.33301 0 17 -4.33301 23 -13c2.66699 -5.33301 4 -10.666 4 -15.999s-2.33301 -14 -7 -26l-100 -229c-3.33301 -9.33301 -7.33301 -14 -12 -14h-26c-8 1.33301 -10 6 -6 14l57 130h-33c-19.333 0 -29 9.66699 -29 29v93
c0 12.667 1.83301 21.167 5.5 25.5s10.834 6.5 21.501 6.5zM111.999 615.999c5.33301 0 8.66797 -2 10.001 -6l30 69c1.33301 4 2 6.66699 2 8c0 3.33301 -2.66699 5 -8 5h-52c-4.66699 0 -7.33398 -0.666992 -8.00098 -2s-1 -4 -1 -8v-59
c0 -3.33301 0.666992 -5.33301 2 -6s5 -1 11 -1h14z" />
    <glyph glyph-name="quotesinglbase" unicode="&#x201a;" horiz-adv-x="66" 
d="M78 139h13c12.667 0 18 -6.33301 16 -19l-57 -243c-2 -8.66699 -8.33301 -13 -19 -13h-12c-13.333 0 -19 6.33301 -17 19l57 243c2.66699 8.66699 9 13 19 13z" />
    <glyph glyph-name="quotedblleft" unicode="&#x201c;" horiz-adv-x="0" 
d="M333 732l26.001 0.000976562c8 -1.33301 10 -6 6 -14l-58 -130h34c19.333 0 29 -9.66699 29 -29v-93c0 -12.667 -1.83301 -21.167 -5.5 -25.5s-10.834 -6.5 -21.501 -6.5h-102c-9.33301 0 -17 4.33301 -23 13c-2.66699 5.33301 -4 10.666 -4 15.999s2.33301 14 7 26
l100 229c3.33301 9.33301 7.33301 14 12 14zM303.001 550.001c-6.66699 0 -10 1.66699 -10 5l-30 -68c-1.33301 -4 -2 -6.66699 -2 -8c0 -3.33301 2.66699 -5 8 -5h52c6 6.66699 9 12 9 16v53c0 3.33301 -0.666992 5.33301 -2 6s-5 1 -11 1h-14zM154.001 732.001
l26.001 0.000976562c8 -1.33301 10 -6 6 -14l-58 -130h34c19.333 0 29 -9.66699 29 -29v-93c0 -12.667 -1.83301 -21.167 -5.5 -25.5s-10.834 -6.5 -21.501 -6.5h-102c-9.33301 0 -17 4.33301 -23 13c-2.66699 5.33301 -4 10.666 -4 15.999s2.33301 14 7 26l100 229
c3.33301 9.33301 7.33301 14 12 14zM124.002 550.002c-6.66699 0 -10 1.66699 -10 5l-30 -68c-1.33301 -4 -2 -6.66699 -2 -8c0 -3.33301 2.66699 -5 8 -5h52c6 6.66699 9 12 9 16v53c0 3.33301 -0.666992 5.33301 -2 6s-5 1 -11 1h-14z" />
    <glyph glyph-name="quotedblright" unicode="&#x201d;" horiz-adv-x="0" 
d="M244 732l101.999 -0.000976562c9.33301 0 17 -4.33301 23 -13c2.66699 -5.33301 4 -10.666 4 -15.999s-2.33301 -14 -7 -26l-100 -229c-3.33301 -9.33301 -7.33301 -14 -12 -14h-26c-8 1.33301 -10 6 -6 14l57 130h-33c-19.333 0 -29 9.66699 -29 29v93
c0 12.667 1.83301 21.167 5.5 25.5s10.834 6.5 21.501 6.5zM283.999 615.999c5.33301 0 8.66797 -2 10.001 -6l30 69c1.33301 4 2 6.66699 2 8c0 3.33301 -2.66699 5 -8 5h-52c-4.66699 0 -7.33398 -0.666992 -8.00098 -2s-1 -4 -1 -8v-59
c0 -3.33301 0.666992 -5.33301 2 -6s5 -1 11 -1h14zM72.001 731.999l101.999 -0.000976562c9.33301 0 17 -4.33301 23 -13c2.66699 -5.33301 4 -10.666 4 -15.999s-2.33301 -14 -7 -26l-100 -229c-3.33301 -9.33301 -7.33301 -14 -12 -14h-26c-8 1.33301 -10 6 -6 14l57 130
h-33c-19.333 0 -29 9.66699 -29 29v93c0 12.667 1.83301 21.167 5.5 25.5s10.834 6.5 21.501 6.5zM112 615.998c5.33301 0 8.66797 -2 10.001 -6l30 69c1.33301 4 2 6.66699 2 8c0 3.33301 -2.66699 5 -8 5h-52c-4.66699 0 -7.33398 -0.666992 -8.00098 -2s-1 -4 -1 -8v-59
c0 -3.33301 0.666992 -5.33301 2 -6s5 -1 11 -1h14z" />
    <glyph glyph-name="quotedblbase" unicode="&#x201e;" horiz-adv-x="219" 
d="M178 139h13c12.667 0 18 -6.33301 16 -19l-57 -243c-2 -8.66699 -8.33301 -13 -19 -13h-12c-13.333 0 -19 6.33301 -17 19l57 243c2.66699 8.66699 9 13 19 13zM86 139h13c12.667 0 18 -6.33301 16 -19l-57 -243c-2 -8.66699 -8.33301 -13 -19 -13h-12
c-13.333 0 -19 6.33301 -17 19l57 243c2.66699 8.66699 9 13 19 13z" />
    <glyph glyph-name="dagger" unicode="&#x2020;" horiz-adv-x="442" 
d="M80 472l116.002 -0.00195312v209c0 12.667 6.33301 19 19 19h12c12.667 0 19 -6.33301 19 -19v-209h117c5.33301 0 9.83301 -1.66699 13.5 -5s5.5 -7.66602 5.5 -12.999v-13c0 -12.667 -6.33301 -19 -19 -19h-117v-524c0 -5.33301 -1.83301 -10 -5.5 -14
s-8.16699 -6 -13.5 -6h-12c-5.33301 0 -9.83301 2 -13.5 6s-5.5 8.66699 -5.5 14v524h-116c-6 0 -11 1.83301 -15 5.5s-5.66699 8.16699 -5 13.5v13c-0.666992 4.66699 1.16602 8.83398 5.49902 12.501s9.16602 5.5 14.499 5.5z" />
    <glyph glyph-name="daggerdbl" unicode="&#x2021;" horiz-adv-x="442" 
d="M80 472l116 -0.00195312v209c0 12.667 6.33301 19 19 19h12c12.667 0 19 -6.33301 19 -19v-209h117c5.33301 0 9.83301 -1.66699 13.5 -5s5.5 -7.66602 5.5 -12.999v-13c0 -12.667 -6.33301 -19 -19 -19h-117v-199h117c5.33301 0 9.83301 -1.66699 13.5 -5
s5.5 -7.66602 5.5 -12.999v-13c0 -12.667 -6.33301 -19 -19 -19h-117v-275c0 -5.33301 -1.83301 -10 -5.5 -14s-8.16699 -6 -13.5 -6h-12c-5.33301 0 -9.83301 2 -13.5 6s-5.5 8.66699 -5.5 14v275h-116c-6 0 -11 1.83301 -15 5.5s-5.66699 8.16699 -5 13.5v14
c0 4.66699 2 8.66699 6 12s8.66699 5 14 5h116v199h-116c-6 0 -11 1.83301 -15 5.5s-5.66699 8.16699 -5 13.5v14c0 4.66699 2 8.66699 6 12s8.66699 5 14 5z" />
    <glyph glyph-name="bullet" unicode="&#x2022;" 
d="M309 430c39.333 0 72.833 -14 100.5 -42s41.5 -61.333 41.5 -100s-13.833 -72 -41.5 -100s-61.167 -42 -100.5 -42s-72.833 14 -100.5 42s-41.5 61.333 -41.5 100s13.833 72 41.5 100s61.167 42 100.5 42zM309 375c-24.667 0 -45.334 -8.33301 -62.001 -25
s-25 -37.334 -25 -62.001s8.33301 -45.334 25 -62.001s37.334 -25 62.001 -25s45.334 8.33301 62.001 25s25 37.334 25 62.001s-8.33301 45.334 -25 62.001s-37.334 25 -62.001 25z" />
    <glyph glyph-name="ellipsis" unicode="&#x2026;" horiz-adv-x="528" 
d="M263 111c24 0 39.667 -3.16699 47 -9.5s11 -19.5 11 -39.5v-13c0 -22.667 -3.66699 -37 -11 -43s-23 -9 -47 -9s-39.333 3 -46 9s-10 20.333 -10 43v13c0 21.333 3.33301 34.833 10 40.5s22 8.5 46 8.5zM281.5 72.5c-3 2.33301 -9 3.5 -18 3.5s-14.833 -1 -17.5 -3
s-4 -6.66699 -4 -14v-10c0 -7.33301 1.33301 -12 4 -14s8.66699 -3 18 -3s15.333 1 18 3s4 6.66699 4 14v10c0 6.66699 -1.5 11.167 -4.5 13.5zM430 111c24 0 39.667 -3.16699 47 -9.5s11 -19.5 11 -39.5v-13c0 -22.667 -3.66699 -37 -11 -43s-23 -9 -47 -9s-39.333 3 -46 9
s-10 20.333 -10 43v13c0 21.333 3.33301 34.833 10 40.5s22 8.5 46 8.5zM448.5 72.5c-3 2.33301 -9 3.5 -18 3.5s-14.833 -1 -17.5 -3s-4 -6.66699 -4 -14v-10c0 -7.33301 1.33301 -12 4 -14s8.66699 -3 18 -3s15.333 1 18 3s4 6.66699 4 14v10
c0 6.66699 -1.5 11.167 -4.5 13.5zM96 111c24 0 39.667 -3.16699 47 -9.5s11 -19.5 11 -39.5v-13c0 -22.667 -3.66699 -37 -11 -43s-23 -9 -47 -9s-39.333 3 -46 9s-10 20.333 -10 43v13c0 21.333 3.33301 34.833 10 40.5s22 8.5 46 8.5zM114.5 72.5
c-3 2.33301 -9 3.5 -18 3.5s-14.833 -1 -17.5 -3s-4 -6.66699 -4 -14v-10c0 -7.33301 1.33301 -12 4 -14s8.66699 -3 18 -3s15.333 1 18 3s4 6.66699 4 14v10c0 6.66699 -1.5 11.167 -4.5 13.5z" />
    <glyph glyph-name="perthousand" unicode="&#x2030;" horiz-adv-x="837" 
d="M371 732h12.002c7.33301 0 12.666 -2.16699 15.999 -6.5s4.33301 -9.83301 3 -16.5l-131 -713c-2 -10.667 -8.33301 -16 -19 -16h-10c-6.66699 0 -11.834 2.16699 -15.501 6.5s-5.16699 9.83301 -4.5 16.5l129 713c2 10.667 8.66699 16 20 16zM355.002 208
c0 68.667 33.833 103 101.5 103s101.5 -34.333 101.5 -103v-105c0 -68.667 -33.833 -103 -101.5 -103s-101.5 34.333 -101.5 103v105zM510.002 214c0 32.667 -17.833 49 -53.5 49s-53.5 -16.333 -53.5 -49v-117c0 -32.667 17.833 -49 53.5 -49s53.5 16.333 53.5 49v117z
M50.002 597c0 68.667 33.833 103 101.5 103s101.5 -34.333 101.5 -103v-105c0 -68.667 -33.833 -103 -101.5 -103s-101.5 34.333 -101.5 103v105zM205.002 603c0 32.667 -17.833 49 -53.5 49s-53.5 -16.333 -53.5 -49v-117c0 -32.667 17.833 -49 53.5 -49
s53.5 16.333 53.5 49v117zM584.002 208c0 68.667 33.833 103 101.5 103s101.5 -34.333 101.5 -103v-105c0 -68.667 -33.833 -103 -101.5 -103s-101.5 34.333 -101.5 103v105zM739.002 214c0 32.667 -17.833 49 -53.5 49s-53.5 -16.333 -53.5 -49v-117
c0 -32.667 17.833 -49 53.5 -49s53.5 16.333 53.5 49v117z" />
    <glyph glyph-name="guilsinglleft" unicode="&#x2039;" horiz-adv-x="347" 
d="M309 530l12 3.00195h3l2 -1h2c6 -2.66699 9.66699 -5.33398 11 -8.00098l5 -10v-1c0.666992 -1.33301 1 -3.33301 1 -6v-3l-5 -10c-2.66699 -2.66699 -4.33398 -4 -5.00098 -4c0 -1.33301 -0.666992 -2 -2 -2l-225 -168l229 -171c0 -1.33301 0.666992 -2 2 -2l6 -11l1 -6
c0 -2.66699 -0.166992 -5.33398 -0.5 -8.00098s-1.66602 -5 -3.99902 -7l-3.5 -3c0 -2 -3.66699 -4 -11 -6h-5c-8 0 -12.333 1.33301 -13 4l-230 173l-6 4l-6 7c0 0.666992 -1.16699 2.16699 -3.5 4.5s-3.5 5.5 -3.5 9.5l-1 7v5c0 9.33301 2 16.333 6 21s9 9.66699 15 15z
" />
    <glyph glyph-name="guilsinglright" unicode="&#x203a;" horiz-adv-x="347" 
d="M8 526c4.66699 4.66699 9.66699 6.99902 15 6.99902s10 -1 14 -3l229 -174c14 -10.667 21 -23 21 -37s-6.66699 -26 -20 -36l-230 -173c-3.33301 -2.66699 -9 -4 -17 -4s-13.333 3.33301 -16 10s-4 12.834 -4 18.501s4.33301 11.5 13 17.5l224 168l-224 168
c-8 6 -12 12.667 -12 20s2.33301 13.333 7 18z" />
    <glyph glyph-name="fraction" unicode="&#x2044;" 
d="M8 0c-10 0 -15 5 -15 15c0 4 1.33301 7.66699 4 11l568 699c6.66699 8.66699 13.667 13 21 13h3c7.33301 0 12.333 -2.16699 15 -6.5s4 -8 4 -11s-1.33301 -5.83301 -4 -8.5l-567 -699c-5.33301 -8.66699 -11.333 -13 -18 -13h-11z" />
    <glyph glyph-name="Euro" unicode="&#x20ac;" horiz-adv-x="656" 
d="M37 419l42 -0.000976562v34c0 41.333 6 77.666 18 108.999s26.667 55.333 44 72s37.666 30.334 60.999 41.001c35.333 16.667 73.666 25 114.999 25c38 0 72.333 -6.83301 103 -20.5s54.834 -28 72.501 -43s32.334 -35.167 44.001 -60.5s17.5 -54 17.5 -86
c0 -14 -6.33301 -21 -19 -21h-9c-4.66699 0 -9.16699 1.83301 -13.5 5.5s-6.5 7.83398 -6.5 12.501c0 31.333 -7 58.5 -21 81.5s-31.667 40.167 -53 51.5c-40.667 20.667 -79 31 -115 31c-58 0 -105 -17.667 -141 -53c-13.333 -14 -24.666 -33.833 -33.999 -59.5
s-14 -55.167 -14 -88.5v-31h277c6 0 10.833 -2 14.5 -6s5.5 -8.66699 5.5 -14v-9c0 -12.667 -6.66699 -19 -20 -19h-277v-48h277c13.333 0 20 -6.33301 20 -19v-10c0 -12.667 -6.66699 -19 -20 -19h-277v-26c0 -41.333 6.83301 -76.5 20.5 -105.5s31.5 -49.833 53.5 -62.5
c38.667 -22.667 77 -34 115 -34c88.667 0 147.667 36 177 108c9.33301 24 14 52 14 84c0 4.66699 2 9 6 13s8.33301 6 13 6h8c12.667 0 19 -6.33301 19 -19c0 -38 -5.83301 -71.833 -17.5 -101.5s-26.334 -53 -44.001 -70s-37.834 -30.833 -60.501 -41.5
c-37.333 -18 -75.666 -27 -114.999 -27c-40.667 0 -76 7.16699 -106 21.5s-53.667 30 -71 47s-31.833 40.833 -43.5 71.5s-17.5 66 -17.5 106v30h-42c-12.667 0 -19 6.33301 -19 19v10c0 12.667 6.33301 19 19 19h42v48h-42c-12.667 0 -19 6.33301 -19 19v9
c0 5.33301 1.83301 10 5.5 14s8.16699 6 13.5 6z" />
    <glyph glyph-name="trademark" unicode="&#x2122;" horiz-adv-x="1150" 
d="M241 624h10c13.333 0 20 -6.33301 20 -19v-585c0 -5.33301 -1.83301 -10 -5.5 -14s-8.5 -6 -14.5 -6h-10c-6 0 -10.833 2 -14.5 6s-5.5 8.66699 -5.5 14v585c0 12.667 6.66699 19 20 19zM25 700h444c6 0 10.833 -2 14.5 -6s5.5 -8.66699 5.5 -14v-11
c0 -12 -6.66699 -18 -20 -18h-444c-13.333 0 -20 6 -20 18v11c0 5.33301 2 10 6 14s8.66699 6 14 6zM1038 703c10.667 0 20.001 -3.5 28.001 -10.5s12 -17.833 12 -32.5v-640c0 -5.33301 -1.83301 -10 -5.5 -14s-8.5 -6 -14.5 -6h-9c-6 0 -10.833 2 -14.5 6
s-5.5 8.66699 -5.5 14v595l-174 -430c-7.33301 -17.333 -19.333 -27 -36 -29c-19.333 0 -33 9.33301 -41 28l-184 435v-599c0 -5.33301 -2 -10 -6 -14s-8.66699 -6 -14 -6h-10c-5.33301 0 -9.83301 2 -13.5 6s-5.5 8.66699 -5.5 14v640c0 28.667 13 43 39 43
c18 0 31.333 -10 40 -30l192 -453l182 453c9.33301 20 22.666 30 39.999 30z" />
    <glyph glyph-name="product" unicode="&#x220f;" 
d="M24 732l583.002 -0.00195312c5.33301 0 9.83301 -1.66699 13.5 -5s5.5 -7.66602 5.5 -12.999v-13c0 -12.667 -6.33301 -19 -19 -19h-93v-754c0 -5.33301 -1.83301 -10 -5.5 -14s-8.16699 -6 -13.5 -6h-12c-5.33301 0 -9.83301 2 -13.5 6s-5.5 8.66699 -5.5 14v754h-310
v-754c0 -5.33301 -1.83301 -10 -5.5 -14s-8.16699 -6 -13.5 -6h-12c-5.33301 0 -9.83301 2 -13.5 6s-5.5 8.66699 -5.5 14v754h-80c-6 0 -11 1.83301 -15 5.5s-5.66699 8.16699 -5 13.5v13c-0.666992 4.66699 1.16602 8.83398 5.49902 12.501s9.16602 5.5 14.499 5.5z" />
    <glyph glyph-name="summation" unicode="&#x2211;" horiz-adv-x="500" 
d="M63 650c5.33301 0 10 -1.99707 14 -5.99707l301 -293c3.33301 -4.66699 5 -9.33398 5 -14.001s-2 -9 -6 -13l-300 -290c-4 -4 -8.66699 -6 -14 -6s-11.166 3.16699 -17.499 9.5s-9.5 12.166 -9.5 17.499s2 10 6 14l279 269l-279 271c-4 4 -6 8.66699 -6 14
s3.16699 11.166 9.5 17.499s12.166 9.5 17.499 9.5zM28 0.00292969h444c6 0 10.833 -2 14.5 -6s5.5 -8.66699 5.5 -14v-11c0 -12 -6.66699 -18 -20 -18h-444c-13.333 0 -20 6 -20 18v11c0 5.33301 2 10 6 14s8.66699 6 14 6zM28 727.003h444c6 0 10.833 -2 14.5 -6
s5.5 -8.66699 5.5 -14v-11c0 -12 -6.66699 -18 -20 -18h-444c-13.333 0 -20 6 -20 18v11c0 5.33301 2 10 6 14s8.66699 6 14 6z" />
    <glyph glyph-name="minus" unicode="&#x2212;" horiz-adv-x="459" 
d="M35 386h390c12.667 0 19 -6.33301 19 -19v-9c0 -5.33301 -1.83301 -10 -5.5 -14s-8.16699 -6 -13.5 -6h-390c-6 0 -10.833 2 -14.5 6s-5.5 8.66699 -5.5 14v9c0 12.667 6.66699 19 20 19z" />
    <glyph glyph-name="radical" unicode="&#x221a;" 
d="M648 830c20 -6 30.001 -11.9961 30.001 -17.9961c0 -4 -1 -8.33301 -3 -13l-375 -880c-1.33301 -3.33301 -4.33301 -5 -9 -5h-12c-6 0 -9.66699 1.66699 -11 5l-153 362l-111 -63c-4 -2.66699 -7.33301 -3.33398 -10 -2.00098s-6.33398 6.66602 -11.001 15.999
s-7 14.666 -7 15.999s0.666992 2.66602 2 3.99902l159 93c6.66699 4 11 3.66699 13 -1l137 -323l344 796c4 9.33301 8 14 12 14c1.33301 0 3 -0.333008 5 -1z" />
    <glyph glyph-name="infinity" unicode="&#x221e;" horiz-adv-x="594" 
d="M416 500l35.001 0.00292969c35.333 0 63.833 -10.833 85.5 -32.5s32.5 -51.334 32.5 -89.001s-10.833 -67.834 -32.5 -90.501s-50.167 -34 -85.5 -34h-35c-25.333 0 -42.833 3.5 -52.5 10.5s-16 11.5 -19 13.5s-7.5 6.66699 -13.5 14s-9.83301 12.166 -11.5 14.499
s-6.16699 8.16602 -13.5 17.499l-13 18c-18 -28.667 -35.333 -50.5 -52 -65.5s-37.667 -22.5 -63 -22.5h-35c-35.333 0 -63.833 10.833 -85.5 32.5s-32.5 51.334 -32.5 89.001s10.833 67.834 32.5 90.501s50.167 34 85.5 34h35c18.667 0 35.5 -4.33301 50.5 -13
s26.333 -17.667 34 -27s18.5 -24 32.5 -44c18.667 27.333 37.167 48.166 55.5 62.499s40.166 21.5 65.499 21.5zM176.001 462.003l-31.002 0.000976562c-24.667 0 -44.167 -7.66699 -58.5 -23s-21.5 -36.5 -21.5 -63.5s7 -47.833 21 -62.5s33.667 -22 59 -22h31
c20 0 38 10.333 54 31c12 14 25 32 39 54l-10 15.5c-5.33301 8.33301 -9.16602 14.166 -11.499 17.499s-6.16602 8.5 -11.499 15.5s-9.83301 12.167 -13.5 15.5s-8.16699 7 -13.5 11c-10 7.33301 -21 11 -33 11zM448.999 463.004l-31.002 0.000976562
c-28 0 -60.667 -26.667 -98 -80c4 -4.66699 10.333 -13.834 19 -27.501s15.834 -24.167 21.501 -31.5s13.834 -14.5 24.501 -21.5s21.667 -10.5 33 -10.5h31c24.667 0 44.167 7.66699 58.5 23s21.5 36.5 21.5 63.5s-7 47.833 -21 62.5s-33.667 22 -59 22z" />
    <glyph glyph-name="integral" unicode="&#x222b;" horiz-adv-x="390" 
d="M60 80c24 0 39.6709 -3.16504 47.0039 -9.49805s10.666 -19.5 9.99902 -39.5l-1 -13c0 -9.33301 -1 -17.666 -3 -24.999h8c18.667 0 36.5 2.5 53.5 7.5s33.333 16.833 49 35.5s23.5 42.667 23.5 72s-6 60.666 -18 93.999s-30 76.333 -54 129
c-45.333 99.333 -68 169.666 -68 210.999c0 8 0.333008 13.667 1 17c6 43.333 23.667 77.833 53 103.5s69.333 38.5 120 38.5c31.333 0 61 -4.33301 89 -13l4 -3c9.33301 -5.33301 14 -19.333 14 -42v-13c-0.666992 -22.667 -4.83398 -37 -12.501 -43s-23.5 -9 -47.5 -9
s-39 2.83301 -45 8.5s-9 18.167 -9 37.5v6v13c0 5.33301 0.666992 12 2 20c-75.333 -2.66699 -117.333 -37.334 -126 -104.001c-0.666992 -3.33301 -1 -11.166 -1 -23.499s3.5 -30 10.5 -53s13.167 -40.833 18.5 -53.5c11.333 -25.333 21.166 -46.166 29.499 -62.499
s16.5 -33.333 24.5 -51l15.5 -34.5c2.33301 -5.33301 6.5 -15.5 12.5 -30.5s10.167 -26.333 12.5 -34s5.16602 -17.834 8.49902 -30.501c5.33301 -19.333 8 -36.833 8 -52.5s-0.666992 -30.167 -2 -43.5c-4 -40 -21.333 -72.5 -52 -97.5s-70.334 -37.5 -119.001 -37.5
c-18.667 0 -38.5 2 -59.5 6s-32.5 6.66699 -34.5 8c-8 2.66699 -13.333 7.16699 -16 13.5s-4 13.166 -4 20.499v15l1 13c0.666992 21.333 4.33398 34.833 11.001 40.5s22 8.5 46 8.5zM77.5039 41.502c-3 2.33301 -9 3.50098 -18 3.50098s-14.833 -1 -17.5 -3
s-4 -6.66699 -4 -14l-1 -10c0 -6.66699 1 -11.334 3 -14.001l16 -3h2c10 0 16.333 1 19 3s4 6.66699 4 14l1 10c0 6.66699 -1.5 11.167 -4.5 13.5zM330.004 657.003c-8.66699 0 -14.334 -1 -17.001 -3s-4 -6.66699 -4 -14v-14c0 -5.33301 1.33301 -8.83301 4 -10.5
s8.5 -2.5 17.5 -2.5s14.833 1 17.5 3s4.33398 6.66699 5.00098 14v10c0 6.66699 -1.66699 11 -5 13l-14 4h-4z" />
    <glyph glyph-name="approxequal" unicode="&#x2248;" 
d="M453 508h23.999c8.66699 0 13 -5.66699 13 -17c0 -36.667 -10 -64.667 -30 -84s-44 -29 -72 -29s-55.333 7.16699 -82 21.5l-76 42.5c-24 14 -43.667 21 -59 21s-29.5 -5.33301 -42.5 -16s-19.5 -27.667 -19.5 -51c0 -12 -5 -18 -15 -18h-15c-8.66699 0 -13 6 -13 18
c0 34 10 60.833 30 80.5s44.5 29.5 73.5 29.5s66.333 -14 112 -42s77.834 -42 96.501 -42c44 0 66 23 66 69c0 11.333 3 17 9 17zM452.999 338h23.999c8.66699 0 13 -5.66699 13 -17c0 -36.667 -10 -64.667 -30 -84s-44 -29 -72 -29s-55.333 7.16699 -82 21.5l-76 42.5
c-24 14 -43.667 21 -59 21s-29.5 -5.33301 -42.5 -16s-19.5 -27.667 -19.5 -51c0 -12 -5 -18 -15 -18h-15c-8.66699 0 -13 6 -13 18c0 34 10 60.833 30 80.5s44.5 29.5 73.5 29.5s66.333 -14 112 -42s77.834 -42 96.501 -42c44 0 66 23 66 69c0 11.333 3 17 9 17z" />
    <glyph glyph-name="notequal" unicode="&#x2260;" horiz-adv-x="579" 
d="M95 446h390c12.667 0 19 -6.33301 19 -19v-9c0 -13.333 -6.33301 -20 -19 -20h-390c-13.333 0 -20 6.66699 -20 20v9c0 12.667 6.66699 19 20 19zM95 322h390c12.667 0 19 -6.33301 19 -19v-9c0 -5.33301 -1.83301 -10 -5.5 -14s-8.16699 -6 -13.5 -6h-390
c-6 0 -10.833 2 -14.5 6s-5.5 8.66699 -5.5 14v9c0 12.667 6.66699 19 20 19zM423 699c11.333 0 16.999 -5.66699 16.999 -17c0 -2.66699 -0.666992 -5.66699 -2 -9l-261 -660c-5.33301 -8.66699 -10.333 -13 -15 -13h-12c-7.33301 0 -12.666 2.16699 -15.999 6.5
s-5 8 -5 11s0.666992 5.83301 2 8.5l260 660c4.66699 8.66699 11 13 19 13h13z" />
    <glyph glyph-name="lessequal" unicode="&#x2264;" horiz-adv-x="572" 
d="M480 504c3.33301 2 7.00098 2.99805 11.001 2.99805s7.66699 -1 11 -3c9.33301 -2.66699 14 -10.167 14 -22.5s-4.66699 -20.166 -14 -23.499l-395 -138l397 -132c6 -2 10.167 -6.16699 12.5 -12.5s2.16602 -13.166 -0.500977 -20.499
c-4.66699 -10.667 -10.5 -16 -17.5 -16s-13.167 1 -18.5 3l-410 141c-13.333 5.33301 -20 17.5 -20 36.5s7 31.167 21 36.5zM76.001 69.998h426c13.333 0 20 -8 20 -24s-6.66699 -24 -20 -24h-426c-12.667 0 -19 8 -19 24s6.33301 24 19 24z" />
    <glyph glyph-name="greaterequal" unicode="&#x2265;" horiz-adv-x="572" 
d="M501 356c14 -5.33301 21.001 -17.498 21.001 -36.498s-6.66699 -31.167 -20 -36.5l-410 -141c-5.33301 -2 -11.5 -3 -18.5 -3s-12.833 5.33301 -17.5 16c-2.66699 7.33301 -2.83398 14.166 -0.500977 20.499s6.5 10.5 12.5 12.5l397 132l-395 138
c-9.33301 3.33301 -14 11.166 -14 23.499s4.66699 19.833 14 22.5c3.33301 2 7 3 11 3s7.66699 -1 11 -3zM70.001 70.002h426c12.667 0 19 -8 19 -24s-6.33301 -24 -19 -24h-426c-13.333 0 -20 8 -20 24s6.66699 24 20 24z" />
    <glyph glyph-name="lozenge" unicode="&#x25ca;" horiz-adv-x="688" 
d="M325 526c7.33301 7.33301 15.168 11 23.501 11s17.5 -4.33301 27.5 -13l239 -239c7.33301 -9.33301 11 -18.166 11 -26.499s-3.66699 -16.5 -11 -24.5l-237 -245c-8 -8 -16.333 -12 -25 -12s-17.334 4 -26.001 12l-242 242c-8.66699 10 -13 19.167 -13 27.5
s3.66699 16.166 11 23.499zM349.002 487l-228 -229l232 -231l225 232z" />
    <glyph glyph-name=".null" horiz-adv-x="0" 
 />
    <glyph glyph-name="nonmarkingreturn" horiz-adv-x="333" 
 />
    <glyph glyph-name="two.dnom" horiz-adv-x="500" 
d="M321 331c0 45.333 -25.667 68 -77 68c-42 0 -69.333 -20 -82 -60c-1.33301 -4.66699 -5.33301 -7 -12 -7h-7c-10 0 -15 3 -15 9c0 8.66699 1 14 3 16c8 24.667 22.5 43.834 43.5 57.501s47 20.5 78 20.5s56.833 -9.83301 77.5 -29.5s31 -44.834 31 -75.501
c0 -41.333 -25.333 -94.333 -76 -159l-63 -76l-48 -57h179c8.66699 0 13 -4 13 -12v-14c0 -8 -4.33301 -12 -13 -12h-207c-18 0 -27 7.66699 -27 23c0 7.33301 12 25 36 53c56 65.333 89.333 105.333 100 120c44 56.667 66 101.667 66 135z" />
    <glyph glyph-name="four.dnom" 
d="M285 427c8 11.333 17.834 17 29.501 17s20.667 -2.66699 27 -8s9.5 -12.333 9.5 -21v-228h61c3.33301 0 6.16602 -1.5 8.49902 -4.5s3.5 -6.16699 3.5 -9.5v-7c0 -11.333 -4 -17 -12 -17h-61v-137c0 -8 -4 -12 -12 -12h-14c-8.66699 0 -13 4 -13 12v137h-161
c-17.333 0 -28 7 -32 21c-0.666992 2.66699 -1 6 -1 10s1.66699 8.66699 5 14zM312.001 187v216l-148 -216h148z" />
    <glyph glyph-name="one.numr" horiz-adv-x="383" 
d="M213 408v-394c0 -9.33301 -4 -14 -12 -14h-17c-8 -0 -12 4.33301 -12 13v387l-105 -83c-6.66699 -5.33301 -12 -5 -16 1l-7 9c-2 2 -3 4.33301 -3 7s2 5.66699 6 9l109 90c9.33301 8 19.333 12 30 12c18 -0.666992 27 -13 27 -37z" />
    <glyph glyph-name="three.numr" 
d="M207 706.5c20.667 17 47.334 25.4961 80.001 25.4961s59 -11 79 -33s30 -49.667 30 -83c0 -20.667 -5.5 -40.167 -16.5 -58.5s-27.5 -32.166 -49.5 -41.499c50.667 -15.333 76 -51 76 -107c0 -40 -13 -70 -39 -90s-55.333 -30 -88 -30c-69.333 0 -110.666 32 -123.999 96
c-1.33301 4 -2 7 -2 9s2 3 6 3l24 1h3c0.666992 0 1.66699 -2.33301 3 -7c11.333 -44 41.333 -66 90 -66c26.667 0 48.5 7.33301 65.5 22s25.5 35.334 25.5 62.001s-8.33301 48.167 -25 64.5s-43 24.5 -79 24.5h-37c-4.66699 0 -7.16699 0.5 -7.5 1.5s-0.5 6.5 -0.5 16.5
c3.33301 10.667 6.33301 16.334 9 17.001h34c32 0 56 7.66699 72 23s24 35.333 24 60s-6.66699 44.334 -20 59.001s-34 22 -62 22c-38.667 0 -61.334 -19 -68.001 -57c-0.666992 -2.66699 -2.33398 -4 -5.00098 -4h-31c-4 0 -5 3.66699 -3 11
c3.33301 22.667 15.333 42.5 36 59.5z" />
    <glyph glyph-name="nbspace" horiz-adv-x="500" 
 />
  </font>
</defs>
</svg>
